<?xml version="1.0" encoding="UTF-8"?><svg xmlns="http://www.w3.org/2000/svg" xmlns:xlink="http://www.w3.org/1999/xlink" fill-opacity="1" color-rendering="auto" color-interpolation="auto" text-rendering="auto" stroke="black" stroke-linecap="square" width="507" stroke-miterlimit="10" shape-rendering="auto" stroke-opacity="1" fill="black" stroke-dasharray="none" font-weight="normal" stroke-width="1" height="353" font-family="'Dialog'" font-style="normal" stroke-linejoin="miter" font-size="12px" stroke-dashoffset="0" image-rendering="auto">
  <!--Generated by ySVG 2.5-->
  <defs id="genericDefs"/>
  <g>
    <defs id="defs1">
      <clipPath clipPathUnits="userSpaceOnUse" id="clipPath1">
        <path d="M0 0 L507 0 L507 353 L0 353 L0 0 Z"/>
      </clipPath>
      <clipPath clipPathUnits="userSpaceOnUse" id="clipPath2">
        <path d="M20 -338 L527 -338 L527 15 L20 15 L20 -338 Z"/>
      </clipPath>
      <clipPath clipPathUnits="userSpaceOnUse" id="clipPath3">
        <path d="M199 -323 L199 -246 L303 -246 L303 -323 Z"/>
      </clipPath>
      <clipPath clipPathUnits="userSpaceOnUse" id="clipPath4">
        <path d="M0 0 L0 18 L45 18 L45 0 Z"/>
      </clipPath>
      <clipPath clipPathUnits="userSpaceOnUse" id="clipPath5">
        <path d="M0 0 L0 16 L93 16 L93 0 Z"/>
      </clipPath>
      <clipPath clipPathUnits="userSpaceOnUse" id="clipPath6">
        <path d="M199 -200 L199 -123 L303 -123 L303 -200 Z"/>
      </clipPath>
      <clipPath clipPathUnits="userSpaceOnUse" id="clipPath7">
        <path d="M35 -191 L35 -131 L139 -131 L139 -191 Z"/>
      </clipPath>
      <clipPath clipPathUnits="userSpaceOnUse" id="clipPath8">
        <path d="M0 0 L0 18 L23 18 L23 0 Z"/>
      </clipPath>
      <clipPath clipPathUnits="userSpaceOnUse" id="clipPath9">
        <path d="M35 -77 L35 0 L138 0 L138 -77 Z"/>
      </clipPath>
      <clipPath clipPathUnits="userSpaceOnUse" id="clipPath10">
        <path d="M198 -77 L198 0 L346 0 L346 -77 Z"/>
      </clipPath>
      <clipPath clipPathUnits="userSpaceOnUse" id="clipPath11">
        <path d="M363 -200 L363 -123 L511 -123 L511 -200 Z"/>
      </clipPath>
    </defs>
    <g fill="rgb(204,255,204)" text-rendering="geometricPrecision" shape-rendering="geometricPrecision" transform="matrix(1,0,0,1,-20,338)" stroke="rgb(204,255,204)">
      <rect x="200" width="102" height="75" y="-322" clip-path="url(#clipPath2)" stroke="none"/>
    </g>
    <g fill="white" text-rendering="geometricPrecision" shape-rendering="geometricPrecision" transform="matrix(1,0,0,1,-20,338)" stroke="white">
      <rect x="199" width="1" height="77" y="-323" clip-path="url(#clipPath2)" stroke="none"/>
      <rect x="200" width="102" height="1" y="-323" clip-path="url(#clipPath2)" stroke="none"/>
      <rect x="200" y="-247" clip-path="url(#clipPath2)" fill="rgb(142,178,142)" width="103" height="1" stroke="none"/>
      <rect x="302" y="-323" clip-path="url(#clipPath2)" fill="rgb(142,178,142)" width="1" height="76" stroke="none"/>
    </g>
    <g stroke-linecap="butt" font-size="13px" transform="matrix(1,0,0,1,-20,338) translate(228,-318)" text-rendering="geometricPrecision" font-family="sans-serif" shape-rendering="geometricPrecision" font-style="italic" font-weight="bold" stroke-miterlimit="1.45">
      <text x="0" xml:space="preserve" y="15" clip-path="url(#clipPath4)" stroke="none">Animal</text>
    </g>
    <g text-rendering="geometricPrecision" shape-rendering="geometricPrecision" transform="matrix(1,0,0,1,-20,338)">
      <line y2="-295" fill="none" x1="200" clip-path="url(#clipPath3)" x2="302" y1="-295"/>
      <text stroke-linecap="butt" x="204" y="-277.9355" clip-path="url(#clipPath3)" font-family="sans-serif" stroke="none" stroke-miterlimit="1.45" xml:space="preserve">- age : int</text>
      <line y2="-270" fill="none" x1="200" clip-path="url(#clipPath3)" x2="302" y1="-270"/>
    </g>
    <g stroke-linecap="butt" transform="matrix(1,0,0,1,-20,338) translate(204,-265)" text-rendering="geometricPrecision" font-family="sans-serif" shape-rendering="geometricPrecision" font-style="italic" stroke-miterlimit="1.45">
      <text x="0" xml:space="preserve" y="13" clip-path="url(#clipPath5)" stroke="none">+ speak() : String</text>
    </g>
    <g fill="rgb(204,255,204)" text-rendering="geometricPrecision" shape-rendering="geometricPrecision" transform="matrix(1,0,0,1,-20,338)" stroke="rgb(204,255,204)">
      <rect x="200" width="102" height="75" y="-199" clip-path="url(#clipPath2)" stroke="none"/>
      <rect x="199" y="-200" clip-path="url(#clipPath2)" fill="white" width="1" height="77" stroke="none"/>
      <rect x="200" y="-200" clip-path="url(#clipPath2)" fill="white" width="102" height="1" stroke="none"/>
      <rect x="200" y="-124" clip-path="url(#clipPath2)" fill="rgb(142,178,142)" width="103" height="1" stroke="none"/>
      <rect x="302" y="-200" clip-path="url(#clipPath2)" fill="rgb(142,178,142)" width="1" height="76" stroke="none"/>
    </g>
    <g font-size="13px" stroke-linecap="butt" transform="matrix(1,0,0,1,-20,338)" text-rendering="geometricPrecision" font-family="sans-serif" shape-rendering="geometricPrecision" font-weight="bold" stroke-miterlimit="1.45">
      <text x="236.5591" xml:space="preserve" y="-181.9302" clip-path="url(#clipPath6)" stroke="none">Frog</text>
    </g>
    <g text-rendering="geometricPrecision" shape-rendering="geometricPrecision" transform="matrix(1,0,0,1,-20,338)">
      <line y2="-174" fill="none" x1="200" clip-path="url(#clipPath6)" x2="302" y1="-174"/>
      <text stroke-linecap="butt" x="204" y="-157.0093" clip-path="url(#clipPath6)" font-family="sans-serif" stroke="none" stroke-miterlimit="1.45" xml:space="preserve">- colour : String</text>
      <line y2="-149" fill="none" x1="200" clip-path="url(#clipPath6)" x2="302" y1="-149"/>
      <text stroke-linecap="butt" x="204" y="-132.3081" clip-path="url(#clipPath6)" font-family="sans-serif" stroke="none" stroke-miterlimit="1.45" xml:space="preserve">+ speak() : String</text>
      <rect x="36" y="-190" clip-path="url(#clipPath2)" fill="rgb(204,255,204)" width="102" height="58" stroke="none"/>
      <rect x="35" y="-191" clip-path="url(#clipPath2)" fill="white" width="1" height="60" stroke="none"/>
      <rect x="36" y="-191" clip-path="url(#clipPath2)" fill="white" width="102" height="1" stroke="none"/>
      <rect x="36" y="-132" clip-path="url(#clipPath2)" fill="rgb(142,178,142)" width="103" height="1" stroke="none"/>
      <rect x="138" y="-191" clip-path="url(#clipPath2)" fill="rgb(142,178,142)" width="1" height="59" stroke="none"/>
    </g>
    <g stroke-linecap="butt" font-size="13px" transform="matrix(1,0,0,1,-20,338) translate(75,-186)" text-rendering="geometricPrecision" font-family="sans-serif" shape-rendering="geometricPrecision" font-style="italic" font-weight="bold" stroke-miterlimit="1.45">
      <text x="0" xml:space="preserve" y="15" clip-path="url(#clipPath8)" stroke="none">Pet </text>
    </g>
    <g text-rendering="geometricPrecision" shape-rendering="geometricPrecision" transform="matrix(1,0,0,1,-20,338)">
      <line y2="-163" fill="none" x1="36" clip-path="url(#clipPath7)" x2="138" y1="-163"/>
      <text stroke-linecap="butt" x="40" y="-146.4355" clip-path="url(#clipPath7)" font-family="sans-serif" stroke="none" stroke-miterlimit="1.45" xml:space="preserve">- name : String</text>
      <line y2="-138" fill="none" x1="36" clip-path="url(#clipPath7)" x2="138" y1="-138"/>
      <rect x="36" y="-76" clip-path="url(#clipPath2)" fill="rgb(204,255,204)" width="101" height="75" stroke="none"/>
      <rect x="35" y="-77" clip-path="url(#clipPath2)" fill="white" width="1" height="77" stroke="none"/>
      <rect x="36" y="-77" clip-path="url(#clipPath2)" fill="white" width="101" height="1" stroke="none"/>
      <rect x="36" y="-1" clip-path="url(#clipPath2)" fill="rgb(142,178,142)" width="102" height="1" stroke="none"/>
      <rect x="137" y="-77" clip-path="url(#clipPath2)" fill="rgb(142,178,142)" width="1" height="76" stroke="none"/>
    </g>
    <g font-size="13px" stroke-linecap="butt" transform="matrix(1,0,0,1,-20,338)" text-rendering="geometricPrecision" font-family="sans-serif" shape-rendering="geometricPrecision" font-weight="bold" stroke-miterlimit="1.45">
      <text x="74.24" xml:space="preserve" y="-58.9302" clip-path="url(#clipPath9)" stroke="none">Dog</text>
    </g>
    <g text-rendering="geometricPrecision" shape-rendering="geometricPrecision" transform="matrix(1,0,0,1,-20,338)">
      <line y2="-51" fill="none" x1="36" clip-path="url(#clipPath9)" x2="137" y1="-51"/>
      <text stroke-linecap="butt" x="40.125" y="-34.0093" clip-path="url(#clipPath9)" font-family="sans-serif" stroke="none" stroke-miterlimit="1.45" xml:space="preserve">- breed : String</text>
      <line y2="-26" fill="none" x1="36" clip-path="url(#clipPath9)" x2="137" y1="-26"/>
      <text stroke-linecap="butt" x="40.125" y="-9.3081" clip-path="url(#clipPath9)" font-family="sans-serif" stroke="none" stroke-miterlimit="1.45" xml:space="preserve">+ speak() : String</text>
      <rect x="199" y="-76" clip-path="url(#clipPath2)" fill="rgb(204,255,204)" width="146" height="75" stroke="none"/>
      <rect x="198" y="-77" clip-path="url(#clipPath2)" fill="white" width="1" height="77" stroke="none"/>
      <rect x="199" y="-77" clip-path="url(#clipPath2)" fill="white" width="146" height="1" stroke="none"/>
      <rect x="199" y="-1" clip-path="url(#clipPath2)" fill="rgb(142,178,142)" width="147" height="1" stroke="none"/>
      <rect x="345" y="-77" clip-path="url(#clipPath2)" fill="rgb(142,178,142)" width="1" height="76" stroke="none"/>
    </g>
    <g font-size="13px" stroke-linecap="butt" transform="matrix(1,0,0,1,-20,338)" text-rendering="geometricPrecision" font-family="sans-serif" shape-rendering="geometricPrecision" font-weight="bold" stroke-miterlimit="1.45">
      <text x="262.4014" xml:space="preserve" y="-58.9302" clip-path="url(#clipPath10)" stroke="none">Cat</text>
    </g>
    <g text-rendering="geometricPrecision" shape-rendering="geometricPrecision" transform="matrix(1,0,0,1,-20,338)">
      <line y2="-51" fill="none" x1="199" clip-path="url(#clipPath10)" x2="346" y1="-51"/>
      <text stroke-linecap="butt" x="203.625" y="-34.0093" clip-path="url(#clipPath10)" font-family="sans-serif" stroke="none" stroke-miterlimit="1.45" xml:space="preserve">- isAHouseCat : boolean</text>
      <line y2="-26" fill="none" x1="199" clip-path="url(#clipPath10)" x2="346" y1="-26"/>
      <text stroke-linecap="butt" x="203.625" y="-9.3081" clip-path="url(#clipPath10)" font-family="sans-serif" stroke="none" stroke-miterlimit="1.45" xml:space="preserve">+ speak() : String</text>
      <rect x="364" y="-199" clip-path="url(#clipPath2)" fill="rgb(204,255,204)" width="146" height="75" stroke="none"/>
      <rect x="363" y="-200" clip-path="url(#clipPath2)" fill="white" width="1" height="77" stroke="none"/>
      <rect x="364" y="-200" clip-path="url(#clipPath2)" fill="white" width="146" height="1" stroke="none"/>
      <rect x="364" y="-124" clip-path="url(#clipPath2)" fill="rgb(142,178,142)" width="147" height="1" stroke="none"/>
      <rect x="510" y="-200" clip-path="url(#clipPath2)" fill="rgb(142,178,142)" width="1" height="76" stroke="none"/>
    </g>
    <g font-size="13px" stroke-linecap="butt" transform="matrix(1,0,0,1,-20,338)" text-rendering="geometricPrecision" font-family="sans-serif" shape-rendering="geometricPrecision" font-weight="bold" stroke-miterlimit="1.45">
      <text x="425.3259" xml:space="preserve" y="-181.9302" clip-path="url(#clipPath11)" stroke="none">Bee</text>
    </g>
    <g text-rendering="geometricPrecision" shape-rendering="geometricPrecision" transform="matrix(1,0,0,1,-20,338)">
      <line y2="-174" fill="none" x1="364" clip-path="url(#clipPath11)" x2="510" y1="-174"/>
      <text stroke-linecap="butt" x="368" y="-157.0093" clip-path="url(#clipPath11)" font-family="sans-serif" stroke="none" stroke-miterlimit="1.45" xml:space="preserve">- isAHoneyBee : boolean</text>
      <line y2="-149" fill="none" x1="364" clip-path="url(#clipPath11)" x2="510" y1="-149"/>
      <text stroke-linecap="butt" x="368" y="-132.3081" clip-path="url(#clipPath11)" font-family="sans-serif" stroke="none" stroke-miterlimit="1.45" xml:space="preserve">+ speak() : String</text>
      <path fill="none" stroke-miterlimit="1.45" d="M251 -200.0449 L251 -230.9551" clip-path="url(#clipPath2)" stroke-linecap="butt"/>
    </g>
    <g stroke-linecap="butt" transform="matrix(1,0,0,1,-20,338)" fill="white" text-rendering="geometricPrecision" shape-rendering="geometricPrecision" stroke="white" stroke-miterlimit="1.45">
      <path d="M251 -245.9551 L245 -229.9551 L257 -229.9551 Z" stroke="none" clip-path="url(#clipPath2)"/>
      <path fill="none" d="M251 -245.9551 L245 -229.9551 L257 -229.9551 Z" clip-path="url(#clipPath2)" stroke="black"/>
      <path fill="none" d="M87 -191.5469 L87 -215.5 L251 -215.5 L251 -230.9702" clip-path="url(#clipPath2)" stroke="black"/>
      <path d="M251 -245.9702 L245 -229.9702 L257 -229.9702 Z" clip-path="url(#clipPath2)" stroke="none"/>
      <path fill="none" d="M251 -245.9702 L245 -229.9702 L257 -229.9702 Z" clip-path="url(#clipPath2)" stroke="black"/>
      <path fill="none" d="M86.875 -77.0303 L86.875 -92.5 L87 -92.5 L87 -116.4619" clip-path="url(#clipPath2)" stroke="black"/>
      <path d="M87 -131.4619 L81 -115.4619 L93 -115.4619 Z" clip-path="url(#clipPath2)" stroke="none"/>
      <path fill="none" d="M87 -131.4619 L81 -115.4619 L93 -115.4619 Z" clip-path="url(#clipPath2)" stroke="black"/>
      <path fill="none" d="M272.875 -77.0303 L272.875 -92.5 L87 -92.5 L87 -116.4619" clip-path="url(#clipPath2)" stroke="black"/>
      <path d="M87 -131.4619 L81 -115.4619 L93 -115.4619 Z" clip-path="url(#clipPath2)" stroke="none"/>
      <path fill="none" d="M87 -131.4619 L81 -115.4619 L93 -115.4619 Z" clip-path="url(#clipPath2)" stroke="black"/>
      <path fill="none" d="M437.25 -200.0303 L437.25 -215.5 L251 -215.5 L251 -230.9702" clip-path="url(#clipPath2)" stroke="black"/>
      <path d="M251 -245.9702 L245 -229.9702 L257 -229.9702 Z" clip-path="url(#clipPath2)" stroke="none"/>
      <path fill="none" d="M251 -245.9702 L245 -229.9702 L257 -229.9702 Z" clip-path="url(#clipPath2)" stroke="black"/>
    </g>
  </g>
</svg>
