<?xml version="1.0" encoding="UTF-8"?><svg xmlns="http://www.w3.org/2000/svg" xmlns:xlink="http://www.w3.org/1999/xlink" fill-opacity="1" color-rendering="auto" color-interpolation="auto" text-rendering="auto" stroke="black" stroke-linecap="square" width="1067" stroke-miterlimit="10" shape-rendering="auto" stroke-opacity="1" fill="black" stroke-dasharray="none" font-weight="normal" stroke-width="1" height="439" font-family="'Dialog'" font-style="normal" stroke-linejoin="miter" font-size="12px" stroke-dashoffset="0" image-rendering="auto">
  <!--Generated by ySVG 2.5-->
  <defs id="genericDefs"/>
  <g>
    <defs id="defs1">
      <clipPath clipPathUnits="userSpaceOnUse" id="clipPath1">
        <path d="M0 0 L1067 0 L1067 439 L0 439 L0 0 Z"/>
      </clipPath>
      <clipPath clipPathUnits="userSpaceOnUse" id="clipPath2">
        <path d="M5 -297 L1072 -297 L1072 142 L5 142 L5 -297 Z"/>
      </clipPath>
      <clipPath clipPathUnits="userSpaceOnUse" id="clipPath3">
        <path d="M243 -244 L243 -120 L462 -120 L462 -244 Z"/>
      </clipPath>
      <clipPath clipPathUnits="userSpaceOnUse" id="clipPath4">
        <path d="M35 -74 L35 0 L303 0 L303 -74 Z"/>
      </clipPath>
      <clipPath clipPathUnits="userSpaceOnUse" id="clipPath5">
        <path d="M363 -74 L363 0 L631 0 L631 -74 Z"/>
      </clipPath>
      <clipPath clipPathUnits="userSpaceOnUse" id="clipPath6">
        <path d="M157 38 L157 112 L508 112 L508 38 Z"/>
      </clipPath>
      <clipPath clipPathUnits="userSpaceOnUse" id="clipPath7">
        <path d="M691 -74 L691 0 L1042 0 L1042 -74 Z"/>
      </clipPath>
    </defs>
    <g fill="rgb(245,245,245)" text-rendering="geometricPrecision" shape-rendering="geometricPrecision" transform="matrix(1,0,0,1,-5,297)" stroke="rgb(245,245,245)">
      <rect x="20" y="-281.3765" clip-path="url(#clipPath2)" width="626" rx="4" ry="4" height="408.3765" stroke="none"/>
    </g>
    <g fill="rgb(235,235,235)" text-rendering="geometricPrecision" shape-rendering="geometricPrecision" transform="matrix(1,0,0,1,-5,297)" stroke="rgb(235,235,235)">
      <rect x="20" width="626" height="22.3765" y="-281.3765" clip-path="url(#clipPath2)" stroke="none"/>
    </g>
    <g font-size="15px" stroke-linecap="butt" transform="matrix(1,0,0,1,-5,297)" text-rendering="geometricPrecision" font-family="sans-serif" shape-rendering="geometricPrecision" stroke-miterlimit="1.45">
      <text x="592.313" xml:space="preserve" y="-264.2959" clip-path="url(#clipPath2)" stroke="none">animals</text>
      <rect x="20" y="-281.3765" clip-path="url(#clipPath2)" fill="none" width="626" stroke-dasharray="6,2" rx="4" ry="4" height="408.3765"/>
    </g>
    <g fill="rgb(204,255,204)" text-rendering="geometricPrecision" shape-rendering="geometricPrecision" transform="matrix(1,0,0,1,-5,297)" stroke="rgb(204,255,204)">
      <rect x="244" width="217" height="122" y="-243" clip-path="url(#clipPath2)" stroke="none"/>
      <rect x="243" y="-244" clip-path="url(#clipPath2)" fill="white" width="1" height="124" stroke="none"/>
      <rect x="244" y="-244" clip-path="url(#clipPath2)" fill="white" width="217" height="1" stroke="none"/>
      <rect x="244" y="-121" clip-path="url(#clipPath2)" fill="rgb(142,178,142)" width="178" height="1" stroke="none"/>
      <rect x="461" y="-244" clip-path="url(#clipPath2)" fill="rgb(142,178,142)" width="1" height="123" stroke="none"/>
    </g>
    <g font-size="13px" stroke-linecap="butt" transform="matrix(1,0,0,1,-5,297)" text-rendering="geometricPrecision" font-family="sans-serif" shape-rendering="geometricPrecision" font-weight="bold" stroke-miterlimit="1.45">
      <text x="283.1582" xml:space="preserve" y="-225.9302" clip-path="url(#clipPath3)" stroke="none">StandardAnimal</text>
    </g>
    <g text-rendering="geometricPrecision" shape-rendering="geometricPrecision" transform="matrix(1,0,0,1,-5,297)">
      <line y2="-218" fill="none" x1="244" clip-path="url(#clipPath3)" x2="461" y1="-218"/>
      <text stroke-linecap="butt" x="248.5" y="-201.0093" clip-path="url(#clipPath3)" font-family="sans-serif" stroke="none" stroke-miterlimit="1.45" xml:space="preserve"># age : int</text>
      <text stroke-linecap="butt" x="248.5" y="-186.3081" clip-path="url(#clipPath3)" font-family="sans-serif" stroke="none" stroke-miterlimit="1.45" xml:space="preserve"># sex : String</text>
      <line y2="-178" fill="none" x1="244" clip-path="url(#clipPath3)" x2="461" y1="-178"/>
      <text stroke-linecap="butt" x="248.5" y="-161.6069" clip-path="url(#clipPath3)" font-family="sans-serif" stroke="none" stroke-miterlimit="1.45" xml:space="preserve">+ StandardAnimal(age : int, sex : String)</text>
      <text stroke-linecap="butt" x="248.5" y="-146.9058" clip-path="url(#clipPath3)" font-family="sans-serif" stroke="none" stroke-miterlimit="1.45" xml:space="preserve">+ getAge() : int</text>
      <text stroke-linecap="butt" x="248.5" y="-132.2046" clip-path="url(#clipPath3)" font-family="sans-serif" stroke="none" stroke-miterlimit="1.45" xml:space="preserve">+ getSex() : String</text>
      <rect x="36" y="-73" clip-path="url(#clipPath2)" fill="rgb(204,255,204)" width="266" height="72" stroke="none"/>
      <rect x="35" y="-74" clip-path="url(#clipPath2)" fill="white" width="1" height="74" stroke="none"/>
      <rect x="36" y="-74" clip-path="url(#clipPath2)" fill="white" width="266" height="1" stroke="none"/>
      <rect x="36" y="-1" clip-path="url(#clipPath2)" fill="rgb(142,178,142)" width="267" height="1" stroke="none"/>
      <rect x="302" y="-74" clip-path="url(#clipPath2)" fill="rgb(142,178,142)" width="1" height="73" stroke="none"/>
    </g>
    <g font-size="13px" stroke-linecap="butt" transform="matrix(1,0,0,1,-5,297)" text-rendering="geometricPrecision" font-family="sans-serif" shape-rendering="geometricPrecision" font-weight="bold" stroke-miterlimit="1.45">
      <text x="101.4546" xml:space="preserve" y="-55.9302" clip-path="url(#clipPath4)" stroke="none">TimeTravellingAnimal</text>
    </g>
    <g text-rendering="geometricPrecision" shape-rendering="geometricPrecision" transform="matrix(1,0,0,1,-5,297)">
      <line y2="-48" fill="none" x1="36" clip-path="url(#clipPath4)" x2="302" y1="-48"/>
      <line y2="-38" fill="none" x1="36" clip-path="url(#clipPath4)" x2="302" y1="-38"/>
      <text stroke-linecap="butt" x="40" y="-21.0093" clip-path="url(#clipPath4)" font-family="sans-serif" stroke="none" stroke-miterlimit="1.45" xml:space="preserve">+ TimeTravellingAnimal(age : int, sex : String)</text>
      <text stroke-linecap="butt" x="40" y="-6.3081" clip-path="url(#clipPath4)" font-family="sans-serif" stroke="none" stroke-miterlimit="1.45" xml:space="preserve">+ setAge(age : int) : void</text>
      <rect x="364" y="-73" clip-path="url(#clipPath2)" fill="rgb(204,255,204)" width="266" height="72" stroke="none"/>
      <rect x="363" y="-74" clip-path="url(#clipPath2)" fill="white" width="1" height="74" stroke="none"/>
      <rect x="364" y="-74" clip-path="url(#clipPath2)" fill="white" width="266" height="1" stroke="none"/>
      <rect x="364" y="-1" clip-path="url(#clipPath2)" fill="rgb(142,178,142)" width="267" height="1" stroke="none"/>
      <rect x="630" y="-74" clip-path="url(#clipPath2)" fill="rgb(142,178,142)" width="1" height="73" stroke="none"/>
    </g>
    <g font-size="13px" stroke-linecap="butt" transform="matrix(1,0,0,1,-5,297)" text-rendering="geometricPrecision" font-family="sans-serif" shape-rendering="geometricPrecision" font-weight="bold" stroke-miterlimit="1.45">
      <text x="435.9578" xml:space="preserve" y="-55.9302" clip-path="url(#clipPath5)" stroke="none">TransgenderAnimal</text>
    </g>
    <g text-rendering="geometricPrecision" shape-rendering="geometricPrecision" transform="matrix(1,0,0,1,-5,297)">
      <line y2="-48" fill="none" x1="364" clip-path="url(#clipPath5)" x2="630" y1="-48"/>
      <line y2="-38" fill="none" x1="364" clip-path="url(#clipPath5)" x2="630" y1="-38"/>
      <text stroke-linecap="butt" x="368" y="-21.0093" clip-path="url(#clipPath5)" font-family="sans-serif" stroke="none" stroke-miterlimit="1.45" xml:space="preserve">+ TransgenderAnimal(age : int, sex : String)</text>
      <text stroke-linecap="butt" x="368" y="-6.3081" clip-path="url(#clipPath5)" font-family="sans-serif" stroke="none" stroke-miterlimit="1.45" xml:space="preserve">+ setSex(sex : String) : void</text>
      <rect x="158" y="39" clip-path="url(#clipPath2)" fill="rgb(204,255,204)" width="349" height="72" stroke="none"/>
      <rect x="157" y="38" clip-path="url(#clipPath2)" fill="white" width="1" height="74" stroke="none"/>
      <rect x="158" y="38" clip-path="url(#clipPath2)" fill="white" width="349" height="1" stroke="none"/>
      <rect x="158" y="111" clip-path="url(#clipPath2)" fill="rgb(142,178,142)" width="350" height="1" stroke="none"/>
      <rect x="507" y="38" clip-path="url(#clipPath2)" fill="rgb(142,178,142)" width="1" height="73" stroke="none"/>
    </g>
    <g font-size="13px" stroke-linecap="butt" transform="matrix(1,0,0,1,-5,297)" text-rendering="geometricPrecision" font-family="sans-serif" shape-rendering="geometricPrecision" font-weight="bold" stroke-miterlimit="1.45">
      <text x="263.2964" xml:space="preserve" y="56.0698" clip-path="url(#clipPath6)" stroke="none">AnimalAnimalSurgeon</text>
    </g>
    <g text-rendering="geometricPrecision" shape-rendering="geometricPrecision" transform="matrix(1,0,0,1,-5,297)">
      <line y2="63" fill="none" x1="158" clip-path="url(#clipPath6)" x2="507" y1="63"/>
      <line y2="73" fill="none" x1="158" clip-path="url(#clipPath6)" x2="507" y1="73"/>
      <text stroke-linecap="butt" x="162.5" y="90.9907" clip-path="url(#clipPath6)" font-family="sans-serif" stroke="none" stroke-miterlimit="1.45" xml:space="preserve">+ changeSexOf(animal : StandardAnimal, sex : String) : void</text>
      <text stroke-linecap="butt" x="162.5" y="105.6919" clip-path="url(#clipPath6)" font-family="sans-serif" stroke="none" stroke-miterlimit="1.45" xml:space="preserve">+ changeAgeOfAnimal(animal : StandardAnimal, age : int) : void</text>
      <path fill="none" stroke-miterlimit="1.45" d="M169 -74.0303 L169 -89.5 L333 -89.5 L333 -104.9702" clip-path="url(#clipPath2)" stroke-linecap="butt"/>
    </g>
    <g stroke-linecap="butt" transform="matrix(1,0,0,1,-5,297)" fill="white" text-rendering="geometricPrecision" shape-rendering="geometricPrecision" stroke="white" stroke-miterlimit="1.45">
      <path d="M333 -119.9702 L327 -103.9702 L339 -103.9702 Z" stroke="none" clip-path="url(#clipPath2)"/>
      <path fill="none" d="M333 -119.9702 L327 -103.9702 L339 -103.9702 Z" clip-path="url(#clipPath2)" stroke="black"/>
      <path fill="none" d="M497 -74.0303 L497 -89.5 L333 -89.5 L333 -104.9702" clip-path="url(#clipPath2)" stroke="black"/>
      <path d="M333 -119.9702 L327 -103.9702 L339 -103.9702 Z" clip-path="url(#clipPath2)" stroke="none"/>
      <path fill="none" d="M333 -119.9702 L327 -103.9702 L339 -103.9702 Z" clip-path="url(#clipPath2)" stroke="black"/>
    </g>
    <g fill="rgb(245,245,245)" text-rendering="geometricPrecision" shape-rendering="geometricPrecision" transform="matrix(1,0,0,1,-5,297)" stroke="rgb(245,245,245)">
      <rect x="676" y="-111.3765" clip-path="url(#clipPath2)" width="381" rx="4" ry="4" height="126.3765" stroke="none"/>
      <rect x="676" y="-111.3765" clip-path="url(#clipPath2)" fill="rgb(235,235,235)" width="381" height="22.3765" stroke="none"/>
    </g>
    <g font-size="15px" stroke-linecap="butt" transform="matrix(1,0,0,1,-5,297)" text-rendering="geometricPrecision" font-family="sans-serif" shape-rendering="geometricPrecision" stroke-miterlimit="1.45">
      <text x="1005.8105" xml:space="preserve" y="-94.2959" clip-path="url(#clipPath2)" stroke="none">doctors</text>
      <rect x="676" y="-111.3765" clip-path="url(#clipPath2)" fill="none" width="381" stroke-dasharray="6,2" rx="4" ry="4" height="126.3765"/>
    </g>
    <g fill="rgb(204,255,204)" text-rendering="geometricPrecision" shape-rendering="geometricPrecision" transform="matrix(1,0,0,1,-5,297)" stroke="rgb(204,255,204)">
      <rect x="692" width="349" height="72" y="-73" clip-path="url(#clipPath2)" stroke="none"/>
      <rect x="691" y="-74" clip-path="url(#clipPath2)" fill="white" width="1" height="74" stroke="none"/>
      <rect x="692" y="-74" clip-path="url(#clipPath2)" fill="white" width="349" height="1" stroke="none"/>
      <rect x="692" y="-1" clip-path="url(#clipPath2)" fill="rgb(142,178,142)" width="350" height="1" stroke="none"/>
      <rect x="1041" y="-74" clip-path="url(#clipPath2)" fill="rgb(142,178,142)" width="1" height="73" stroke="none"/>
    </g>
    <g font-size="13px" stroke-linecap="butt" transform="matrix(1,0,0,1,-5,297)" text-rendering="geometricPrecision" font-family="sans-serif" shape-rendering="geometricPrecision" font-weight="bold" stroke-miterlimit="1.45">
      <text x="818.4673" xml:space="preserve" y="-55.9302" clip-path="url(#clipPath7)" stroke="none">AnimalSurgeon</text>
    </g>
    <g text-rendering="geometricPrecision" shape-rendering="geometricPrecision" transform="matrix(1,0,0,1,-5,297)">
      <line y2="-48" fill="none" x1="692" clip-path="url(#clipPath7)" x2="1041" y1="-48"/>
      <line y2="-38" fill="none" x1="692" clip-path="url(#clipPath7)" x2="1041" y1="-38"/>
      <text stroke-linecap="butt" x="696" y="-21.0093" clip-path="url(#clipPath7)" font-family="sans-serif" stroke="none" stroke-miterlimit="1.45" xml:space="preserve">+ changeSexOf(animal : StandardAnimal, sex : String) : void</text>
      <text stroke-linecap="butt" x="696" y="-6.3081" clip-path="url(#clipPath7)" font-family="sans-serif" stroke="none" stroke-miterlimit="1.45" xml:space="preserve">+ changeAgeOfAnimal(animal : StandardAnimal, age : int) : void</text>
    </g>
  </g>
</svg>
