<?xml version="1.0" encoding="UTF-8"?><svg xmlns="http://www.w3.org/2000/svg" xmlns:xlink="http://www.w3.org/1999/xlink" fill-opacity="1" color-rendering="auto" color-interpolation="auto" text-rendering="auto" stroke="black" stroke-linecap="square" width="572" stroke-miterlimit="10" shape-rendering="auto" stroke-opacity="1" fill="black" stroke-dasharray="none" font-weight="normal" stroke-width="1" height="131" font-family="'Dialog'" font-style="normal" stroke-linejoin="miter" font-size="12px" stroke-dashoffset="0" image-rendering="auto">
  <!--Generated by ySVG 2.5-->
  <defs id="genericDefs"/>
  <g>
    <defs id="defs1">
      <clipPath clipPathUnits="userSpaceOnUse" id="clipPath1">
        <path d="M0 0 L572 0 L572 131 L0 131 L0 0 Z"/>
      </clipPath>
      <clipPath clipPathUnits="userSpaceOnUse" id="clipPath2">
        <path d="M15 -116 L587 -116 L587 15 L15 15 L15 -116 Z"/>
      </clipPath>
      <clipPath clipPathUnits="userSpaceOnUse" id="clipPath3">
        <path d="M30 -80 L30 -21 L164 -21 L164 -80 Z"/>
      </clipPath>
      <clipPath clipPathUnits="userSpaceOnUse" id="clipPath4">
        <path d="M234 -101 L234 0 L368 0 L368 -101 Z"/>
      </clipPath>
      <clipPath clipPathUnits="userSpaceOnUse" id="clipPath5">
        <path d="M438 -87 L438 -14 L572 -14 L572 -87 Z"/>
      </clipPath>
    </defs>
    <g fill="white" text-rendering="geometricPrecision" shape-rendering="geometricPrecision" transform="translate(-15,116)" stroke="white">
      <rect x="15" width="572" height="131" y="-116" clip-path="url(#clipPath2)" stroke="none"/>
    </g>
    <g fill="rgb(204,255,204)" text-rendering="geometricPrecision" shape-rendering="geometricPrecision" transform="matrix(1,0,0,1,-15,116)" stroke="rgb(204,255,204)">
      <rect x="31" width="132" height="57" y="-79" clip-path="url(#clipPath2)" stroke="none"/>
      <rect x="30" y="-80" clip-path="url(#clipPath2)" fill="white" width="1" height="59" stroke="none"/>
      <rect x="31" y="-80" clip-path="url(#clipPath2)" fill="white" width="132" height="1" stroke="none"/>
      <rect x="31" y="-22" clip-path="url(#clipPath2)" fill="rgb(142,178,142)" width="133" height="1" stroke="none"/>
      <rect x="163" y="-80" clip-path="url(#clipPath2)" fill="rgb(142,178,142)" width="1" height="58" stroke="none"/>
    </g>
    <g font-size="13px" stroke-linecap="butt" transform="matrix(1,0,0,1,-15,116)" text-rendering="geometricPrecision" font-family="sans-serif" shape-rendering="geometricPrecision" font-weight="bold" stroke-miterlimit="1.45">
      <text x="73.3899" xml:space="preserve" y="-62.4316" clip-path="url(#clipPath3)" stroke="none">CarList</text>
    </g>
    <g text-rendering="geometricPrecision" shape-rendering="geometricPrecision" transform="matrix(1,0,0,1,-15,116)">
      <line y2="-54" fill="none" x1="31" clip-path="url(#clipPath3)" x2="163" y1="-54"/>
      <text stroke-linecap="butt" x="35" y="-38.0879" clip-path="url(#clipPath3)" font-family="sans-serif" stroke="none" stroke-miterlimit="1.45" xml:space="preserve"> </text>
      <line y2="-30" fill="none" x1="31" clip-path="url(#clipPath3)" x2="163" y1="-30"/>
      <text stroke-linecap="butt" x="35" y="-13.9551" clip-path="url(#clipPath3)" font-family="sans-serif" stroke="none" stroke-miterlimit="1.45" xml:space="preserve"> </text>
      <rect x="235" y="-100" clip-path="url(#clipPath2)" fill="rgb(204,255,204)" width="132" height="99" stroke="none"/>
      <rect x="234" y="-101" clip-path="url(#clipPath2)" fill="white" width="1" height="101" stroke="none"/>
      <rect x="235" y="-101" clip-path="url(#clipPath2)" fill="white" width="132" height="1" stroke="none"/>
      <rect x="235" y="-1" clip-path="url(#clipPath2)" fill="rgb(142,178,142)" width="133" height="1" stroke="none"/>
      <rect x="367" y="-101" clip-path="url(#clipPath2)" fill="rgb(142,178,142)" width="1" height="100" stroke="none"/>
    </g>
    <g font-size="13px" stroke-linecap="butt" transform="matrix(1,0,0,1,-15,116)" text-rendering="geometricPrecision" font-family="sans-serif" shape-rendering="geometricPrecision" font-weight="bold" stroke-miterlimit="1.45">
      <text x="289.5933" xml:space="preserve" y="-83.4316" clip-path="url(#clipPath4)" stroke="none">Car</text>
    </g>
    <g text-rendering="geometricPrecision" shape-rendering="geometricPrecision" transform="matrix(1,0,0,1,-15,116)">
      <line y2="-75" fill="none" x1="235" clip-path="url(#clipPath4)" x2="367" y1="-75"/>
      <text stroke-linecap="butt" x="239" y="-59.0879" clip-path="url(#clipPath4)" font-family="sans-serif" stroke="none" stroke-miterlimit="1.45" xml:space="preserve">- regNumber : String</text>
      <text stroke-linecap="butt" x="239" y="-44.9551" clip-path="url(#clipPath4)" font-family="sans-serif" stroke="none" stroke-miterlimit="1.45" xml:space="preserve">- make : String</text>
      <text stroke-linecap="butt" x="239" y="-30.8223" clip-path="url(#clipPath4)" font-family="sans-serif" stroke="none" stroke-miterlimit="1.45" xml:space="preserve">- model : String</text>
      <text stroke-linecap="butt" x="239" y="-16.6895" clip-path="url(#clipPath4)" font-family="sans-serif" stroke="none" stroke-miterlimit="1.45" xml:space="preserve">- year : int</text>
      <line y2="-9" fill="none" x1="235" clip-path="url(#clipPath4)" x2="367" y1="-9"/>
      <rect x="439" y="-86" clip-path="url(#clipPath2)" fill="rgb(204,255,204)" width="132" height="71" stroke="none"/>
      <rect x="438" y="-87" clip-path="url(#clipPath2)" fill="white" width="1" height="73" stroke="none"/>
      <rect x="439" y="-87" clip-path="url(#clipPath2)" fill="white" width="132" height="1" stroke="none"/>
      <rect x="439" y="-15" clip-path="url(#clipPath2)" fill="rgb(142,178,142)" width="133" height="1" stroke="none"/>
      <rect x="571" y="-87" clip-path="url(#clipPath2)" fill="rgb(142,178,142)" width="1" height="72" stroke="none"/>
    </g>
    <g font-size="13px" stroke-linecap="butt" transform="matrix(1,0,0,1,-15,116)" text-rendering="geometricPrecision" font-family="sans-serif" shape-rendering="geometricPrecision" font-weight="bold" stroke-miterlimit="1.45">
      <text x="483.0085" xml:space="preserve" y="-69.4316" clip-path="url(#clipPath5)" stroke="none">Owner</text>
    </g>
    <g text-rendering="geometricPrecision" shape-rendering="geometricPrecision" transform="matrix(1,0,0,1,-15,116)">
      <line y2="-61" fill="none" x1="439" clip-path="url(#clipPath5)" x2="571" y1="-61"/>
      <text stroke-linecap="butt" x="443" y="-45.0879" clip-path="url(#clipPath5)" font-family="sans-serif" stroke="none" stroke-miterlimit="1.45" xml:space="preserve">- firstName : String</text>
      <text stroke-linecap="butt" x="443" y="-30.9551" clip-path="url(#clipPath5)" font-family="sans-serif" stroke="none" stroke-miterlimit="1.45" xml:space="preserve">- lastName : String</text>
      <line y2="-23" fill="none" x1="439" clip-path="url(#clipPath5)" x2="571" y1="-23"/>
      <path fill="none" stroke-miterlimit="1.45" d="M171.0342 -50.5 L233.9658 -50.5" clip-path="url(#clipPath2)" stroke-linecap="butt"/>
    </g>
    <g stroke-linecap="butt" transform="matrix(1,0,0,1,-15,116)" fill="white" text-rendering="geometricPrecision" shape-rendering="geometricPrecision" stroke="white" stroke-miterlimit="1.45">
      <path d="M164.0342 -50.5 L171.0342 -55.5 L178.0342 -50.5 L171.0342 -45.5 Z" stroke="none" clip-path="url(#clipPath2)"/>
      <path fill="none" d="M164.0342 -50.5 L171.0342 -55.5 L178.0342 -50.5 L171.0342 -45.5 Z" clip-path="url(#clipPath2)" stroke="black"/>
      <text x="219.1084" y="-28.9648" clip-path="url(#clipPath2)" fill="black" font-family="sans-serif" stroke="none" xml:space="preserve">*</text>
      <path fill="none" d="M368.0342 -50.5 L432.9659 -50.5" clip-path="url(#clipPath2)" stroke="black"/>
      <path fill="black" d="M436.9659 -50.5 L424.9659 -56.5 L436.9659 -50.5 L424.9659 -44.5 Z" clip-path="url(#clipPath2)" stroke="none"/>
    </g>
    <g text-rendering="geometricPrecision" shape-rendering="geometricPrecision" transform="matrix(1,0,0,1,-15,116)">
      <path fill="none" d="M436.9659 -50.5 L424.9659 -56.5 L436.9659 -50.5 L424.9659 -44.5 Z" clip-path="url(#clipPath2)"/>
      <text stroke-linecap="butt" x="411.2061" y="-31.9648" clip-path="url(#clipPath2)" font-family="sans-serif" stroke="none" stroke-miterlimit="1.45" xml:space="preserve">1</text>
    </g>
  </g>
</svg>
