<?xml version="1.0" encoding="UTF-8"?><svg xmlns="http://www.w3.org/2000/svg" xmlns:xlink="http://www.w3.org/1999/xlink" fill-opacity="1" color-rendering="auto" color-interpolation="auto" text-rendering="auto" stroke="black" stroke-linecap="square" width="557" stroke-miterlimit="10" shape-rendering="auto" stroke-opacity="1" fill="black" stroke-dasharray="none" font-weight="normal" stroke-width="1" height="176" font-family="'Dialog'" font-style="normal" stroke-linejoin="miter" font-size="12px" stroke-dashoffset="0" image-rendering="auto">
  <!--Generated by ySVG 2.5-->
  <defs id="genericDefs"/>
  <g>
    <defs id="defs1">
      <clipPath clipPathUnits="userSpaceOnUse" id="clipPath1">
        <path d="M0 0 L557 0 L557 176 L0 176 L0 0 Z"/>
      </clipPath>
      <clipPath clipPathUnits="userSpaceOnUse" id="clipPath2">
        <path d="M15 -161 L572 -161 L572 15 L15 15 L15 -161 Z"/>
      </clipPath>
      <clipPath clipPathUnits="userSpaceOnUse" id="clipPath3">
        <path d="M30 -146 L30 0 L251 0 L251 -146 Z"/>
      </clipPath>
      <clipPath clipPathUnits="userSpaceOnUse" id="clipPath4">
        <path d="M321 -133 L321 -12 L557 -12 L557 -133 Z"/>
      </clipPath>
    </defs>
    <g fill="white" text-rendering="geometricPrecision" shape-rendering="geometricPrecision" transform="translate(-15,161)" stroke="white">
      <rect x="15" width="557" height="176" y="-161" clip-path="url(#clipPath2)" stroke="none"/>
    </g>
    <g fill="rgb(204,255,204)" text-rendering="geometricPrecision" shape-rendering="geometricPrecision" transform="matrix(1,0,0,1,-15,161)" stroke="rgb(204,255,204)">
      <rect x="31" width="219" height="144" y="-145" clip-path="url(#clipPath2)" stroke="none"/>
      <rect x="30" y="-146" clip-path="url(#clipPath2)" fill="white" width="1" height="146" stroke="none"/>
      <rect x="31" y="-146" clip-path="url(#clipPath2)" fill="white" width="219" height="1" stroke="none"/>
      <rect x="31" y="-1" clip-path="url(#clipPath2)" fill="rgb(142,178,142)" width="220" height="1" stroke="none"/>
      <rect x="250" y="-146" clip-path="url(#clipPath2)" fill="rgb(142,178,142)" width="1" height="145" stroke="none"/>
    </g>
    <g font-size="13px" stroke-linecap="butt" transform="matrix(1,0,0,1,-15,161)" text-rendering="geometricPrecision" font-family="sans-serif" shape-rendering="geometricPrecision" font-weight="bold" stroke-miterlimit="1.45">
      <text x="94.0098" xml:space="preserve" y="-128.4316" clip-path="url(#clipPath3)" stroke="none">PassengerList</text>
    </g>
    <g text-rendering="geometricPrecision" shape-rendering="geometricPrecision" transform="matrix(1,0,0,1,-15,161)">
      <line y2="-120" fill="none" x1="31" clip-path="url(#clipPath3)" x2="250" y1="-120"/>
      <text stroke-linecap="butt" x="35" y="-104.0879" clip-path="url(#clipPath3)" font-family="sans-serif" stroke="none" stroke-miterlimit="1.45" xml:space="preserve">- maxCapacity : int</text>
      <line y2="-96" fill="none" x1="31" clip-path="url(#clipPath3)" x2="250" y1="-96"/>
      <text stroke-linecap="butt" x="35" y="-79.9551" clip-path="url(#clipPath3)" font-family="sans-serif" stroke="none" stroke-miterlimit="1.45" xml:space="preserve">+ PassengerList(maxCapacity : int)</text>
      <text stroke-linecap="butt" x="35" y="-65.8223" clip-path="url(#clipPath3)" font-family="sans-serif" stroke="none" stroke-miterlimit="1.45" xml:space="preserve">+ getPassengers() : Passenger[]</text>
      <text stroke-linecap="butt" x="35" y="-51.6895" clip-path="url(#clipPath3)" font-family="sans-serif" stroke="none" stroke-miterlimit="1.45" xml:space="preserve">+ isEmpty() : boolean</text>
      <text stroke-linecap="butt" x="35" y="-37.5566" clip-path="url(#clipPath3)" font-family="sans-serif" stroke="none" stroke-miterlimit="1.45" xml:space="preserve">+ isFull() : boolean</text>
      <text stroke-linecap="butt" x="35" y="-23.4238" clip-path="url(#clipPath3)" font-family="sans-serif" stroke="none" stroke-miterlimit="1.45" xml:space="preserve">+ addPassenger() : void</text>
      <text stroke-linecap="butt" x="35" y="-9.291" clip-path="url(#clipPath3)" font-family="sans-serif" stroke="none" stroke-miterlimit="1.45" xml:space="preserve">+ getMaleToFemaleRatio() : double</text>
      <rect x="322" y="-132" clip-path="url(#clipPath2)" fill="rgb(204,255,204)" width="234" height="119" stroke="none"/>
      <rect x="321" y="-133" clip-path="url(#clipPath2)" fill="white" width="1" height="121" stroke="none"/>
      <rect x="322" y="-133" clip-path="url(#clipPath2)" fill="white" width="234" height="1" stroke="none"/>
      <rect x="322" y="-13" clip-path="url(#clipPath2)" fill="rgb(142,178,142)" width="235" height="1" stroke="none"/>
      <rect x="556" y="-133" clip-path="url(#clipPath2)" fill="rgb(142,178,142)" width="1" height="120" stroke="none"/>
    </g>
    <g font-size="13px" stroke-linecap="butt" transform="matrix(1,0,0,1,-15,161)" text-rendering="geometricPrecision" font-family="sans-serif" shape-rendering="geometricPrecision" font-weight="bold" stroke-miterlimit="1.45">
      <text x="404.7131" xml:space="preserve" y="-115.9316" clip-path="url(#clipPath4)" stroke="none">Passenger</text>
    </g>
    <g text-rendering="geometricPrecision" shape-rendering="geometricPrecision" transform="matrix(1,0,0,1,-15,161)">
      <line y2="-108" fill="none" x1="322" clip-path="url(#clipPath4)" x2="556" y1="-108"/>
      <text stroke-linecap="butt" x="326" y="-91.5879" clip-path="url(#clipPath4)" font-family="sans-serif" stroke="none" stroke-miterlimit="1.45" xml:space="preserve">- name : String</text>
      <text stroke-linecap="butt" x="326" y="-77.4551" clip-path="url(#clipPath4)" font-family="sans-serif" stroke="none" stroke-miterlimit="1.45" xml:space="preserve">- sex : char</text>
      <line y2="-69" fill="none" x1="322" clip-path="url(#clipPath4)" x2="556" y1="-69"/>
      <text stroke-linecap="butt" x="326" y="-53.3223" clip-path="url(#clipPath4)" font-family="sans-serif" stroke="none" stroke-miterlimit="1.45" xml:space="preserve">+ Passenger(name : String, sex : char)</text>
      <text stroke-linecap="butt" x="326" y="-39.1895" clip-path="url(#clipPath4)" font-family="sans-serif" stroke="none" stroke-miterlimit="1.45" xml:space="preserve">+ getName() : String</text>
      <text stroke-linecap="butt" x="326" y="-25.0566" clip-path="url(#clipPath4)" font-family="sans-serif" stroke="none" stroke-miterlimit="1.45" xml:space="preserve">+ getSex() : char</text>
      <path fill="none" stroke-miterlimit="1.45" d="M251.0342 -73 L315.9659 -73" clip-path="url(#clipPath2)" stroke-linecap="butt"/>
      <path stroke-miterlimit="1.45" d="M319.9659 -73 L307.9659 -79 L319.9659 -73 L307.9659 -67 Z" clip-path="url(#clipPath2)" stroke-linecap="butt" stroke="none"/>
      <path fill="none" d="M319.9659 -73 L307.9659 -79 L319.9659 -73 L307.9659 -67 Z" clip-path="url(#clipPath2)"/>
      <text stroke-linecap="butt" x="298.1084" y="-53.4648" clip-path="url(#clipPath2)" font-family="sans-serif" stroke="none" stroke-miterlimit="1.45" xml:space="preserve">*</text>
    </g>
  </g>
</svg>
