<?xml version="1.0" encoding="UTF-8"?><svg xmlns="http://www.w3.org/2000/svg" xmlns:xlink="http://www.w3.org/1999/xlink" fill-opacity="1" color-rendering="auto" color-interpolation="auto" text-rendering="auto" stroke="black" stroke-linecap="square" width="614" stroke-miterlimit="10" shape-rendering="auto" stroke-opacity="1" fill="black" stroke-dasharray="none" font-weight="normal" stroke-width="1" height="461" font-family="'Dialog'" font-style="normal" stroke-linejoin="miter" font-size="12px" stroke-dashoffset="0" image-rendering="auto">
  <!--Generated by ySVG 2.5-->
  <defs id="genericDefs"/>
  <g>
    <defs id="defs1">
      <clipPath clipPathUnits="userSpaceOnUse" id="clipPath1">
        <path d="M0 0 L614 0 L614 461 L0 461 L0 0 Z"/>
      </clipPath>
      <clipPath clipPathUnits="userSpaceOnUse" id="clipPath2">
        <path d="M-38 31 L576 31 L576 492 L-38 492 L-38 31 Z"/>
      </clipPath>
      <clipPath clipPathUnits="userSpaceOnUse" id="clipPath3">
        <path d="M98 181 L98 341 L386 341 L386 181 Z"/>
      </clipPath>
    </defs>
    <g fill="white" text-rendering="geometricPrecision" shape-rendering="geometricPrecision" transform="translate(38,-31)" stroke="white">
      <rect x="-38" width="614" height="461" y="31" clip-path="url(#clipPath2)" stroke="none"/>
    </g>
    <g fill="rgb(204,255,204)" text-rendering="geometricPrecision" shape-rendering="geometricPrecision" transform="matrix(1,0,0,1,38,-31)" stroke="rgb(204,255,204)">
      <rect x="99" width="286" height="158" y="182" clip-path="url(#clipPath2)" stroke="none"/>
      <rect x="98" y="181" clip-path="url(#clipPath2)" fill="white" width="1" height="160" stroke="none"/>
      <rect x="99" y="181" clip-path="url(#clipPath2)" fill="white" width="286" height="1" stroke="none"/>
      <rect x="99" y="340" clip-path="url(#clipPath2)" fill="rgb(142,178,142)" width="287" height="1" stroke="none"/>
      <rect x="385" y="181" clip-path="url(#clipPath2)" fill="rgb(142,178,142)" width="1" height="159" stroke="none"/>
    </g>
    <g font-size="13px" stroke-linecap="butt" transform="matrix(1,0,0,1,38,-31)" text-rendering="geometricPrecision" font-family="sans-serif" shape-rendering="geometricPrecision" font-weight="bold" stroke-miterlimit="1.45">
      <text x="218.7232" xml:space="preserve" y="199.0684" clip-path="url(#clipPath3)" stroke="none">CarList</text>
    </g>
    <g text-rendering="geometricPrecision" shape-rendering="geometricPrecision" transform="matrix(1,0,0,1,38,-31)">
      <line y2="206" fill="none" x1="99" clip-path="url(#clipPath3)" x2="385" y1="206"/>
      <text stroke-linecap="butt" x="103" y="223.4121" clip-path="url(#clipPath3)" font-family="sans-serif" stroke="none" stroke-miterlimit="1.45" xml:space="preserve">- cars : ArrayList&lt;Car&gt;</text>
      <line y2="230" fill="none" x1="99" clip-path="url(#clipPath3)" x2="385" y1="230"/>
      <text stroke-linecap="butt" x="103" y="247.5449" clip-path="url(#clipPath3)" font-family="sans-serif" stroke="none" stroke-miterlimit="1.45" xml:space="preserve">+ Car()</text>
      <text stroke-linecap="butt" x="103" y="261.6777" clip-path="url(#clipPath3)" font-family="sans-serif" stroke="none" stroke-miterlimit="1.45" xml:space="preserve">+ size() : int</text>
      <text stroke-linecap="butt" x="103" y="275.8105" clip-path="url(#clipPath3)" font-family="sans-serif" stroke="none" stroke-miterlimit="1.45" xml:space="preserve">+ indexOfRegNumber(regNumber : String) : int</text>
      <text stroke-linecap="butt" x="103" y="289.9434" clip-path="url(#clipPath3)" font-family="sans-serif" stroke="none" stroke-miterlimit="1.45" xml:space="preserve">+ getCar(index : int) : Car</text>
      <text stroke-linecap="butt" x="103" y="304.0762" clip-path="url(#clipPath3)" font-family="sans-serif" stroke="none" stroke-miterlimit="1.45" xml:space="preserve">+ getCar(regNumber : String) : Car</text>
      <text stroke-linecap="butt" x="103" y="318.209" clip-path="url(#clipPath3)" font-family="sans-serif" stroke="none" stroke-miterlimit="1.45" xml:space="preserve">+ addCar(car : Car) : void</text>
      <text stroke-linecap="butt" x="103" y="332.3418" clip-path="url(#clipPath3)" font-family="sans-serif" stroke="none" stroke-miterlimit="1.45" xml:space="preserve">+ toString() : String</text>
      <path fill="rgb(255,204,153)" d="M15.6667 46 L195.6667 46 L195.6667 61 L210.6667 61 L210.6667 107 L15.6667 107 Z" clip-path="url(#clipPath2)" stroke="none"/>
      <path fill="white" d="M195.6667 46 L195.6667 61 L210.6667 61 Z" clip-path="url(#clipPath2)" fill-rule="evenodd" stroke="none"/>
      <path fill="none" stroke-miterlimit="1.45" d="M15.6667 46 L195.6667 46 L195.6667 61 L210.6667 61 L210.6667 107 L15.6667 107 Z" clip-path="url(#clipPath2)" stroke-linecap="butt"/>
      <path fill="none" stroke-miterlimit="1.45" d="M195.6667 46 L195.6667 61 L210.6667 61 Z" fill-rule="evenodd" clip-path="url(#clipPath2)" stroke-linecap="butt"/>
      <text stroke-linecap="butt" x="28.9792" y="66.9023" clip-path="url(#clipPath2)" font-family="sans-serif" stroke="none" stroke-miterlimit="1.45" xml:space="preserve">indexOfRegNumber should</text>
      <text stroke-linecap="butt" x="22.027" y="81.0352" clip-path="url(#clipPath2)" font-family="sans-serif" stroke="none" stroke-miterlimit="1.45" xml:space="preserve"> return -1 if there are no Car </text>
      <text stroke-linecap="butt" x="21.6667" y="95.168" clip-path="url(#clipPath2)" font-family="sans-serif" stroke="none" stroke-miterlimit="1.45" xml:space="preserve">with the specified regNumber</text>
      <path fill="rgb(255,204,153)" d="M324 416 L546 416 L546 431 L561 431 L561 477 L324 477 Z" clip-path="url(#clipPath2)" stroke="none"/>
      <path fill="white" d="M546 416 L546 431 L561 431 Z" clip-path="url(#clipPath2)" fill-rule="evenodd" stroke="none"/>
      <path fill="none" stroke-miterlimit="1.45" d="M324 416 L546 416 L546 431 L561 431 L561 477 L324 477 Z" clip-path="url(#clipPath2)" stroke-linecap="butt"/>
      <path fill="none" stroke-miterlimit="1.45" d="M546 416 L546 431 L561 431 Z" fill-rule="evenodd" clip-path="url(#clipPath2)" stroke-linecap="butt"/>
      <text stroke-linecap="butt" x="342.0527" y="436.9023" clip-path="url(#clipPath2)" font-family="sans-serif" stroke="none" stroke-miterlimit="1.45" xml:space="preserve">getCar(regNumber : String) should</text>
      <text stroke-linecap="butt" x="335.0156" y="451.0352" clip-path="url(#clipPath2)" font-family="sans-serif" stroke="none" stroke-miterlimit="1.45" xml:space="preserve">return null if there are no Car object </text>
      <text stroke-linecap="butt" x="356.2529" y="465.168" clip-path="url(#clipPath2)" font-family="sans-serif" stroke="none" stroke-miterlimit="1.45" xml:space="preserve">with the specified regNumber</text>
      <path fill="rgb(255,204,153)" d="M295.3333 84 L517.3333 84 L517.3333 99 L532.3333 99 L532.3333 137 L295.3333 137 Z" clip-path="url(#clipPath2)" stroke="none"/>
      <path fill="white" d="M517.3333 84 L517.3333 99 L532.3333 99 Z" clip-path="url(#clipPath2)" fill-rule="evenodd" stroke="none"/>
      <path fill="none" stroke-miterlimit="1.45" d="M295.3333 84 L517.3333 84 L517.3333 99 L532.3333 99 L532.3333 137 L295.3333 137 Z" clip-path="url(#clipPath2)" stroke-linecap="butt"/>
      <path fill="none" stroke-miterlimit="1.45" d="M517.3333 84 L517.3333 99 L532.3333 99 Z" fill-rule="evenodd" clip-path="url(#clipPath2)" stroke-linecap="butt"/>
      <text stroke-linecap="butt" x="314.8187" y="100.9023" clip-path="url(#clipPath2)" font-family="sans-serif" stroke="none" stroke-miterlimit="1.45" xml:space="preserve">addCar should only add the car if </text>
      <text stroke-linecap="butt" x="312.015" y="115.0352" clip-path="url(#clipPath2)" font-family="sans-serif" stroke="none" stroke-miterlimit="1.45" xml:space="preserve">there is not already a car with that </text>
      <text stroke-linecap="butt" x="313.0609" y="129.168" clip-path="url(#clipPath2)" font-family="sans-serif" stroke="none" stroke-miterlimit="1.45" xml:space="preserve">registration number in the CarList.</text>
      <path fill="rgb(255,204,153)" d="M-23 416 L189 416 L189 431 L204 431 L204 458 L-23 458 Z" clip-path="url(#clipPath2)" stroke="none"/>
      <path fill="white" d="M189 416 L189 431 L204 431 Z" clip-path="url(#clipPath2)" fill-rule="evenodd" stroke="none"/>
      <path fill="none" stroke-miterlimit="1.45" d="M-23 416 L189 416 L189 431 L204 431 L204 458 L-23 458 Z" clip-path="url(#clipPath2)" stroke-linecap="butt"/>
      <path fill="none" stroke-miterlimit="1.45" d="M189 416 L189 431 L204 431 Z" fill-rule="evenodd" clip-path="url(#clipPath2)" stroke-linecap="butt"/>
      <text stroke-linecap="butt" x="-6.9238" y="434.4688" clip-path="url(#clipPath2)" font-family="sans-serif" stroke="none" stroke-miterlimit="1.45" xml:space="preserve">the toString method should have </text>
      <text stroke-linecap="butt" x="11.7559" y="448.6016" clip-path="url(#clipPath2)" font-family="sans-serif" stroke="none" stroke-miterlimit="1.45" xml:space="preserve">each Car on seperate lines.</text>
      <path fill="none" stroke-miterlimit="1.45" stroke-dasharray="6,2" d="M186.4694 181.4884 L137.3076 111.076" clip-path="url(#clipPath2)" stroke-linecap="butt"/>
      <path stroke-miterlimit="1.45" stroke-dasharray="6,2" d="M135.0177 107.7963 L136.9678 121.0702 L135.0177 107.7963 L146.8069 114.2006 Z" clip-path="url(#clipPath2)" stroke-linecap="butt" stroke="none"/>
      <path fill="none" d="M135.0177 107.7963 L136.9678 121.0702 L135.0177 107.7963 L146.8069 114.2006 Z" clip-path="url(#clipPath2)"/>
      <path fill="none" stroke-miterlimit="1.45" stroke-dasharray="6,2" d="M328.9044 341.5116 L405.8532 412.6299" clip-path="url(#clipPath2)" stroke-linecap="butt"/>
      <path stroke-miterlimit="1.45" stroke-dasharray="6,2" d="M408.7907 415.3449 L404.0506 402.7938 L408.7907 415.3449 L395.9057 411.6064 Z" clip-path="url(#clipPath2)" stroke-linecap="butt" stroke="none"/>
      <path fill="none" d="M408.7907 415.3449 L404.0506 402.7938 L408.7907 415.3449 L395.9057 411.6064 Z" clip-path="url(#clipPath2)"/>
      <path fill="none" stroke-miterlimit="1.45" stroke-dasharray="6,2" d="M333.2124 181.484 L379.9856 140.3018" clip-path="url(#clipPath2)" stroke-linecap="butt"/>
      <path stroke-miterlimit="1.45" stroke-dasharray="6,2" d="M382.9877 137.6585 L370.0163 141.0851 L382.9877 137.6585 L377.9462 150.0916 Z" clip-path="url(#clipPath2)" stroke-linecap="butt" stroke="none"/>
      <path fill="none" d="M382.9877 137.6585 L370.0163 141.0851 L382.9877 137.6585 L377.9462 150.0916 Z" clip-path="url(#clipPath2)"/>
      <path fill="none" stroke-miterlimit="1.45" stroke-dasharray="6,2" d="M173.1076 341.5162 L111.9426 412.2151" clip-path="url(#clipPath2)" stroke-linecap="butt"/>
      <path stroke-miterlimit="1.45" stroke-dasharray="6,2" d="M109.3255 415.2401 L121.7143 410.0906 L109.3255 415.2401 L112.6392 402.2393 Z" clip-path="url(#clipPath2)" stroke-linecap="butt" stroke="none"/>
      <path fill="none" d="M109.3255 415.2401 L121.7143 410.0906 L109.3255 415.2401 L112.6392 402.2393 Z" clip-path="url(#clipPath2)"/>
    </g>
  </g>
</svg>
