<?xml version="1.0" encoding="UTF-8"?><svg xmlns="http://www.w3.org/2000/svg" xmlns:xlink="http://www.w3.org/1999/xlink" fill-opacity="1" color-rendering="auto" color-interpolation="auto" text-rendering="auto" stroke="black" stroke-linecap="square" width="572" stroke-miterlimit="10" shape-rendering="auto" stroke-opacity="1" fill="black" stroke-dasharray="none" font-weight="normal" stroke-width="1" height="431" font-family="'Dialog'" font-style="normal" stroke-linejoin="miter" font-size="12px" stroke-dashoffset="0" image-rendering="auto">
  <!--Generated by ySVG 2.5-->
  <defs id="genericDefs"/>
  <g>
    <defs id="defs1">
      <clipPath clipPathUnits="userSpaceOnUse" id="clipPath1">
        <path d="M0 0 L572 0 L572 431 L0 431 L0 0 Z"/>
      </clipPath>
      <clipPath clipPathUnits="userSpaceOnUse" id="clipPath2">
        <path d="M15 -416 L587 -416 L587 15 L15 15 L15 -416 Z"/>
      </clipPath>
      <clipPath clipPathUnits="userSpaceOnUse" id="clipPath3">
        <path d="M30 -379 L30 -320 L164 -320 L164 -379 Z"/>
      </clipPath>
      <clipPath clipPathUnits="userSpaceOnUse" id="clipPath4">
        <path d="M234 -400 L234 -299 L368 -299 L368 -400 Z"/>
      </clipPath>
      <clipPath clipPathUnits="userSpaceOnUse" id="clipPath5">
        <path d="M438 -386 L438 -313 L572 -313 L572 -386 Z"/>
      </clipPath>
      <clipPath clipPathUnits="userSpaceOnUse" id="clipPath6">
        <path d="M85 -235 L85 -89 L405 -89 L405 -235 Z"/>
      </clipPath>
      <clipPath clipPathUnits="userSpaceOnUse" id="clipPath7">
        <path d="M189 -59 L189 0 L301 0 L301 -59 Z"/>
      </clipPath>
    </defs>
    <g fill="white" text-rendering="geometricPrecision" shape-rendering="geometricPrecision" transform="translate(-15,416)" stroke="white">
      <rect x="15" width="572" height="431" y="-416" clip-path="url(#clipPath2)" stroke="none"/>
    </g>
    <g fill="rgb(204,255,204)" text-rendering="geometricPrecision" shape-rendering="geometricPrecision" transform="matrix(1,0,0,1,-15,416)" stroke="rgb(204,255,204)">
      <rect x="31" width="132" height="57" y="-378" clip-path="url(#clipPath2)" stroke="none"/>
      <rect x="30" y="-379" clip-path="url(#clipPath2)" fill="white" width="1" height="59" stroke="none"/>
      <rect x="31" y="-379" clip-path="url(#clipPath2)" fill="white" width="132" height="1" stroke="none"/>
      <rect x="31" y="-321" clip-path="url(#clipPath2)" fill="rgb(142,178,142)" width="133" height="1" stroke="none"/>
      <rect x="163" y="-379" clip-path="url(#clipPath2)" fill="rgb(142,178,142)" width="1" height="58" stroke="none"/>
    </g>
    <g font-size="13px" stroke-linecap="butt" transform="matrix(1,0,0,1,-15,416)" text-rendering="geometricPrecision" font-family="sans-serif" shape-rendering="geometricPrecision" font-weight="bold" stroke-miterlimit="1.45">
      <text x="73.3899" xml:space="preserve" y="-362.0821" clip-path="url(#clipPath3)" stroke="none">CarList</text>
    </g>
    <g text-rendering="geometricPrecision" shape-rendering="geometricPrecision" transform="matrix(1,0,0,1,-15,416)">
      <line y2="-354" fill="none" x1="31" clip-path="url(#clipPath3)" x2="163" y1="-354"/>
      <text stroke-linecap="butt" x="35" y="-337.7383" clip-path="url(#clipPath3)" font-family="sans-serif" stroke="none" stroke-miterlimit="1.45" xml:space="preserve"> </text>
      <line y2="-330" fill="none" x1="31" clip-path="url(#clipPath3)" x2="163" y1="-330"/>
      <text stroke-linecap="butt" x="35" y="-313.6055" clip-path="url(#clipPath3)" font-family="sans-serif" stroke="none" stroke-miterlimit="1.45" xml:space="preserve"> </text>
      <rect x="235" y="-399" clip-path="url(#clipPath2)" fill="rgb(204,255,204)" width="132" height="99" stroke="none"/>
      <rect x="234" y="-400" clip-path="url(#clipPath2)" fill="white" width="1" height="101" stroke="none"/>
      <rect x="235" y="-400" clip-path="url(#clipPath2)" fill="white" width="132" height="1" stroke="none"/>
      <rect x="235" y="-300" clip-path="url(#clipPath2)" fill="rgb(142,178,142)" width="133" height="1" stroke="none"/>
      <rect x="367" y="-400" clip-path="url(#clipPath2)" fill="rgb(142,178,142)" width="1" height="100" stroke="none"/>
    </g>
    <g font-size="13px" stroke-linecap="butt" transform="matrix(1,0,0,1,-15,416)" text-rendering="geometricPrecision" font-family="sans-serif" shape-rendering="geometricPrecision" font-weight="bold" stroke-miterlimit="1.45">
      <text x="289.5933" xml:space="preserve" y="-383.0821" clip-path="url(#clipPath4)" stroke="none">Car</text>
    </g>
    <g text-rendering="geometricPrecision" shape-rendering="geometricPrecision" transform="matrix(1,0,0,1,-15,416)">
      <line y2="-375" fill="none" x1="235" clip-path="url(#clipPath4)" x2="367" y1="-375"/>
      <text stroke-linecap="butt" x="239" y="-358.7383" clip-path="url(#clipPath4)" font-family="sans-serif" stroke="none" stroke-miterlimit="1.45" xml:space="preserve">- regNumber : String</text>
      <text stroke-linecap="butt" x="239" y="-344.6055" clip-path="url(#clipPath4)" font-family="sans-serif" stroke="none" stroke-miterlimit="1.45" xml:space="preserve">- make : String</text>
      <text stroke-linecap="butt" x="239" y="-330.4727" clip-path="url(#clipPath4)" font-family="sans-serif" stroke="none" stroke-miterlimit="1.45" xml:space="preserve">- model : String</text>
      <text stroke-linecap="butt" x="239" y="-316.3399" clip-path="url(#clipPath4)" font-family="sans-serif" stroke="none" stroke-miterlimit="1.45" xml:space="preserve">- year : int</text>
      <line y2="-308" fill="none" x1="235" clip-path="url(#clipPath4)" x2="367" y1="-308"/>
      <rect x="439" y="-385" clip-path="url(#clipPath2)" fill="rgb(204,255,204)" width="132" height="71" stroke="none"/>
      <rect x="438" y="-386" clip-path="url(#clipPath2)" fill="white" width="1" height="73" stroke="none"/>
      <rect x="439" y="-386" clip-path="url(#clipPath2)" fill="white" width="132" height="1" stroke="none"/>
      <rect x="439" y="-314" clip-path="url(#clipPath2)" fill="rgb(142,178,142)" width="133" height="1" stroke="none"/>
      <rect x="571" y="-386" clip-path="url(#clipPath2)" fill="rgb(142,178,142)" width="1" height="72" stroke="none"/>
    </g>
    <g font-size="13px" stroke-linecap="butt" transform="matrix(1,0,0,1,-15,416)" text-rendering="geometricPrecision" font-family="sans-serif" shape-rendering="geometricPrecision" font-weight="bold" stroke-miterlimit="1.45">
      <text x="483.0085" xml:space="preserve" y="-369.0821" clip-path="url(#clipPath5)" stroke="none">Owner</text>
    </g>
    <g text-rendering="geometricPrecision" shape-rendering="geometricPrecision" transform="matrix(1,0,0,1,-15,416)">
      <line y2="-361" fill="none" x1="439" clip-path="url(#clipPath5)" x2="571" y1="-361"/>
      <text stroke-linecap="butt" x="443" y="-344.7383" clip-path="url(#clipPath5)" font-family="sans-serif" stroke="none" stroke-miterlimit="1.45" xml:space="preserve">- firstName : String</text>
      <text stroke-linecap="butt" x="443" y="-330.6055" clip-path="url(#clipPath5)" font-family="sans-serif" stroke="none" stroke-miterlimit="1.45" xml:space="preserve">- lastName : String</text>
      <line y2="-323" fill="none" x1="439" clip-path="url(#clipPath5)" x2="571" y1="-323"/>
      <rect x="86" y="-234" clip-path="url(#clipPath2)" fill="rgb(204,255,204)" width="318" height="144" stroke="none"/>
      <rect x="85" y="-235" clip-path="url(#clipPath2)" fill="white" width="1" height="146" stroke="none"/>
      <rect x="86" y="-235" clip-path="url(#clipPath2)" fill="white" width="318" height="1" stroke="none"/>
      <rect x="86" y="-90" clip-path="url(#clipPath2)" fill="rgb(142,178,142)" width="319" height="1" stroke="none"/>
      <rect x="404" y="-235" clip-path="url(#clipPath2)" fill="rgb(142,178,142)" width="1" height="145" stroke="none"/>
    </g>
    <g font-size="13px" stroke-linecap="butt" transform="matrix(1,0,0,1,-15,416)" text-rendering="geometricPrecision" font-family="sans-serif" shape-rendering="geometricPrecision" font-weight="bold" stroke-miterlimit="1.45">
      <text x="195.363" xml:space="preserve" y="-217.4316" clip-path="url(#clipPath6)" stroke="none">CarFileAdaptor</text>
    </g>
    <g text-rendering="geometricPrecision" shape-rendering="geometricPrecision" transform="matrix(1,0,0,1,-15,416)">
      <line y2="-209" fill="none" x1="86" clip-path="url(#clipPath6)" x2="404" y1="-209"/>
      <text stroke-linecap="butt" x="90.5" y="-193.0879" clip-path="url(#clipPath6)" font-family="sans-serif" stroke="none" stroke-miterlimit="1.45" xml:space="preserve">- fileName : String</text>
      <line y2="-185" fill="none" x1="86" clip-path="url(#clipPath6)" x2="404" y1="-185"/>
      <text stroke-linecap="butt" x="90.5" y="-168.9551" clip-path="url(#clipPath6)" font-family="sans-serif" stroke="none" stroke-miterlimit="1.45" xml:space="preserve">+ CarFileAdaptor(fileName : String)</text>
      <text stroke-linecap="butt" x="90.5" y="-154.8223" clip-path="url(#clipPath6)" font-family="sans-serif" stroke="none" stroke-miterlimit="1.45" xml:space="preserve">+ getAllCars() : Carlist</text>
      <text stroke-linecap="butt" x="90.5" y="-140.6895" clip-path="url(#clipPath6)" font-family="sans-serif" stroke="none" stroke-miterlimit="1.45" xml:space="preserve">+ addCar(car : Car) : void</text>
      <text stroke-linecap="butt" x="90.5" y="-126.5566" clip-path="url(#clipPath6)" font-family="sans-serif" stroke="none" stroke-miterlimit="1.45" xml:space="preserve">+ addCars(cars : CarList) : void</text>
      <text stroke-linecap="butt" x="90.5" y="-112.4238" clip-path="url(#clipPath6)" font-family="sans-serif" stroke="none" stroke-miterlimit="1.45" xml:space="preserve">+ deleteCar(car : Car) : void</text>
      <text stroke-linecap="butt" x="90.5" y="-98.291" clip-path="url(#clipPath6)" font-family="sans-serif" stroke="none" stroke-miterlimit="1.45" xml:space="preserve">+ deleteCarByRagNumber(regNumber : String) : void</text>
      <rect x="190" y="-58" clip-path="url(#clipPath2)" fill="rgb(204,255,204)" width="110" height="57" stroke="none"/>
      <rect x="189" y="-59" clip-path="url(#clipPath2)" fill="white" width="1" height="59" stroke="none"/>
      <rect x="190" y="-59" clip-path="url(#clipPath2)" fill="white" width="110" height="1" stroke="none"/>
      <rect x="190" y="-1" clip-path="url(#clipPath2)" fill="rgb(142,178,142)" width="111" height="1" stroke="none"/>
      <rect x="300" y="-59" clip-path="url(#clipPath2)" fill="rgb(142,178,142)" width="1" height="58" stroke="none"/>
    </g>
    <g font-size="13px" stroke-linecap="butt" transform="matrix(1,0,0,1,-15,416)" text-rendering="geometricPrecision" font-family="sans-serif" shape-rendering="geometricPrecision" font-weight="bold" stroke-miterlimit="1.45">
      <text x="216.5356" xml:space="preserve" y="-41.4316" clip-path="url(#clipPath7)" stroke="none">MyFileIO</text>
    </g>
    <g text-rendering="geometricPrecision" shape-rendering="geometricPrecision" transform="matrix(1,0,0,1,-15,416)">
      <line y2="-33" fill="none" x1="190" clip-path="url(#clipPath7)" x2="300" y1="-33"/>
      <text stroke-linecap="butt" x="194.5" y="-17.0879" clip-path="url(#clipPath7)" font-family="sans-serif" stroke="none" stroke-miterlimit="1.45" xml:space="preserve"> </text>
      <line y2="-9" fill="none" x1="190" clip-path="url(#clipPath7)" x2="300" y1="-9"/>
      <text stroke-linecap="butt" x="194.5" y="7.0449" clip-path="url(#clipPath7)" font-family="sans-serif" stroke="none" stroke-miterlimit="1.45" xml:space="preserve"> </text>
      <path fill="none" stroke-miterlimit="1.45" d="M171.0342 -350.1505 L233.9658 -350.1505" clip-path="url(#clipPath2)" stroke-linecap="butt"/>
    </g>
    <g stroke-linecap="butt" transform="matrix(1,0,0,1,-15,416)" fill="white" text-rendering="geometricPrecision" shape-rendering="geometricPrecision" stroke="white" stroke-miterlimit="1.45">
      <path d="M164.0342 -350.1505 L171.0342 -355.1505 L178.0342 -350.1505 L171.0342 -345.1505 Z" stroke="none" clip-path="url(#clipPath2)"/>
      <path fill="none" d="M164.0342 -350.1505 L171.0342 -355.1505 L178.0342 -350.1505 L171.0342 -345.1505 Z" clip-path="url(#clipPath2)" stroke="black"/>
      <text x="219.1084" y="-328.6153" clip-path="url(#clipPath2)" fill="black" font-family="sans-serif" stroke="none" xml:space="preserve">*</text>
      <path fill="none" d="M368.0342 -350.1505 L432.9659 -350.1505" clip-path="url(#clipPath2)" stroke="black"/>
      <path fill="black" d="M436.9659 -350.1505 L424.9659 -356.1505 L436.9659 -350.1505 L424.9659 -344.1505 Z" clip-path="url(#clipPath2)" stroke="none"/>
    </g>
    <g text-rendering="geometricPrecision" shape-rendering="geometricPrecision" transform="matrix(1,0,0,1,-15,416)">
      <path fill="none" d="M436.9659 -350.1505 L424.9659 -356.1505 L436.9659 -350.1505 L424.9659 -344.1505 Z" clip-path="url(#clipPath2)"/>
      <text stroke-linecap="butt" x="411.2061" y="-331.6153" clip-path="url(#clipPath2)" font-family="sans-serif" stroke="none" stroke-miterlimit="1.45" xml:space="preserve">1</text>
      <path fill="none" stroke-miterlimit="1.45" stroke-dasharray="6,2" d="M245.5 -235.0298 L245.5 -265.5 L97 -265.5 L97 -315.6235" clip-path="url(#clipPath2)" stroke-linecap="butt"/>
      <path stroke-miterlimit="1.45" stroke-dasharray="6,2" d="M97 -319.6235 L91 -307.6235 L97 -319.6235 L103 -307.6235 Z" clip-path="url(#clipPath2)" stroke-linecap="butt" stroke="none"/>
      <path fill="none" d="M97 -319.6235 L91 -307.6235 L97 -319.6235 L103 -307.6235 Z" clip-path="url(#clipPath2)"/>
      <path fill="none" stroke-miterlimit="1.45" stroke-dasharray="6,2" d="M245.5 -235.0298 L245.5 -265.5 L301 -265.5 L301 -294.6171" clip-path="url(#clipPath2)" stroke-linecap="butt"/>
      <path stroke-miterlimit="1.45" stroke-dasharray="6,2" d="M301 -298.6171 L295 -286.6171 L301 -298.6171 L307 -286.6171 Z" clip-path="url(#clipPath2)" stroke-linecap="butt" stroke="none"/>
      <path fill="none" d="M301 -298.6171 L295 -286.6171 L301 -298.6171 L307 -286.6171 Z" clip-path="url(#clipPath2)"/>
      <path fill="none" stroke-miterlimit="1.45" d="M245.5 -88.9707 L245.5 -64.0293" clip-path="url(#clipPath2)" stroke-linecap="butt"/>
      <path stroke-miterlimit="1.45" d="M245.5 -60.0293 L251.5 -72.0293 L245.5 -60.0293 L239.5 -72.0293 Z" clip-path="url(#clipPath2)" stroke-linecap="butt" stroke="none"/>
      <path fill="none" d="M245.5 -60.0293 L251.5 -72.0293 L245.5 -60.0293 L239.5 -72.0293 Z" clip-path="url(#clipPath2)"/>
    </g>
  </g>
</svg>
