<?xml version="1.0" encoding="UTF-8"?><svg xmlns="http://www.w3.org/2000/svg" xmlns:xlink="http://www.w3.org/1999/xlink" fill-opacity="1" color-rendering="auto" color-interpolation="auto" text-rendering="auto" stroke="black" stroke-linecap="square" width="952" stroke-miterlimit="10" shape-rendering="auto" stroke-opacity="1" fill="black" stroke-dasharray="none" font-weight="normal" stroke-width="1" height="265" font-family="'Dialog'" font-style="normal" stroke-linejoin="miter" font-size="12px" stroke-dashoffset="0" image-rendering="auto">
  <!--Generated by ySVG 2.5-->
  <defs id="genericDefs"/>
  <g>
    <defs id="defs1">
      <clipPath clipPathUnits="userSpaceOnUse" id="clipPath1">
        <path d="M0 0 L952 0 L952 265 L0 265 L0 0 Z"/>
      </clipPath>
      <clipPath clipPathUnits="userSpaceOnUse" id="clipPath2">
        <path d="M332 151 L1284 151 L1284 416 L332 416 L332 151 Z"/>
      </clipPath>
      <clipPath clipPathUnits="userSpaceOnUse" id="clipPath3">
        <path d="M347 239 L347 394 L618 394 L618 239 Z"/>
      </clipPath>
      <clipPath clipPathUnits="userSpaceOnUse" id="clipPath4">
        <path d="M698 241 L698 392 L935 392 L935 241 Z"/>
      </clipPath>
      <clipPath clipPathUnits="userSpaceOnUse" id="clipPath5">
        <path d="M1015 233 L1015 399 L1269 399 L1269 233 Z"/>
      </clipPath>
    </defs>
    <g fill="white" text-rendering="geometricPrecision" shape-rendering="geometricPrecision" transform="translate(-332,-151)" stroke="white">
      <rect x="332" width="952" height="265" y="151" clip-path="url(#clipPath2)" stroke="none"/>
    </g>
    <g fill="rgb(204,255,204)" text-rendering="geometricPrecision" shape-rendering="geometricPrecision" transform="matrix(1,0,0,1,-332,-151)" stroke="rgb(204,255,204)">
      <rect x="348" width="269" height="153" y="240" clip-path="url(#clipPath2)" stroke="none"/>
      <rect x="347" y="239" clip-path="url(#clipPath2)" fill="white" width="1" height="155" stroke="none"/>
      <rect x="348" y="239" clip-path="url(#clipPath2)" fill="white" width="269" height="1" stroke="none"/>
      <rect x="348" y="393" clip-path="url(#clipPath2)" fill="rgb(142,178,142)" width="270" height="1" stroke="none"/>
      <rect x="617" y="239" clip-path="url(#clipPath2)" fill="rgb(142,178,142)" width="1" height="154" stroke="none"/>
    </g>
    <g font-size="13px" stroke-linecap="butt" transform="matrix(1,0,0,1,-332,-151)" text-rendering="geometricPrecision" font-family="sans-serif" shape-rendering="geometricPrecision" font-weight="bold" stroke-miterlimit="1.45">
      <text x="446.0042" xml:space="preserve" y="257.5698" clip-path="url(#clipPath3)" stroke="none">JavaProject</text>
    </g>
    <g text-rendering="geometricPrecision" shape-rendering="geometricPrecision" transform="matrix(1,0,0,1,-332,-151)">
      <line y2="265" fill="none" x1="348" clip-path="url(#clipPath3)" x2="617" y1="265"/>
      <text stroke-linecap="butt" x="352" y="282.4907" clip-path="url(#clipPath3)" font-family="sans-serif" stroke="none" stroke-miterlimit="1.45" xml:space="preserve">- name : String</text>
      <text stroke-linecap="butt" x="352" y="297.1919" clip-path="url(#clipPath3)" font-family="sans-serif" stroke="none" stroke-miterlimit="1.45" xml:space="preserve">- files : JavaFile list</text>
      <line y2="304" fill="none" x1="348" clip-path="url(#clipPath3)" x2="617" y1="304"/>
      <text stroke-linecap="butt" x="352" y="321.8931" clip-path="url(#clipPath3)" font-family="sans-serif" stroke="none" stroke-miterlimit="1.45" xml:space="preserve">+ JavaProject(name : String)</text>
      <text stroke-linecap="butt" x="352" y="336.5942" clip-path="url(#clipPath3)" font-family="sans-serif" stroke="none" stroke-miterlimit="1.45" xml:space="preserve">+ addJavaFile(file : JavaFile) : void</text>
      <text stroke-linecap="butt" x="352" y="351.2954" clip-path="url(#clipPath3)" font-family="sans-serif" stroke="none" stroke-miterlimit="1.45" xml:space="preserve">+ getFileName(index : int) : FileName</text>
      <text stroke-linecap="butt" x="352" y="365.9966" clip-path="url(#clipPath3)" font-family="sans-serif" stroke="none" stroke-miterlimit="1.45" xml:space="preserve">+ getFirstJavaFileWithAMainMethod() : JavaFile</text>
      <text stroke-linecap="butt" x="352" y="380.6978" clip-path="url(#clipPath3)" font-family="sans-serif" stroke="none" stroke-miterlimit="1.45" xml:space="preserve">+ getProjectName() : String</text>
      <rect x="699" y="242" clip-path="url(#clipPath2)" fill="rgb(204,255,204)" width="235" height="149" stroke="none"/>
      <rect x="698" y="241" clip-path="url(#clipPath2)" fill="white" width="1" height="151" stroke="none"/>
      <rect x="699" y="241" clip-path="url(#clipPath2)" fill="white" width="235" height="1" stroke="none"/>
      <rect x="699" y="391" clip-path="url(#clipPath2)" fill="rgb(142,178,142)" width="236" height="1" stroke="none"/>
      <rect x="934" y="241" clip-path="url(#clipPath2)" fill="rgb(142,178,142)" width="1" height="150" stroke="none"/>
    </g>
    <g font-size="13px" stroke-linecap="butt" transform="matrix(1,0,0,1,-332,-151)" text-rendering="geometricPrecision" font-family="sans-serif" shape-rendering="geometricPrecision" font-weight="bold" stroke-miterlimit="1.45">
      <text x="790.8428" xml:space="preserve" y="259.5698" clip-path="url(#clipPath4)" stroke="none">JavaFile</text>
    </g>
    <g text-rendering="geometricPrecision" shape-rendering="geometricPrecision" transform="matrix(1,0,0,1,-332,-151)">
      <line y2="267" fill="none" x1="699" clip-path="url(#clipPath4)" x2="934" y1="267"/>
      <text stroke-linecap="butt" x="703" y="284.4907" clip-path="url(#clipPath4)" font-family="sans-serif" stroke="none" stroke-miterlimit="1.45" xml:space="preserve">- hasAMainMethod : boolean</text>
      <text stroke-linecap="butt" x="703" y="299.1919" clip-path="url(#clipPath4)" font-family="sans-serif" stroke="none" stroke-miterlimit="1.45" xml:space="preserve">- fileName : FileName</text>
      <line y2="306" fill="none" x1="699" clip-path="url(#clipPath4)" x2="934" y1="306"/>
      <text stroke-linecap="butt" x="703" y="323.8931" clip-path="url(#clipPath4)" font-family="sans-serif" stroke="none" stroke-miterlimit="1.45" xml:space="preserve">+ JavaFile(fileName : String)</text>
      <text stroke-linecap="butt" x="703" y="338.5942" clip-path="url(#clipPath4)" font-family="sans-serif" stroke="none" stroke-miterlimit="1.45" xml:space="preserve">+ getFileName() : FileName</text>
      <text stroke-linecap="butt" x="703" y="353.2954" clip-path="url(#clipPath4)" font-family="sans-serif" stroke="none" stroke-miterlimit="1.45" xml:space="preserve">+ hasAMainMethod() : boolean</text>
      <text stroke-linecap="butt" x="703" y="367.9966" clip-path="url(#clipPath4)" font-family="sans-serif" stroke="none" stroke-miterlimit="1.45" xml:space="preserve">+ addAMainMethod() : void</text>
      <text stroke-linecap="butt" x="703" y="382.6978" clip-path="url(#clipPath4)" font-family="sans-serif" stroke="none" stroke-miterlimit="1.45" xml:space="preserve">+ toString() : String</text>
      <rect x="1016" y="234" clip-path="url(#clipPath2)" fill="rgb(204,255,204)" width="252" height="164" stroke="none"/>
      <rect x="1015" y="233" clip-path="url(#clipPath2)" fill="white" width="1" height="166" stroke="none"/>
      <rect x="1016" y="233" clip-path="url(#clipPath2)" fill="white" width="252" height="1" stroke="none"/>
      <rect x="1016" y="398" clip-path="url(#clipPath2)" fill="rgb(142,178,142)" width="253" height="1" stroke="none"/>
      <rect x="1268" y="233" clip-path="url(#clipPath2)" fill="rgb(142,178,142)" width="1" height="165" stroke="none"/>
    </g>
    <g font-size="13px" stroke-linecap="butt" transform="matrix(1,0,0,1,-332,-151)" text-rendering="geometricPrecision" font-family="sans-serif" shape-rendering="geometricPrecision" font-weight="bold" stroke-miterlimit="1.45">
      <text x="1113.0991" xml:space="preserve" y="251.9032" clip-path="url(#clipPath5)" stroke="none">FileName</text>
    </g>
    <g text-rendering="geometricPrecision" shape-rendering="geometricPrecision" transform="matrix(1,0,0,1,-332,-151)">
      <line y2="259" fill="none" x1="1016" clip-path="url(#clipPath5)" x2="1268" y1="259"/>
      <text stroke-linecap="butt" x="1020" y="276.8241" clip-path="url(#clipPath5)" font-family="sans-serif" stroke="none" stroke-miterlimit="1.45" xml:space="preserve">- name : String</text>
      <text stroke-linecap="butt" x="1020" y="291.5252" clip-path="url(#clipPath5)" font-family="sans-serif" stroke="none" stroke-miterlimit="1.45" xml:space="preserve">- extension : String</text>
      <line y2="299" fill="none" x1="1016" clip-path="url(#clipPath5)" x2="1268" y1="299"/>
      <text stroke-linecap="butt" x="1020" y="316.2264" clip-path="url(#clipPath5)" font-family="sans-serif" stroke="none" stroke-miterlimit="1.45" xml:space="preserve">+ FileName(name : String, extension : String)</text>
      <text stroke-linecap="butt" x="1020" y="330.9276" clip-path="url(#clipPath5)" font-family="sans-serif" stroke="none" stroke-miterlimit="1.45" xml:space="preserve">+ set(name : String, extension : String) : void</text>
      <text stroke-linecap="butt" x="1020" y="345.6288" clip-path="url(#clipPath5)" font-family="sans-serif" stroke="none" stroke-miterlimit="1.45" xml:space="preserve">+ getName() : String</text>
      <text stroke-linecap="butt" x="1020" y="360.3299" clip-path="url(#clipPath5)" font-family="sans-serif" stroke="none" stroke-miterlimit="1.45" xml:space="preserve">+ getExtension() : String</text>
      <text stroke-linecap="butt" x="1020" y="375.0311" clip-path="url(#clipPath5)" font-family="sans-serif" stroke="none" stroke-miterlimit="1.45" xml:space="preserve">+ getFullName() : String</text>
      <text stroke-linecap="butt" x="1020" y="389.7323" clip-path="url(#clipPath5)" font-family="sans-serif" stroke="none" stroke-miterlimit="1.45" xml:space="preserve">+ copy() : FileName</text>
      <path fill="rgb(255,204,153)" d="M766.5 166.3333 L890.5 166.3333 L890.5 181.3333 L905.5 181.3333 L905.5 202.3333 L766.5 202.3333 Z" clip-path="url(#clipPath2)" stroke="none"/>
      <path fill="white" d="M890.5 166.3333 L890.5 181.3333 L905.5 181.3333 Z" clip-path="url(#clipPath2)" fill-rule="evenodd" stroke="none"/>
      <path fill="none" stroke-miterlimit="1.45" d="M766.5 166.3333 L890.5 166.3333 L890.5 181.3333 L905.5 181.3333 L905.5 202.3333 L766.5 202.3333 Z" clip-path="url(#clipPath2)" stroke-linecap="butt"/>
      <path fill="none" stroke-miterlimit="1.45" d="M890.5 166.3333 L890.5 181.3333 L905.5 181.3333 Z" fill-rule="evenodd" clip-path="url(#clipPath2)" stroke-linecap="butt"/>
      <text stroke-linecap="butt" x="785.0498" y="189.0472" clip-path="url(#clipPath2)" font-family="sans-serif" stroke="none" stroke-miterlimit="1.45" xml:space="preserve">Extension is "Java"</text>
      <path fill="none" stroke-miterlimit="1.45" d="M617.9836 317 L693.0009 317" clip-path="url(#clipPath2)" stroke-linecap="butt"/>
      <path stroke-miterlimit="1.45" d="M697.0009 317 L685.0009 311 L697.0009 317 L685.0009 323 Z" clip-path="url(#clipPath2)" stroke-linecap="butt" stroke="none"/>
      <path fill="none" d="M697.0009 317 L685.0009 311 L697.0009 317 L685.0009 323 Z" clip-path="url(#clipPath2)"/>
    </g>
    <g font-size="18px" stroke-linecap="butt" transform="matrix(1,0,0,1,-332,-151)" text-rendering="geometricPrecision" font-family="sans-serif" shape-rendering="geometricPrecision" font-weight="bold" stroke-miterlimit="1.45">
      <text x="682.1155" xml:space="preserve" y="304.0708" clip-path="url(#clipPath2)" stroke="none">*</text>
      <path fill="none" d="M935.0262 317 L1009.991 317" clip-path="url(#clipPath2)"/>
      <path d="M1013.991 317 L1001.991 311 L1013.991 317 L1001.991 323 Z" stroke="none" clip-path="url(#clipPath2)"/>
    </g>
    <g text-rendering="geometricPrecision" shape-rendering="geometricPrecision" transform="matrix(1,0,0,1,-332,-151)">
      <path fill="none" d="M1013.991 317 L1001.991 311 L1013.991 317 L1001.991 323 Z" clip-path="url(#clipPath2)"/>
    </g>
    <g font-size="18px" stroke-linecap="butt" transform="matrix(1,0,0,1,-332,-151)" text-rendering="geometricPrecision" font-family="sans-serif" shape-rendering="geometricPrecision" font-weight="bold" stroke-miterlimit="1.45">
      <text x="997.5181" xml:space="preserve" y="301.0708" clip-path="url(#clipPath2)" stroke="none">1</text>
    </g>
    <g text-rendering="geometricPrecision" stroke-miterlimit="1.45" stroke-dasharray="6,2" shape-rendering="geometricPrecision" transform="matrix(1,0,0,1,-332,-151)" stroke-linecap="butt">
      <path fill="none" d="M833.3578 202.3094 L827.6 241.4823" clip-path="url(#clipPath2)"/>
    </g>
  </g>
</svg>
