<?xml version="1.0" encoding="UTF-8"?><svg xmlns="http://www.w3.org/2000/svg" xmlns:xlink="http://www.w3.org/1999/xlink" fill-opacity="1" color-rendering="auto" color-interpolation="auto" text-rendering="auto" stroke="black" stroke-linecap="square" width="561" stroke-miterlimit="10" shape-rendering="auto" stroke-opacity="1" fill="black" stroke-dasharray="none" font-weight="normal" stroke-width="1" height="322" font-family="'Dialog'" font-style="normal" stroke-linejoin="miter" font-size="12px" stroke-dashoffset="0" image-rendering="auto">
  <!--Generated by ySVG 2.5-->
  <defs id="genericDefs"/>
  <g>
    <defs id="defs1">
      <clipPath clipPathUnits="userSpaceOnUse" id="clipPath1">
        <path d="M0 0 L561 0 L561 322 L0 322 L0 0 Z"/>
      </clipPath>
      <clipPath clipPathUnits="userSpaceOnUse" id="clipPath2">
        <path d="M20 -307 L581 -307 L581 15 L20 15 L20 -307 Z"/>
      </clipPath>
      <clipPath clipPathUnits="userSpaceOnUse" id="clipPath3">
        <path d="M338 -292 L338 -264 L438 -264 L438 -292 Z"/>
      </clipPath>
      <clipPath clipPathUnits="userSpaceOnUse" id="clipPath4">
        <path d="M338 -234 L338 -206 L438 -206 L438 -234 Z"/>
      </clipPath>
      <clipPath clipPathUnits="userSpaceOnUse" id="clipPath5">
        <path d="M466 -160 L466 -132 L566 -132 L566 -160 Z"/>
      </clipPath>
      <clipPath clipPathUnits="userSpaceOnUse" id="clipPath6">
        <path d="M211 -160 L211 -132 L311 -132 L311 -160 Z"/>
      </clipPath>
      <clipPath clipPathUnits="userSpaceOnUse" id="clipPath7">
        <path d="M35 -86 L35 -58 L135 -58 L135 -86 Z"/>
      </clipPath>
      <clipPath clipPathUnits="userSpaceOnUse" id="clipPath8">
        <path d="M195 -86 L195 -58 L327 -58 L327 -86 Z"/>
      </clipPath>
      <clipPath clipPathUnits="userSpaceOnUse" id="clipPath9">
        <path d="M493 -86 L493 -58 L539 -58 L539 -86 Z"/>
      </clipPath>
      <clipPath clipPathUnits="userSpaceOnUse" id="clipPath10">
        <path d="M387 -86 L387 -58 L433 -58 L433 -86 Z"/>
      </clipPath>
      <clipPath clipPathUnits="userSpaceOnUse" id="clipPath11">
        <path d="M62 -28 L62 0 L108 0 L108 -28 Z"/>
      </clipPath>
      <clipPath clipPathUnits="userSpaceOnUse" id="clipPath12">
        <path d="M238 -28 L238 0 L284 0 L284 -28 Z"/>
      </clipPath>
    </defs>
    <g fill="rgb(204,255,204)" text-rendering="geometricPrecision" shape-rendering="geometricPrecision" transform="matrix(1,0,0,1,-20,307)" stroke="rgb(204,255,204)">
      <rect x="339" width="98" height="26" y="-291" clip-path="url(#clipPath2)" stroke="none"/>
    </g>
    <g fill="white" text-rendering="geometricPrecision" shape-rendering="geometricPrecision" transform="matrix(1,0,0,1,-20,307)" stroke="white">
      <rect x="338" width="1" height="28" y="-292" clip-path="url(#clipPath2)" stroke="none"/>
      <rect x="339" width="98" height="1" y="-292" clip-path="url(#clipPath2)" stroke="none"/>
      <rect x="339" y="-265" clip-path="url(#clipPath2)" fill="rgb(142,178,142)" width="99" height="1" stroke="none"/>
      <rect x="437" y="-292" clip-path="url(#clipPath2)" fill="rgb(142,178,142)" width="1" height="27" stroke="none"/>
    </g>
    <g font-size="13px" stroke-linecap="butt" transform="matrix(1,0,0,1,-20,307)" text-rendering="geometricPrecision" font-family="sans-serif" shape-rendering="geometricPrecision" font-weight="bold" stroke-miterlimit="1.45">
      <text x="368.2732" xml:space="preserve" y="-273.9302" clip-path="url(#clipPath3)" stroke="none">Object</text>
    </g>
    <g fill="rgb(204,255,204)" text-rendering="geometricPrecision" shape-rendering="geometricPrecision" transform="matrix(1,0,0,1,-20,307)" stroke="rgb(204,255,204)">
      <rect x="339" width="98" height="26" y="-233" clip-path="url(#clipPath2)" stroke="none"/>
      <rect x="338" y="-234" clip-path="url(#clipPath2)" fill="white" width="1" height="28" stroke="none"/>
      <rect x="339" y="-234" clip-path="url(#clipPath2)" fill="white" width="98" height="1" stroke="none"/>
      <rect x="339" y="-207" clip-path="url(#clipPath2)" fill="rgb(142,178,142)" width="99" height="1" stroke="none"/>
      <rect x="437" y="-234" clip-path="url(#clipPath2)" fill="rgb(142,178,142)" width="1" height="27" stroke="none"/>
    </g>
    <g font-size="13px" stroke-linecap="butt" transform="matrix(1,0,0,1,-20,307)" text-rendering="geometricPrecision" font-family="sans-serif" shape-rendering="geometricPrecision" font-weight="bold" stroke-miterlimit="1.45">
      <text x="355.9968" xml:space="preserve" y="-215.9302" clip-path="url(#clipPath4)" stroke="none">Throwable</text>
    </g>
    <g fill="rgb(204,255,204)" text-rendering="geometricPrecision" shape-rendering="geometricPrecision" transform="matrix(1,0,0,1,-20,307)" stroke="rgb(204,255,204)">
      <rect x="467" width="98" height="26" y="-159" clip-path="url(#clipPath2)" stroke="none"/>
      <rect x="466" y="-160" clip-path="url(#clipPath2)" fill="white" width="1" height="28" stroke="none"/>
      <rect x="467" y="-160" clip-path="url(#clipPath2)" fill="white" width="98" height="1" stroke="none"/>
      <rect x="467" y="-133" clip-path="url(#clipPath2)" fill="rgb(142,178,142)" width="99" height="1" stroke="none"/>
      <rect x="565" y="-160" clip-path="url(#clipPath2)" fill="rgb(142,178,142)" width="1" height="27" stroke="none"/>
    </g>
    <g font-size="13px" stroke-linecap="butt" transform="matrix(1,0,0,1,-20,307)" text-rendering="geometricPrecision" font-family="sans-serif" shape-rendering="geometricPrecision" font-weight="bold" stroke-miterlimit="1.45">
      <text x="500.1055" xml:space="preserve" y="-141.9302" clip-path="url(#clipPath5)" stroke="none">Error</text>
    </g>
    <g fill="rgb(204,255,204)" text-rendering="geometricPrecision" shape-rendering="geometricPrecision" transform="matrix(1,0,0,1,-20,307)" stroke="rgb(204,255,204)">
      <rect x="212" width="98" height="26" y="-159" clip-path="url(#clipPath2)" stroke="none"/>
      <rect x="211" y="-160" clip-path="url(#clipPath2)" fill="white" width="1" height="28" stroke="none"/>
      <rect x="212" y="-160" clip-path="url(#clipPath2)" fill="white" width="98" height="1" stroke="none"/>
      <rect x="212" y="-133" clip-path="url(#clipPath2)" fill="rgb(142,178,142)" width="99" height="1" stroke="none"/>
      <rect x="310" y="-160" clip-path="url(#clipPath2)" fill="rgb(142,178,142)" width="1" height="27" stroke="none"/>
    </g>
    <g font-size="13px" stroke-linecap="butt" transform="matrix(1,0,0,1,-20,307)" text-rendering="geometricPrecision" font-family="sans-serif" shape-rendering="geometricPrecision" font-weight="bold" stroke-miterlimit="1.45">
      <text x="229.9377" xml:space="preserve" y="-141.9302" clip-path="url(#clipPath6)" stroke="none">Exception</text>
    </g>
    <g fill="rgb(204,255,204)" text-rendering="geometricPrecision" shape-rendering="geometricPrecision" transform="matrix(1,0,0,1,-20,307)" stroke="rgb(204,255,204)">
      <rect x="36" width="98" height="26" y="-85" clip-path="url(#clipPath2)" stroke="none"/>
      <rect x="35" y="-86" clip-path="url(#clipPath2)" fill="white" width="1" height="28" stroke="none"/>
      <rect x="36" y="-86" clip-path="url(#clipPath2)" fill="white" width="98" height="1" stroke="none"/>
      <rect x="36" y="-59" clip-path="url(#clipPath2)" fill="rgb(142,178,142)" width="99" height="1" stroke="none"/>
      <rect x="134" y="-86" clip-path="url(#clipPath2)" fill="rgb(142,178,142)" width="1" height="27" stroke="none"/>
    </g>
    <g font-size="13px" stroke-linecap="butt" transform="matrix(1,0,0,1,-20,307)" text-rendering="geometricPrecision" font-family="sans-serif" shape-rendering="geometricPrecision" font-weight="bold" stroke-miterlimit="1.45">
      <text x="47.0759" xml:space="preserve" y="-67.9302" clip-path="url(#clipPath7)" stroke="none">IOException</text>
    </g>
    <g fill="rgb(204,255,204)" text-rendering="geometricPrecision" shape-rendering="geometricPrecision" transform="matrix(1,0,0,1,-20,307)" stroke="rgb(204,255,204)">
      <rect x="196" width="130" height="26" y="-85" clip-path="url(#clipPath2)" stroke="none"/>
      <rect x="195" y="-86" clip-path="url(#clipPath2)" fill="white" width="1" height="28" stroke="none"/>
      <rect x="196" y="-86" clip-path="url(#clipPath2)" fill="white" width="130" height="1" stroke="none"/>
      <rect x="196" y="-59" clip-path="url(#clipPath2)" fill="rgb(142,178,142)" width="131" height="1" stroke="none"/>
      <rect x="326" y="-86" clip-path="url(#clipPath2)" fill="rgb(142,178,142)" width="1" height="27" stroke="none"/>
    </g>
    <g font-size="13px" stroke-linecap="butt" transform="matrix(1,0,0,1,-20,307)" text-rendering="geometricPrecision" font-family="sans-serif" shape-rendering="geometricPrecision" font-weight="bold" stroke-miterlimit="1.45">
      <text x="203.9377" xml:space="preserve" y="-67.9302" clip-path="url(#clipPath8)" stroke="none">RuntimeException</text>
    </g>
    <g fill="rgb(204,255,204)" text-rendering="geometricPrecision" shape-rendering="geometricPrecision" transform="matrix(1,0,0,1,-20,307)" stroke="rgb(204,255,204)">
      <rect x="494" width="44" height="26" y="-85" clip-path="url(#clipPath2)" stroke="none"/>
      <rect x="493" y="-86" clip-path="url(#clipPath2)" fill="white" width="1" height="28" stroke="none"/>
      <rect x="494" y="-86" clip-path="url(#clipPath2)" fill="white" width="44" height="1" stroke="none"/>
      <rect x="494" y="-59" clip-path="url(#clipPath2)" fill="rgb(142,178,142)" width="45" height="1" stroke="none"/>
      <rect x="538" y="-86" clip-path="url(#clipPath2)" fill="rgb(142,178,142)" width="1" height="27" stroke="none"/>
    </g>
    <g font-size="13px" stroke-linecap="butt" transform="matrix(1,0,0,1,-20,307)" text-rendering="geometricPrecision" font-family="sans-serif" shape-rendering="geometricPrecision" font-weight="bold" stroke-miterlimit="1.45">
      <text x="510.5823" xml:space="preserve" y="-67.9302" clip-path="url(#clipPath9)" stroke="none">...</text>
    </g>
    <g fill="rgb(204,255,204)" text-rendering="geometricPrecision" shape-rendering="geometricPrecision" transform="matrix(1,0,0,1,-20,307)" stroke="rgb(204,255,204)">
      <rect x="388" width="44" height="26" y="-85" clip-path="url(#clipPath2)" stroke="none"/>
      <rect x="387" y="-86" clip-path="url(#clipPath2)" fill="white" width="1" height="28" stroke="none"/>
      <rect x="388" y="-86" clip-path="url(#clipPath2)" fill="white" width="44" height="1" stroke="none"/>
      <rect x="388" y="-59" clip-path="url(#clipPath2)" fill="rgb(142,178,142)" width="45" height="1" stroke="none"/>
      <rect x="432" y="-86" clip-path="url(#clipPath2)" fill="rgb(142,178,142)" width="1" height="27" stroke="none"/>
    </g>
    <g font-size="13px" stroke-linecap="butt" transform="matrix(1,0,0,1,-20,307)" text-rendering="geometricPrecision" font-family="sans-serif" shape-rendering="geometricPrecision" font-weight="bold" stroke-miterlimit="1.45">
      <text x="404.5823" xml:space="preserve" y="-67.9302" clip-path="url(#clipPath10)" stroke="none">...</text>
    </g>
    <g fill="rgb(204,255,204)" text-rendering="geometricPrecision" shape-rendering="geometricPrecision" transform="matrix(1,0,0,1,-20,307)" stroke="rgb(204,255,204)">
      <rect x="63" width="44" height="26" y="-27" clip-path="url(#clipPath2)" stroke="none"/>
      <rect x="62" y="-28" clip-path="url(#clipPath2)" fill="white" width="1" height="28" stroke="none"/>
      <rect x="63" y="-28" clip-path="url(#clipPath2)" fill="white" width="44" height="1" stroke="none"/>
      <rect x="63" y="-1" clip-path="url(#clipPath2)" fill="rgb(142,178,142)" width="45" height="1" stroke="none"/>
      <rect x="107" y="-28" clip-path="url(#clipPath2)" fill="rgb(142,178,142)" width="1" height="27" stroke="none"/>
    </g>
    <g font-size="13px" stroke-linecap="butt" transform="matrix(1,0,0,1,-20,307)" text-rendering="geometricPrecision" font-family="sans-serif" shape-rendering="geometricPrecision" font-weight="bold" stroke-miterlimit="1.45">
      <text x="79.5823" xml:space="preserve" y="-9.9302" clip-path="url(#clipPath11)" stroke="none">...</text>
    </g>
    <g fill="rgb(204,255,204)" text-rendering="geometricPrecision" shape-rendering="geometricPrecision" transform="matrix(1,0,0,1,-20,307)" stroke="rgb(204,255,204)">
      <rect x="239" width="44" height="26" y="-27" clip-path="url(#clipPath2)" stroke="none"/>
      <rect x="238" y="-28" clip-path="url(#clipPath2)" fill="white" width="1" height="28" stroke="none"/>
      <rect x="239" y="-28" clip-path="url(#clipPath2)" fill="white" width="44" height="1" stroke="none"/>
      <rect x="239" y="-1" clip-path="url(#clipPath2)" fill="rgb(142,178,142)" width="45" height="1" stroke="none"/>
      <rect x="283" y="-28" clip-path="url(#clipPath2)" fill="rgb(142,178,142)" width="1" height="27" stroke="none"/>
    </g>
    <g font-size="13px" stroke-linecap="butt" transform="matrix(1,0,0,1,-20,307)" text-rendering="geometricPrecision" font-family="sans-serif" shape-rendering="geometricPrecision" font-weight="bold" stroke-miterlimit="1.45">
      <text x="255.5823" xml:space="preserve" y="-9.9302" clip-path="url(#clipPath12)" stroke="none">...</text>
      <path fill="none" d="M388.5 -234.0293 L388.5 -248.9707" clip-path="url(#clipPath2)"/>
    </g>
    <g stroke-linecap="butt" transform="matrix(1,0,0,1,-20,307)" fill="white" text-rendering="geometricPrecision" shape-rendering="geometricPrecision" stroke="white" stroke-miterlimit="1.45">
      <path d="M388.5 -263.9707 L382.5 -247.9707 L394.5 -247.9707 Z" stroke="none" clip-path="url(#clipPath2)"/>
      <path fill="none" d="M388.5 -263.9707 L382.5 -247.9707 L394.5 -247.9707 Z" clip-path="url(#clipPath2)" stroke="black"/>
      <path fill="none" d="M516 -160.0303 L516 -175.5 L388.5 -175.5 L388.5 -190.9702" clip-path="url(#clipPath2)" stroke="black"/>
      <path d="M388.5 -205.9702 L382.5 -189.9702 L394.5 -189.9702 Z" clip-path="url(#clipPath2)" stroke="none"/>
      <path fill="none" d="M388.5 -205.9702 L382.5 -189.9702 L394.5 -189.9702 Z" clip-path="url(#clipPath2)" stroke="black"/>
      <path fill="none" d="M261 -160.0303 L261 -175.5 L388.5 -175.5 L388.5 -190.9702" clip-path="url(#clipPath2)" stroke="black"/>
      <path d="M388.5 -205.9702 L382.5 -189.9702 L394.5 -189.9702 Z" clip-path="url(#clipPath2)" stroke="none"/>
      <path fill="none" d="M388.5 -205.9702 L382.5 -189.9702 L394.5 -189.9702 Z" clip-path="url(#clipPath2)" stroke="black"/>
      <path fill="none" d="M85 -86.0303 L85 -101.5 L261 -101.5 L261 -116.9702" clip-path="url(#clipPath2)" stroke="black"/>
      <path d="M261 -131.9702 L255 -115.9702 L267 -115.9702 Z" clip-path="url(#clipPath2)" stroke="none"/>
      <path fill="none" d="M261 -131.9702 L255 -115.9702 L267 -115.9702 Z" clip-path="url(#clipPath2)" stroke="black"/>
      <path fill="none" d="M261 -86.0449 L261 -116.9551" clip-path="url(#clipPath2)" stroke="black"/>
      <path d="M261 -131.9551 L255 -115.9551 L267 -115.9551 Z" clip-path="url(#clipPath2)" stroke="none"/>
      <path fill="none" d="M261 -131.9551 L255 -115.9551 L267 -115.9551 Z" clip-path="url(#clipPath2)" stroke="black"/>
      <path fill="none" d="M516 -86.0449 L516 -116.9551" clip-path="url(#clipPath2)" stroke="black"/>
      <path d="M516 -131.9551 L510 -115.9551 L522 -115.9551 Z" clip-path="url(#clipPath2)" stroke="none"/>
      <path fill="none" d="M516 -131.9551 L510 -115.9551 L522 -115.9551 Z" clip-path="url(#clipPath2)" stroke="black"/>
      <path fill="none" d="M410 -86.0303 L410 -101.5 L261 -101.5 L261 -116.9702" clip-path="url(#clipPath2)" stroke="black"/>
      <path d="M261 -131.9702 L255 -115.9702 L267 -115.9702 Z" clip-path="url(#clipPath2)" stroke="none"/>
      <path fill="none" d="M261 -131.9702 L255 -115.9702 L267 -115.9702 Z" clip-path="url(#clipPath2)" stroke="black"/>
      <path fill="none" d="M85 -28.0293 L85 -42.9707" clip-path="url(#clipPath2)" stroke="black"/>
      <path d="M85 -57.9707 L79 -41.9707 L91 -41.9707 Z" clip-path="url(#clipPath2)" stroke="none"/>
      <path fill="none" d="M85 -57.9707 L79 -41.9707 L91 -41.9707 Z" clip-path="url(#clipPath2)" stroke="black"/>
      <path fill="none" d="M261 -28.0293 L261 -42.9707" clip-path="url(#clipPath2)" stroke="black"/>
      <path d="M261 -57.9707 L255 -41.9707 L267 -41.9707 Z" clip-path="url(#clipPath2)" stroke="none"/>
      <path fill="none" d="M261 -57.9707 L255 -41.9707 L267 -41.9707 Z" clip-path="url(#clipPath2)" stroke="black"/>
    </g>
  </g>
</svg>
