<?xml version="1.0" encoding="UTF-8"?><svg xmlns="http://www.w3.org/2000/svg" xmlns:xlink="http://www.w3.org/1999/xlink" fill-opacity="1" color-rendering="auto" color-interpolation="auto" text-rendering="auto" stroke="black" stroke-linecap="square" width="571" stroke-miterlimit="10" shape-rendering="auto" stroke-opacity="1" fill="black" stroke-dasharray="none" font-weight="normal" stroke-width="1" height="178" font-family="'Dialog'" font-style="normal" stroke-linejoin="miter" font-size="12px" stroke-dashoffset="0" image-rendering="auto">
  <!--Generated by ySVG 2.5-->
  <defs id="genericDefs"/>
  <g>
    <defs id="defs1">
      <clipPath clipPathUnits="userSpaceOnUse" id="clipPath1">
        <path d="M0 0 L571 0 L571 178 L0 178 L0 0 Z"/>
      </clipPath>
      <clipPath clipPathUnits="userSpaceOnUse" id="clipPath2">
        <path d="M15 -163 L586 -163 L586 15 L15 15 L15 -163 Z"/>
      </clipPath>
      <clipPath clipPathUnits="userSpaceOnUse" id="clipPath3">
        <path d="M30 -148 L30 0 L334 0 L334 -148 Z"/>
      </clipPath>
      <clipPath clipPathUnits="userSpaceOnUse" id="clipPath4">
        <path d="M404 -140 L404 -7 L571 -7 L571 -140 Z"/>
      </clipPath>
    </defs>
    <g fill="white" text-rendering="geometricPrecision" shape-rendering="geometricPrecision" transform="translate(-15,163)" stroke="white">
      <rect x="15" width="571" height="178" y="-163" clip-path="url(#clipPath2)" stroke="none"/>
    </g>
    <g fill="rgb(204,255,204)" text-rendering="geometricPrecision" shape-rendering="geometricPrecision" transform="matrix(1,0,0,1,-15,163)" stroke="rgb(204,255,204)">
      <rect x="31" width="302" height="146" y="-147" clip-path="url(#clipPath2)" stroke="none"/>
      <rect x="30" y="-148" clip-path="url(#clipPath2)" fill="white" width="1" height="148" stroke="none"/>
      <rect x="31" y="-148" clip-path="url(#clipPath2)" fill="white" width="302" height="1" stroke="none"/>
      <rect x="31" y="-1" clip-path="url(#clipPath2)" fill="rgb(142,178,142)" width="303" height="1" stroke="none"/>
      <rect x="333" y="-148" clip-path="url(#clipPath2)" fill="rgb(142,178,142)" width="1" height="147" stroke="none"/>
    </g>
    <g font-size="13px" stroke-linecap="butt" transform="matrix(1,0,0,1,-15,163)" text-rendering="geometricPrecision" font-family="sans-serif" shape-rendering="geometricPrecision" font-weight="bold" stroke-miterlimit="1.45">
      <text x="169.9617" xml:space="preserve" y="-130.4316" clip-path="url(#clipPath3)" stroke="none">Bus</text>
    </g>
    <g text-rendering="geometricPrecision" shape-rendering="geometricPrecision" transform="matrix(1,0,0,1,-15,163)">
      <line y2="-122" fill="none" x1="31" clip-path="url(#clipPath3)" x2="333" y1="-122"/>
      <line y2="-112" fill="none" x1="31" clip-path="url(#clipPath3)" x2="333" y1="-112"/>
      <text stroke-linecap="butt" x="35" y="-96.0879" clip-path="url(#clipPath3)" font-family="sans-serif" stroke="none" stroke-miterlimit="1.45" xml:space="preserve">+ Bus(seats : Seat[])</text>
      <text stroke-linecap="butt" x="35" y="-81.9551" clip-path="url(#clipPath3)" font-family="sans-serif" stroke="none" stroke-miterlimit="1.45" xml:space="preserve">+ getNumberOfSeats() : int</text>
      <text stroke-linecap="butt" x="35" y="-67.8223" clip-path="url(#clipPath3)" font-family="sans-serif" stroke="none" stroke-miterlimit="1.45" xml:space="preserve">+ replaceSeat(seatNumber : int, seat : Seat) : void</text>
      <text stroke-linecap="butt" x="35" y="-53.6895" clip-path="url(#clipPath3)" font-family="sans-serif" stroke="none" stroke-miterlimit="1.45" xml:space="preserve">+ getSeat(seatNumber : int)</text>
      <text stroke-linecap="butt" x="35" y="-39.5566" clip-path="url(#clipPath3)" font-family="sans-serif" stroke="none" stroke-miterlimit="1.45" xml:space="preserve">+ getNumberOfFreeSeats() : int</text>
      <text stroke-linecap="butt" x="35" y="-25.4238" clip-path="url(#clipPath3)" font-family="sans-serif" stroke="none" stroke-miterlimit="1.45" xml:space="preserve">+ sitOnSeat(seatNumber : int) : void</text>
      <text stroke-linecap="butt" x="35" y="-11.291" clip-path="url(#clipPath3)" font-family="sans-serif" stroke="none" stroke-miterlimit="1.45" xml:space="preserve">+ leaveSeat(seatNumber : int) : void</text>
      <rect x="405" y="-139" clip-path="url(#clipPath2)" fill="rgb(204,255,204)" width="165" height="131" stroke="none"/>
      <rect x="404" y="-140" clip-path="url(#clipPath2)" fill="white" width="1" height="133" stroke="none"/>
      <rect x="405" y="-140" clip-path="url(#clipPath2)" fill="white" width="165" height="1" stroke="none"/>
      <rect x="405" y="-8" clip-path="url(#clipPath2)" fill="rgb(142,178,142)" width="166" height="1" stroke="none"/>
      <rect x="570" y="-140" clip-path="url(#clipPath2)" fill="rgb(142,178,142)" width="1" height="132" stroke="none"/>
    </g>
    <g font-size="13px" stroke-linecap="butt" transform="matrix(1,0,0,1,-15,163)" text-rendering="geometricPrecision" font-family="sans-serif" shape-rendering="geometricPrecision" font-weight="bold" stroke-miterlimit="1.45">
      <text x="473.5225" xml:space="preserve" y="-122.9316" clip-path="url(#clipPath4)" stroke="none">Seat</text>
    </g>
    <g text-rendering="geometricPrecision" shape-rendering="geometricPrecision" transform="matrix(1,0,0,1,-15,163)">
      <line y2="-115" fill="none" x1="405" clip-path="url(#clipPath4)" x2="570" y1="-115"/>
      <text stroke-linecap="butt" x="409" y="-98.5879" clip-path="url(#clipPath4)" font-family="sans-serif" stroke="none" stroke-miterlimit="1.45" xml:space="preserve">+ seatNumber : int</text>
      <text stroke-linecap="butt" x="409" y="-84.4551" clip-path="url(#clipPath4)" font-family="sans-serif" stroke="none" stroke-miterlimit="1.45" xml:space="preserve">+ occupied : boolean</text>
      <line y2="-76" fill="none" x1="405" clip-path="url(#clipPath4)" x2="570" y1="-76"/>
      <text stroke-linecap="butt" x="409" y="-60.3223" clip-path="url(#clipPath4)" font-family="sans-serif" stroke="none" stroke-miterlimit="1.45" xml:space="preserve">+ Seat(seatNumber : int)</text>
      <text stroke-linecap="butt" x="409" y="-46.1895" clip-path="url(#clipPath4)" font-family="sans-serif" stroke="none" stroke-miterlimit="1.45" xml:space="preserve">+ occupy() : void</text>
      <text stroke-linecap="butt" x="409" y="-32.0566" clip-path="url(#clipPath4)" font-family="sans-serif" stroke="none" stroke-miterlimit="1.45" xml:space="preserve">+ leave() : void</text>
      <text stroke-linecap="butt" x="409" y="-17.9238" clip-path="url(#clipPath4)" font-family="sans-serif" stroke="none" stroke-miterlimit="1.45" xml:space="preserve">+ isOccupied() : boolean</text>
      <path fill="none" stroke-miterlimit="1.45" d="M341.0342 -74 L403.9659 -74" clip-path="url(#clipPath2)" stroke-linecap="butt"/>
    </g>
    <g stroke-linecap="butt" transform="matrix(1,0,0,1,-15,163)" fill="white" text-rendering="geometricPrecision" shape-rendering="geometricPrecision" stroke="white" stroke-miterlimit="1.45">
      <path d="M334.0342 -74 L341.0342 -79 L348.0342 -74 L341.0342 -69 Z" stroke="none" clip-path="url(#clipPath2)"/>
      <path fill="none" d="M334.0342 -74 L341.0342 -79 L348.0342 -74 L341.0342 -69 Z" clip-path="url(#clipPath2)" stroke="black"/>
      <text x="392.2168" y="-56.4648" clip-path="url(#clipPath2)" fill="black" font-family="sans-serif" stroke="none" xml:space="preserve">*</text>
    </g>
  </g>
</svg>
