<?xml version="1.0" encoding="UTF-8"?><svg xmlns="http://www.w3.org/2000/svg" xmlns:xlink="http://www.w3.org/1999/xlink" fill-opacity="1" color-rendering="auto" color-interpolation="auto" text-rendering="auto" stroke="black" stroke-linecap="square" width="1061" stroke-miterlimit="10" shape-rendering="auto" stroke-opacity="1" fill="black" stroke-dasharray="none" font-weight="normal" stroke-width="1" height="631" font-family="'Dialog'" font-style="normal" stroke-linejoin="miter" font-size="12px" stroke-dashoffset="0" image-rendering="auto">
  <!--Generated by ySVG 2.5-->
  <defs id="genericDefs"/>
  <g>
    <defs id="defs1">
      <clipPath clipPathUnits="userSpaceOnUse" id="clipPath1">
        <path d="M0 0 L1061 0 L1061 631 L0 631 L0 0 Z"/>
      </clipPath>
      <clipPath clipPathUnits="userSpaceOnUse" id="clipPath2">
        <path d="M-211 148 L850 148 L850 779 L-211 779 L-211 148 Z"/>
      </clipPath>
      <clipPath clipPathUnits="userSpaceOnUse" id="clipPath3">
        <path d="M23 163 L23 342 L269 342 L269 163 Z"/>
      </clipPath>
      <clipPath clipPathUnits="userSpaceOnUse" id="clipPath4">
        <path d="M-195 431 L-195 566 L120 566 L120 431 Z"/>
      </clipPath>
      <clipPath clipPathUnits="userSpaceOnUse" id="clipPath5">
        <path d="M177 431 L177 565 L492 565 L492 431 Z"/>
      </clipPath>
      <clipPath clipPathUnits="userSpaceOnUse" id="clipPath6">
        <path d="M370 645 L370 763 L834 763 L834 645 Z"/>
      </clipPath>
      <clipPath clipPathUnits="userSpaceOnUse" id="clipPath7">
        <path d="M-165 645 L-165 763 L299 763 L299 645 Z"/>
      </clipPath>
    </defs>
    <g fill="white" text-rendering="geometricPrecision" shape-rendering="geometricPrecision" transform="translate(211,-148)" stroke="white">
      <rect x="-211" width="1061" height="631" y="148" clip-path="url(#clipPath2)" stroke="none"/>
    </g>
    <g fill="rgb(204,255,204)" text-rendering="geometricPrecision" shape-rendering="geometricPrecision" transform="matrix(1,0,0,1,211,-148)" stroke="rgb(204,255,204)">
      <rect x="24" width="244" height="177" y="164" clip-path="url(#clipPath2)" stroke="none"/>
      <rect x="23" y="163" clip-path="url(#clipPath2)" fill="white" width="1" height="179" stroke="none"/>
      <rect x="24" y="163" clip-path="url(#clipPath2)" fill="white" width="244" height="1" stroke="none"/>
      <rect x="24" y="341" clip-path="url(#clipPath2)" fill="rgb(142,178,142)" width="245" height="1" stroke="none"/>
      <rect x="268" y="163" clip-path="url(#clipPath2)" fill="rgb(142,178,142)" width="1" height="178" stroke="none"/>
    </g>
    <g font-size="13px" stroke-linecap="butt" transform="matrix(1,0,0,1,211,-148)" text-rendering="geometricPrecision" font-family="sans-serif" shape-rendering="geometricPrecision" font-weight="bold" stroke-miterlimit="1.45">
      <text x="121.8853" xml:space="preserve" y="180.5684" clip-path="url(#clipPath3)" stroke="none">Vehicle</text>
    </g>
    <g text-rendering="geometricPrecision" shape-rendering="geometricPrecision" transform="matrix(1,0,0,1,211,-148)">
      <line y2="188" fill="none" x1="24" clip-path="url(#clipPath3)" x2="268" y1="188"/>
      <text stroke-linecap="butt" x="28" y="204.9121" clip-path="url(#clipPath3)" font-family="sans-serif" stroke="none" stroke-miterlimit="1.45" xml:space="preserve">- owner : String</text>
      <text stroke-linecap="butt" x="28" y="219.0449" clip-path="url(#clipPath3)" font-family="sans-serif" stroke="none" stroke-miterlimit="1.45" xml:space="preserve">- price : double</text>
      <line y2="226" fill="none" x1="24" clip-path="url(#clipPath3)" x2="268" y1="226"/>
      <text stroke-linecap="butt" x="28" y="243.1777" clip-path="url(#clipPath3)" font-family="sans-serif" stroke="none" stroke-miterlimit="1.45" xml:space="preserve">+ Vehicle(owner : String, price : double)</text>
      <text stroke-linecap="butt" x="28" y="257.3105" clip-path="url(#clipPath3)" font-family="sans-serif" stroke="none" stroke-miterlimit="1.45" xml:space="preserve">+ getOwner() : String</text>
      <text stroke-linecap="butt" x="28" y="271.4434" clip-path="url(#clipPath3)" font-family="sans-serif" stroke="none" stroke-miterlimit="1.45" xml:space="preserve">+ setOwner(owner : String) : void</text>
      <text stroke-linecap="butt" x="28" y="285.5762" clip-path="url(#clipPath3)" font-family="sans-serif" stroke="none" stroke-miterlimit="1.45" xml:space="preserve">+ getPrice() : double</text>
      <text stroke-linecap="butt" x="28" y="299.709" clip-path="url(#clipPath3)" font-family="sans-serif" stroke="none" stroke-miterlimit="1.45" xml:space="preserve">+ setPrice(price : double) : void</text>
      <text stroke-linecap="butt" x="28" y="313.8418" clip-path="url(#clipPath3)" font-family="sans-serif" stroke="none" stroke-miterlimit="1.45" xml:space="preserve">+ toString() : String</text>
      <text stroke-linecap="butt" x="28" y="327.9746" clip-path="url(#clipPath3)" font-family="sans-serif" stroke="none" stroke-miterlimit="1.45" xml:space="preserve">+ equals(obj : Object) : boolean</text>
      <rect x="-194" y="432" clip-path="url(#clipPath2)" fill="rgb(204,255,204)" width="313" height="133" stroke="none"/>
      <rect x="-195" y="431" clip-path="url(#clipPath2)" fill="white" width="1" height="135" stroke="none"/>
      <rect x="-194" y="431" clip-path="url(#clipPath2)" fill="white" width="313" height="1" stroke="none"/>
      <rect x="-194" y="565" clip-path="url(#clipPath2)" fill="rgb(142,178,142)" width="314" height="1" stroke="none"/>
      <rect x="119" y="431" clip-path="url(#clipPath2)" fill="rgb(142,178,142)" width="1" height="134" stroke="none"/>
    </g>
    <g font-size="13px" stroke-linecap="butt" transform="matrix(1,0,0,1,211,-148)" text-rendering="geometricPrecision" font-family="sans-serif" shape-rendering="geometricPrecision" font-weight="bold" stroke-miterlimit="1.45">
      <text x="-60.6722" xml:space="preserve" y="448.5684" clip-path="url(#clipPath4)" stroke="none">Bicycle</text>
    </g>
    <g text-rendering="geometricPrecision" shape-rendering="geometricPrecision" transform="matrix(1,0,0,1,211,-148)">
      <line y2="456" fill="none" x1="-194" clip-path="url(#clipPath4)" x2="119" y1="456"/>
      <text stroke-linecap="butt" x="-190.6667" y="472.9121" clip-path="url(#clipPath4)" font-family="sans-serif" stroke="none" stroke-miterlimit="1.45" xml:space="preserve">- gears : int</text>
      <line y2="480" fill="none" x1="-194" clip-path="url(#clipPath4)" x2="119" y1="480"/>
      <text stroke-linecap="butt" x="-190.6667" y="497.0449" clip-path="url(#clipPath4)" font-family="sans-serif" stroke="none" stroke-miterlimit="1.45" xml:space="preserve">+ Bicycle(owner : String, price : double, gears : int)</text>
      <text stroke-linecap="butt" x="-190.6667" y="511.1777" clip-path="url(#clipPath4)" font-family="sans-serif" stroke="none" stroke-miterlimit="1.45" xml:space="preserve">+ getGears() : int</text>
      <text stroke-linecap="butt" x="-190.6667" y="525.3105" clip-path="url(#clipPath4)" font-family="sans-serif" stroke="none" stroke-miterlimit="1.45" xml:space="preserve">+ setGears(gears : int) : void</text>
      <text stroke-linecap="butt" x="-190.6667" y="539.4434" clip-path="url(#clipPath4)" font-family="sans-serif" stroke="none" stroke-miterlimit="1.45" xml:space="preserve">+ toString() : String</text>
      <text stroke-linecap="butt" x="-190.6667" y="553.5762" clip-path="url(#clipPath4)" font-family="sans-serif" stroke="none" stroke-miterlimit="1.45" xml:space="preserve">+ equals(obj : Object) : boolean</text>
      <rect x="178" y="432" clip-path="url(#clipPath2)" fill="rgb(204,255,204)" width="313" height="132" stroke="none"/>
      <rect x="177" y="431" clip-path="url(#clipPath2)" fill="white" width="1" height="134" stroke="none"/>
      <rect x="178" y="431" clip-path="url(#clipPath2)" fill="white" width="313" height="1" stroke="none"/>
      <rect x="178" y="564" clip-path="url(#clipPath2)" fill="rgb(142,178,142)" width="314" height="1" stroke="none"/>
      <rect x="491" y="431" clip-path="url(#clipPath2)" fill="rgb(142,178,142)" width="1" height="133" stroke="none"/>
    </g>
    <g font-size="13px" stroke-linecap="butt" transform="matrix(1,0,0,1,211,-148)" text-rendering="geometricPrecision" font-family="sans-serif" shape-rendering="geometricPrecision" font-weight="bold" stroke-miterlimit="1.45">
      <text x="323.7599" xml:space="preserve" y="448.5684" clip-path="url(#clipPath5)" stroke="none">Car</text>
    </g>
    <g text-rendering="geometricPrecision" shape-rendering="geometricPrecision" transform="matrix(1,0,0,1,211,-148)">
      <line y2="456" fill="none" x1="178" clip-path="url(#clipPath5)" x2="492" y1="456"/>
      <text stroke-linecap="butt" x="182.3333" y="472.9121" clip-path="url(#clipPath5)" font-family="sans-serif" stroke="none" stroke-miterlimit="1.45" xml:space="preserve">- regNo : String</text>
      <line y2="480" fill="none" x1="178" clip-path="url(#clipPath5)" x2="492" y1="480"/>
      <text stroke-linecap="butt" x="182.3333" y="497.0449" clip-path="url(#clipPath5)" font-family="sans-serif" stroke="none" stroke-miterlimit="1.45" xml:space="preserve">+ Car(owner : String, price : double, regNo : String)</text>
      <text stroke-linecap="butt" x="182.3333" y="511.1777" clip-path="url(#clipPath5)" font-family="sans-serif" stroke="none" stroke-miterlimit="1.45" xml:space="preserve">+ getRegistrationNumber() : String</text>
      <text stroke-linecap="butt" x="182.3333" y="525.3105" clip-path="url(#clipPath5)" font-family="sans-serif" stroke="none" stroke-miterlimit="1.45" xml:space="preserve">+ setRegistrationNumber(regNo : String) : void</text>
      <text stroke-linecap="butt" x="182.3333" y="539.4434" clip-path="url(#clipPath5)" font-family="sans-serif" stroke="none" stroke-miterlimit="1.45" xml:space="preserve">+ toString() : String</text>
      <text stroke-linecap="butt" x="182.3333" y="553.5762" clip-path="url(#clipPath5)" font-family="sans-serif" stroke="none" stroke-miterlimit="1.45" xml:space="preserve">+ equals(obj : Object) : boolean</text>
      <rect x="371" y="646" clip-path="url(#clipPath2)" fill="rgb(204,255,204)" width="462" height="116" stroke="none"/>
      <rect x="370" y="645" clip-path="url(#clipPath2)" fill="white" width="1" height="118" stroke="none"/>
      <rect x="371" y="645" clip-path="url(#clipPath2)" fill="white" width="462" height="1" stroke="none"/>
      <rect x="371" y="762" clip-path="url(#clipPath2)" fill="rgb(142,178,142)" width="463" height="1" stroke="none"/>
      <rect x="833" y="645" clip-path="url(#clipPath2)" fill="rgb(142,178,142)" width="1" height="117" stroke="none"/>
    </g>
    <g font-size="13px" stroke-linecap="butt" transform="matrix(1,0,0,1,211,-148)" text-rendering="geometricPrecision" font-family="sans-serif" shape-rendering="geometricPrecision" font-weight="bold" stroke-miterlimit="1.45">
      <text x="590.0349" xml:space="preserve" y="662.5684" clip-path="url(#clipPath6)" stroke="none">Van</text>
    </g>
    <g text-rendering="geometricPrecision" shape-rendering="geometricPrecision" transform="matrix(1,0,0,1,211,-148)">
      <line y2="670" fill="none" x1="371" clip-path="url(#clipPath6)" x2="834" y1="670"/>
      <text stroke-linecap="butt" x="375.3333" y="686.9121" clip-path="url(#clipPath6)" font-family="sans-serif" stroke="none" stroke-miterlimit="1.45" xml:space="preserve">- maxLoad : int</text>
      <line y2="694" fill="none" x1="371" clip-path="url(#clipPath6)" x2="834" y1="694"/>
      <text stroke-linecap="butt" x="375.3333" y="711.0449" clip-path="url(#clipPath6)" font-family="sans-serif" stroke="none" stroke-miterlimit="1.45" xml:space="preserve">+ Van(owner : String, price : double, regNo : String, maxLoad : int)</text>
      <text stroke-linecap="butt" x="375.3333" y="725.1777" clip-path="url(#clipPath6)" font-family="sans-serif" stroke="none" stroke-miterlimit="1.45" xml:space="preserve">+ getMaxLoad() : int</text>
      <text stroke-linecap="butt" x="375.3333" y="739.3105" clip-path="url(#clipPath6)" font-family="sans-serif" stroke="none" stroke-miterlimit="1.45" xml:space="preserve">+ toString() : String</text>
      <text stroke-linecap="butt" x="375.3333" y="753.4434" clip-path="url(#clipPath6)" font-family="sans-serif" stroke="none" stroke-miterlimit="1.45" xml:space="preserve">+ equals(obj : Object) : boolean</text>
      <rect x="-164" y="646" clip-path="url(#clipPath2)" fill="rgb(204,255,204)" width="462" height="116" stroke="none"/>
      <rect x="-165" y="645" clip-path="url(#clipPath2)" fill="white" width="1" height="118" stroke="none"/>
      <rect x="-164" y="645" clip-path="url(#clipPath2)" fill="white" width="462" height="1" stroke="none"/>
      <rect x="-164" y="762" clip-path="url(#clipPath2)" fill="rgb(142,178,142)" width="463" height="1" stroke="none"/>
      <rect x="298" y="645" clip-path="url(#clipPath2)" fill="rgb(142,178,142)" width="1" height="117" stroke="none"/>
    </g>
    <g font-size="13px" stroke-linecap="butt" transform="matrix(1,0,0,1,211,-148)" text-rendering="geometricPrecision" font-family="sans-serif" shape-rendering="geometricPrecision" font-weight="bold" stroke-miterlimit="1.45">
      <text x="33.8239" xml:space="preserve" y="662.5684" clip-path="url(#clipPath7)" stroke="none">SportsCar</text>
    </g>
    <g text-rendering="geometricPrecision" shape-rendering="geometricPrecision" transform="matrix(1,0,0,1,211,-148)">
      <line y2="670" fill="none" x1="-164" clip-path="url(#clipPath7)" x2="298" y1="670"/>
      <text stroke-linecap="butt" x="-160.6667" y="686.9121" clip-path="url(#clipPath7)" font-family="sans-serif" stroke="none" stroke-miterlimit="1.45" xml:space="preserve">- maxVelocity : int</text>
      <line y2="694" fill="none" x1="-164" clip-path="url(#clipPath7)" x2="298" y1="694"/>
      <text stroke-linecap="butt" x="-160.6667" y="711.0449" clip-path="url(#clipPath7)" font-family="sans-serif" stroke="none" stroke-miterlimit="1.45" xml:space="preserve">+ SportsCar(owner : String, price : double, regNo : String, maxVelocity : int)</text>
      <text stroke-linecap="butt" x="-160.6667" y="725.1777" clip-path="url(#clipPath7)" font-family="sans-serif" stroke="none" stroke-miterlimit="1.45" xml:space="preserve">+ getMaxVelocity() : int</text>
      <text stroke-linecap="butt" x="-160.6667" y="739.3105" clip-path="url(#clipPath7)" font-family="sans-serif" stroke="none" stroke-miterlimit="1.45" xml:space="preserve">+ toString() : String</text>
      <text stroke-linecap="butt" x="-160.6667" y="753.4434" clip-path="url(#clipPath7)" font-family="sans-serif" stroke="none" stroke-miterlimit="1.45" xml:space="preserve">+ equals(obj : Object) : boolean</text>
      <path fill="none" stroke-miterlimit="1.45" d="M-37.8333 430.989 L-37.8333 379.6667 L146 379.6667 L146 357.0072" clip-path="url(#clipPath2)" stroke-linecap="butt"/>
    </g>
    <g stroke-linecap="butt" transform="matrix(1,0,0,1,211,-148)" fill="white" text-rendering="geometricPrecision" shape-rendering="geometricPrecision" stroke="white" stroke-miterlimit="1.45">
      <path d="M146 342.0072 L140 358.0072 L152 358.0072 Z" stroke="none" clip-path="url(#clipPath2)"/>
      <path fill="none" d="M146 342.0072 L140 358.0072 L152 358.0072 Z" clip-path="url(#clipPath2)" stroke="black"/>
      <path fill="none" d="M335.1667 430.989 L335.1667 379.6667 L146 379.6667 L146 357.0072" clip-path="url(#clipPath2)" stroke="black"/>
      <path d="M146 342.0072 L140 358.0072 L152 358.0072 Z" clip-path="url(#clipPath2)" stroke="none"/>
      <path fill="none" d="M146 342.0072 L140 358.0072 L152 358.0072 Z" clip-path="url(#clipPath2)" stroke="black"/>
      <path fill="none" d="M602.6667 644.9687 L602.6667 612.6667 L335.1667 612.6667 L335.1667 580.9799" clip-path="url(#clipPath2)" stroke="black"/>
      <path d="M335.1667 565.9799 L329.1667 581.9799 L341.1667 581.9799 Z" clip-path="url(#clipPath2)" stroke="none"/>
      <path fill="none" d="M335.1667 565.9799 L329.1667 581.9799 L341.1667 581.9799 Z" clip-path="url(#clipPath2)" stroke="black"/>
      <path fill="none" d="M66.6667 644.9687 L66.6667 612.6667 L335.1667 612.6667 L335.1667 611.6667 L335.1667 580.9966" clip-path="url(#clipPath2)" stroke="black"/>
      <path d="M335.1667 565.9966 L329.1667 581.9966 L341.1667 581.9966 Z" clip-path="url(#clipPath2)" stroke="none"/>
      <path fill="none" d="M335.1667 565.9966 L329.1667 581.9966 L341.1667 581.9966 Z" clip-path="url(#clipPath2)" stroke="black"/>
    </g>
  </g>
</svg>
