<?xml version="1.0" encoding="UTF-8"?><svg xmlns="http://www.w3.org/2000/svg" xmlns:xlink="http://www.w3.org/1999/xlink" fill-opacity="1" color-rendering="auto" color-interpolation="auto" text-rendering="auto" stroke="black" stroke-linecap="square" width="800" stroke-miterlimit="10" shape-rendering="auto" stroke-opacity="1" fill="black" stroke-dasharray="none" font-weight="normal" stroke-width="1" height="367" font-family="'Dialog'" font-style="normal" stroke-linejoin="miter" font-size="12px" stroke-dashoffset="0" image-rendering="auto">
  <!--Generated by ySVG 2.5-->
  <defs id="genericDefs"/>
  <g>
    <defs id="defs1">
      <clipPath clipPathUnits="userSpaceOnUse" id="clipPath1">
        <path d="M0 0 L800 0 L800 367 L0 367 L0 0 Z"/>
      </clipPath>
      <clipPath clipPathUnits="userSpaceOnUse" id="clipPath2">
        <path d="M-275 186 L525 186 L525 553 L-275 553 L-275 186 Z"/>
      </clipPath>
      <clipPath clipPathUnits="userSpaceOnUse" id="clipPath3">
        <path d="M86 201 L86 272 L186 272 L186 201 Z"/>
      </clipPath>
      <clipPath clipPathUnits="userSpaceOnUse" id="clipPath4">
        <path d="M299 334 L299 405 L399 405 L399 334 Z"/>
      </clipPath>
      <clipPath clipPathUnits="userSpaceOnUse" id="clipPath5">
        <path d="M-130 334 L-130 405 L-30 405 L-30 334 Z"/>
      </clipPath>
      <clipPath clipPathUnits="userSpaceOnUse" id="clipPath6">
        <path d="M0 467 L0 538 L157 538 L157 467 Z"/>
      </clipPath>
      <clipPath clipPathUnits="userSpaceOnUse" id="clipPath7">
        <path d="M-130 467 L-130 538 L-30 538 L-30 467 Z"/>
      </clipPath>
      <clipPath clipPathUnits="userSpaceOnUse" id="clipPath8">
        <path d="M-260 467 L-260 538 L-160 538 L-160 467 Z"/>
      </clipPath>
      <clipPath clipPathUnits="userSpaceOnUse" id="clipPath9">
        <path d="M365 467 L365 538 L509 538 L509 467 Z"/>
      </clipPath>
      <clipPath clipPathUnits="userSpaceOnUse" id="clipPath10">
        <path d="M200 467 L200 538 L344 538 L344 467 Z"/>
      </clipPath>
    </defs>
    <g fill="white" text-rendering="geometricPrecision" shape-rendering="geometricPrecision" transform="translate(275,-186)" stroke="white">
      <rect x="-275" width="800" height="367" y="186" clip-path="url(#clipPath2)" stroke="none"/>
    </g>
    <g fill="rgb(204,255,204)" text-rendering="geometricPrecision" shape-rendering="geometricPrecision" transform="matrix(1,0,0,1,275,-186)" stroke="rgb(204,255,204)">
      <rect x="87" width="98" height="69" y="202" clip-path="url(#clipPath2)" stroke="none"/>
      <rect x="86" y="201" clip-path="url(#clipPath2)" fill="white" width="1" height="71" stroke="none"/>
      <rect x="87" y="201" clip-path="url(#clipPath2)" fill="white" width="98" height="1" stroke="none"/>
      <rect x="87" y="271" clip-path="url(#clipPath2)" fill="rgb(142,178,142)" width="99" height="1" stroke="none"/>
      <rect x="185" y="201" clip-path="url(#clipPath2)" fill="rgb(142,178,142)" width="1" height="70" stroke="none"/>
    </g>
    <g font-size="13px" stroke-linecap="butt" transform="matrix(1,0,0,1,275,-186)" text-rendering="geometricPrecision" font-family="sans-serif" shape-rendering="geometricPrecision" font-weight="bold" stroke-miterlimit="1.45">
      <text x="113.1548" xml:space="preserve" y="218.5684" clip-path="url(#clipPath3)" stroke="none">Person</text>
    </g>
    <g text-rendering="geometricPrecision" shape-rendering="geometricPrecision" transform="matrix(1,0,0,1,275,-186)">
      <line y2="226" fill="none" x1="87" clip-path="url(#clipPath3)" x2="185" y1="226"/>
      <text stroke-linecap="butt" x="91" y="242.9121" clip-path="url(#clipPath3)" font-family="sans-serif" stroke="none" stroke-miterlimit="1.45" xml:space="preserve"> </text>
      <line y2="250" fill="none" x1="87" clip-path="url(#clipPath3)" x2="185" y1="250"/>
      <text stroke-linecap="butt" x="91" y="267.0449" clip-path="url(#clipPath3)" font-family="sans-serif" stroke="none" stroke-miterlimit="1.45" xml:space="preserve"> </text>
      <rect x="300" y="335" clip-path="url(#clipPath2)" fill="rgb(204,255,204)" width="98" height="69" stroke="none"/>
      <rect x="299" y="334" clip-path="url(#clipPath2)" fill="white" width="1" height="71" stroke="none"/>
      <rect x="300" y="334" clip-path="url(#clipPath2)" fill="white" width="98" height="1" stroke="none"/>
      <rect x="300" y="404" clip-path="url(#clipPath2)" fill="rgb(142,178,142)" width="99" height="1" stroke="none"/>
      <rect x="398" y="334" clip-path="url(#clipPath2)" fill="rgb(142,178,142)" width="1" height="70" stroke="none"/>
    </g>
    <g font-size="13px" stroke-linecap="butt" transform="matrix(1,0,0,1,275,-186)" text-rendering="geometricPrecision" font-family="sans-serif" shape-rendering="geometricPrecision" font-weight="bold" stroke-miterlimit="1.45">
      <text x="326.1548" xml:space="preserve" y="351.5684" clip-path="url(#clipPath4)" stroke="none">Student</text>
    </g>
    <g text-rendering="geometricPrecision" shape-rendering="geometricPrecision" transform="matrix(1,0,0,1,275,-186)">
      <line y2="359" fill="none" x1="300" clip-path="url(#clipPath4)" x2="398" y1="359"/>
      <text stroke-linecap="butt" x="304" y="375.9121" clip-path="url(#clipPath4)" font-family="sans-serif" stroke="none" stroke-miterlimit="1.45" xml:space="preserve"> </text>
      <line y2="383" fill="none" x1="300" clip-path="url(#clipPath4)" x2="398" y1="383"/>
      <text stroke-linecap="butt" x="304" y="400.0449" clip-path="url(#clipPath4)" font-family="sans-serif" stroke="none" stroke-miterlimit="1.45" xml:space="preserve"> </text>
      <rect x="-129" y="335" clip-path="url(#clipPath2)" fill="rgb(204,255,204)" width="98" height="69" stroke="none"/>
      <rect x="-130" y="334" clip-path="url(#clipPath2)" fill="white" width="1" height="71" stroke="none"/>
      <rect x="-129" y="334" clip-path="url(#clipPath2)" fill="white" width="98" height="1" stroke="none"/>
      <rect x="-129" y="404" clip-path="url(#clipPath2)" fill="rgb(142,178,142)" width="99" height="1" stroke="none"/>
      <rect x="-31" y="334" clip-path="url(#clipPath2)" fill="rgb(142,178,142)" width="1" height="70" stroke="none"/>
    </g>
    <g font-size="13px" stroke-linecap="butt" transform="matrix(1,0,0,1,275,-186)" text-rendering="geometricPrecision" font-family="sans-serif" shape-rendering="geometricPrecision" font-weight="bold" stroke-miterlimit="1.45">
      <text x="-112.1858" xml:space="preserve" y="351.5684" clip-path="url(#clipPath5)" stroke="none">Employee</text>
    </g>
    <g text-rendering="geometricPrecision" shape-rendering="geometricPrecision" transform="matrix(1,0,0,1,275,-186)">
      <line y2="359" fill="none" x1="-129" clip-path="url(#clipPath5)" x2="-31" y1="359"/>
      <text stroke-linecap="butt" x="-125" y="375.9121" clip-path="url(#clipPath5)" font-family="sans-serif" stroke="none" stroke-miterlimit="1.45" xml:space="preserve"> </text>
      <line y2="383" fill="none" x1="-129" clip-path="url(#clipPath5)" x2="-31" y1="383"/>
      <text stroke-linecap="butt" x="-125" y="400.0449" clip-path="url(#clipPath5)" font-family="sans-serif" stroke="none" stroke-miterlimit="1.45" xml:space="preserve"> </text>
      <rect x="1" y="468" clip-path="url(#clipPath2)" fill="rgb(204,255,204)" width="155" height="69" stroke="none"/>
      <rect x="0" y="467" clip-path="url(#clipPath2)" fill="white" width="1" height="71" stroke="none"/>
      <rect x="1" y="467" clip-path="url(#clipPath2)" fill="white" width="155" height="1" stroke="none"/>
      <rect x="1" y="537" clip-path="url(#clipPath2)" fill="rgb(142,178,142)" width="156" height="1" stroke="none"/>
      <rect x="156" y="467" clip-path="url(#clipPath2)" fill="rgb(142,178,142)" width="1" height="70" stroke="none"/>
    </g>
    <g font-size="13px" stroke-linecap="butt" transform="matrix(1,0,0,1,275,-186)" text-rendering="geometricPrecision" font-family="sans-serif" shape-rendering="geometricPrecision" font-weight="bold" stroke-miterlimit="1.45">
      <text x="13.7507" xml:space="preserve" y="484.5684" clip-path="url(#clipPath6)" stroke="none">HeadOfDepartment</text>
    </g>
    <g text-rendering="geometricPrecision" shape-rendering="geometricPrecision" transform="matrix(1,0,0,1,275,-186)">
      <line y2="492" fill="none" x1="1" clip-path="url(#clipPath6)" x2="156" y1="492"/>
      <text stroke-linecap="butt" x="5" y="508.9121" clip-path="url(#clipPath6)" font-family="sans-serif" stroke="none" stroke-miterlimit="1.45" xml:space="preserve"> </text>
      <line y2="516" fill="none" x1="1" clip-path="url(#clipPath6)" x2="156" y1="516"/>
      <text stroke-linecap="butt" x="5" y="533.0449" clip-path="url(#clipPath6)" font-family="sans-serif" stroke="none" stroke-miterlimit="1.45" xml:space="preserve"> </text>
      <rect x="-129" y="468" clip-path="url(#clipPath2)" fill="rgb(204,255,204)" width="98" height="69" stroke="none"/>
      <rect x="-130" y="467" clip-path="url(#clipPath2)" fill="white" width="1" height="71" stroke="none"/>
      <rect x="-129" y="467" clip-path="url(#clipPath2)" fill="white" width="98" height="1" stroke="none"/>
      <rect x="-129" y="537" clip-path="url(#clipPath2)" fill="rgb(142,178,142)" width="99" height="1" stroke="none"/>
      <rect x="-31" y="467" clip-path="url(#clipPath2)" fill="rgb(142,178,142)" width="1" height="70" stroke="none"/>
    </g>
    <g font-size="13px" stroke-linecap="butt" transform="matrix(1,0,0,1,275,-186)" text-rendering="geometricPrecision" font-family="sans-serif" shape-rendering="geometricPrecision" font-weight="bold" stroke-miterlimit="1.45">
      <text x="-119.7395" xml:space="preserve" y="484.5684" clip-path="url(#clipPath7)" stroke="none">ITSupporter</text>
    </g>
    <g text-rendering="geometricPrecision" shape-rendering="geometricPrecision" transform="matrix(1,0,0,1,275,-186)">
      <line y2="492" fill="none" x1="-129" clip-path="url(#clipPath7)" x2="-31" y1="492"/>
      <text stroke-linecap="butt" x="-125" y="508.9121" clip-path="url(#clipPath7)" font-family="sans-serif" stroke="none" stroke-miterlimit="1.45" xml:space="preserve"> </text>
      <line y2="516" fill="none" x1="-129" clip-path="url(#clipPath7)" x2="-31" y1="516"/>
      <text stroke-linecap="butt" x="-125" y="533.0449" clip-path="url(#clipPath7)" font-family="sans-serif" stroke="none" stroke-miterlimit="1.45" xml:space="preserve"> </text>
      <rect x="-259" y="468" clip-path="url(#clipPath2)" fill="rgb(204,255,204)" width="98" height="69" stroke="none"/>
      <rect x="-260" y="467" clip-path="url(#clipPath2)" fill="white" width="1" height="71" stroke="none"/>
      <rect x="-259" y="467" clip-path="url(#clipPath2)" fill="white" width="98" height="1" stroke="none"/>
      <rect x="-259" y="537" clip-path="url(#clipPath2)" fill="rgb(142,178,142)" width="99" height="1" stroke="none"/>
      <rect x="-161" y="467" clip-path="url(#clipPath2)" fill="rgb(142,178,142)" width="1" height="70" stroke="none"/>
    </g>
    <g font-size="13px" stroke-linecap="butt" transform="matrix(1,0,0,1,275,-186)" text-rendering="geometricPrecision" font-family="sans-serif" shape-rendering="geometricPrecision" font-weight="bold" stroke-miterlimit="1.45">
      <text x="-236.6062" xml:space="preserve" y="484.5684" clip-path="url(#clipPath8)" stroke="none">Teacher</text>
    </g>
    <g text-rendering="geometricPrecision" shape-rendering="geometricPrecision" transform="matrix(1,0,0,1,275,-186)">
      <line y2="492" fill="none" x1="-259" clip-path="url(#clipPath8)" x2="-161" y1="492"/>
      <text stroke-linecap="butt" x="-255" y="508.9121" clip-path="url(#clipPath8)" font-family="sans-serif" stroke="none" stroke-miterlimit="1.45" xml:space="preserve"> </text>
      <line y2="516" fill="none" x1="-259" clip-path="url(#clipPath8)" x2="-161" y1="516"/>
      <text stroke-linecap="butt" x="-255" y="533.0449" clip-path="url(#clipPath8)" font-family="sans-serif" stroke="none" stroke-miterlimit="1.45" xml:space="preserve"> </text>
      <rect x="366" y="468" clip-path="url(#clipPath2)" fill="rgb(204,255,204)" width="142" height="69" stroke="none"/>
      <rect x="365" y="467" clip-path="url(#clipPath2)" fill="white" width="1" height="71" stroke="none"/>
      <rect x="366" y="467" clip-path="url(#clipPath2)" fill="white" width="142" height="1" stroke="none"/>
      <rect x="366" y="537" clip-path="url(#clipPath2)" fill="rgb(142,178,142)" width="143" height="1" stroke="none"/>
      <rect x="508" y="467" clip-path="url(#clipPath2)" fill="rgb(142,178,142)" width="1" height="70" stroke="none"/>
    </g>
    <g font-size="13px" stroke-linecap="butt" transform="matrix(1,0,0,1,275,-186)" text-rendering="geometricPrecision" font-family="sans-serif" shape-rendering="geometricPrecision" font-weight="bold" stroke-miterlimit="1.45">
      <text x="380.0394" xml:space="preserve" y="484.5684" clip-path="url(#clipPath9)" stroke="none">ExchangeStudent</text>
    </g>
    <g text-rendering="geometricPrecision" shape-rendering="geometricPrecision" transform="matrix(1,0,0,1,275,-186)">
      <line y2="492" fill="none" x1="366" clip-path="url(#clipPath9)" x2="508" y1="492"/>
      <text stroke-linecap="butt" x="370.3333" y="508.9121" clip-path="url(#clipPath9)" font-family="sans-serif" stroke="none" stroke-miterlimit="1.45" xml:space="preserve"> </text>
      <line y2="516" fill="none" x1="366" clip-path="url(#clipPath9)" x2="508" y1="516"/>
      <text stroke-linecap="butt" x="370.3333" y="533.0449" clip-path="url(#clipPath9)" font-family="sans-serif" stroke="none" stroke-miterlimit="1.45" xml:space="preserve"> </text>
      <rect x="201" y="468" clip-path="url(#clipPath2)" fill="rgb(204,255,204)" width="142" height="69" stroke="none"/>
      <rect x="200" y="467" clip-path="url(#clipPath2)" fill="white" width="1" height="71" stroke="none"/>
      <rect x="201" y="467" clip-path="url(#clipPath2)" fill="white" width="142" height="1" stroke="none"/>
      <rect x="201" y="537" clip-path="url(#clipPath2)" fill="rgb(142,178,142)" width="143" height="1" stroke="none"/>
      <rect x="343" y="467" clip-path="url(#clipPath2)" fill="rgb(142,178,142)" width="1" height="70" stroke="none"/>
    </g>
    <g font-size="13px" stroke-linecap="butt" transform="matrix(1,0,0,1,275,-186)" text-rendering="geometricPrecision" font-family="sans-serif" shape-rendering="geometricPrecision" font-weight="bold" stroke-miterlimit="1.45">
      <text x="210.6468" xml:space="preserve" y="484.5684" clip-path="url(#clipPath10)" stroke="none">FullDegreeStudent</text>
    </g>
    <g text-rendering="geometricPrecision" shape-rendering="geometricPrecision" transform="matrix(1,0,0,1,275,-186)">
      <line y2="492" fill="none" x1="201" clip-path="url(#clipPath10)" x2="343" y1="492"/>
      <text stroke-linecap="butt" x="205.3333" y="508.9121" clip-path="url(#clipPath10)" font-family="sans-serif" stroke="none" stroke-miterlimit="1.45" xml:space="preserve"> </text>
      <line y2="516" fill="none" x1="201" clip-path="url(#clipPath10)" x2="343" y1="516"/>
      <text stroke-linecap="butt" x="205.3333" y="533.0449" clip-path="url(#clipPath10)" font-family="sans-serif" stroke="none" stroke-miterlimit="1.45" xml:space="preserve"> </text>
      <path fill="none" stroke-miterlimit="1.45" d="M349 334.0061 L349 305 L136 305 L136 286.9875" clip-path="url(#clipPath2)" stroke-linecap="butt"/>
    </g>
    <g stroke-linecap="butt" transform="matrix(1,0,0,1,275,-186)" fill="white" text-rendering="geometricPrecision" shape-rendering="geometricPrecision" stroke="white" stroke-miterlimit="1.45">
      <path d="M136 271.9875 L130 287.9875 L142 287.9875 Z" stroke="none" clip-path="url(#clipPath2)"/>
      <path fill="none" d="M136 271.9875 L130 287.9875 L142 287.9875 Z" clip-path="url(#clipPath2)" stroke="black"/>
      <path fill="none" d="M-80 334.0061 L-80 305 L136 305 L136 304 L136 286.9968" clip-path="url(#clipPath2)" stroke="black"/>
      <path d="M136 271.9968 L130 287.9968 L142 287.9968 Z" clip-path="url(#clipPath2)" stroke="none"/>
      <path fill="none" d="M136 271.9968 L130 287.9968 L142 287.9968 Z" clip-path="url(#clipPath2)" stroke="black"/>
      <path fill="none" d="M78.5 466.9695 L78.5 433 L-80 433 L-80 420.0017" clip-path="url(#clipPath2)" stroke="black"/>
      <path d="M-80 405.0017 L-86 421.0017 L-74 421.0017 Z" clip-path="url(#clipPath2)" stroke="none"/>
      <path fill="none" d="M-80 405.0017 L-86 421.0017 L-74 421.0017 Z" clip-path="url(#clipPath2)" stroke="black"/>
      <path fill="none" d="M-80 467.0095 L-80 419.971" clip-path="url(#clipPath2)" stroke="black"/>
      <path d="M-80 404.971 L-86 420.971 L-74 420.971 Z" clip-path="url(#clipPath2)" stroke="none"/>
      <path fill="none" d="M-80 404.971 L-86 420.971 L-74 420.971 Z" clip-path="url(#clipPath2)" stroke="black"/>
      <path fill="none" d="M-210 466.9695 L-210 433 L-80 433 L-80 420.0017" clip-path="url(#clipPath2)" stroke="black"/>
      <path d="M-80 405.0017 L-86 421.0017 L-74 421.0017 Z" clip-path="url(#clipPath2)" stroke="none"/>
      <path fill="none" d="M-80 405.0017 L-86 421.0017 L-74 421.0017 Z" clip-path="url(#clipPath2)" stroke="black"/>
      <path fill="none" d="M437.3333 466.9934 L437.3333 430 L349 430 L349 419.9788" clip-path="url(#clipPath2)" stroke="black"/>
      <path d="M349 404.9788 L343 420.9788 L355 420.9788 Z" clip-path="url(#clipPath2)" stroke="none"/>
      <path fill="none" d="M349 404.9788 L343 420.9788 L355 420.9788 Z" clip-path="url(#clipPath2)" stroke="black"/>
      <path fill="none" d="M272.3333 466.9934 L272.3333 430 L349 430 L349 419.9788" clip-path="url(#clipPath2)" stroke="black"/>
      <path d="M349 404.9788 L343 420.9788 L355 420.9788 Z" clip-path="url(#clipPath2)" stroke="none"/>
      <path fill="none" d="M349 404.9788 L343 420.9788 L355 420.9788 Z" clip-path="url(#clipPath2)" stroke="black"/>
    </g>
  </g>
</svg>
