<?xml version="1.0" encoding="UTF-8"?><svg xmlns="http://www.w3.org/2000/svg" xmlns:xlink="http://www.w3.org/1999/xlink" fill-opacity="1" color-rendering="auto" color-interpolation="auto" text-rendering="auto" stroke="black" stroke-linecap="square" width="980" stroke-miterlimit="10" shape-rendering="auto" stroke-opacity="1" fill="black" stroke-dasharray="none" font-weight="normal" stroke-width="1" height="681" font-family="'Dialog'" font-style="normal" stroke-linejoin="miter" font-size="12px" stroke-dashoffset="0" image-rendering="auto">
  <!--Generated by ySVG 2.5-->
  <defs id="genericDefs"/>
  <g>
    <defs id="defs1">
      <clipPath clipPathUnits="userSpaceOnUse" id="clipPath1">
        <path d="M0 0 L980 0 L980 681 L0 681 L0 0 Z"/>
      </clipPath>
      <clipPath clipPathUnits="userSpaceOnUse" id="clipPath2">
        <path d="M10 -666 L990 -666 L990 15 L10 15 L10 -666 Z"/>
      </clipPath>
      <clipPath clipPathUnits="userSpaceOnUse" id="clipPath3">
        <path d="M25 -651 L25 -500 L380 -500 L380 -651 Z"/>
      </clipPath>
      <clipPath clipPathUnits="userSpaceOnUse" id="clipPath4">
        <path d="M128 -404 L128 -185 L425 -185 L425 -404 Z"/>
      </clipPath>
      <clipPath clipPathUnits="userSpaceOnUse" id="clipPath5">
        <path d="M0 0 L0 18 L67 18 L67 0 Z"/>
      </clipPath>
      <clipPath clipPathUnits="userSpaceOnUse" id="clipPath6">
        <path d="M0 0 L0 128 L287 128 L287 0 Z"/>
      </clipPath>
      <clipPath clipPathUnits="userSpaceOnUse" id="clipPath7">
        <path d="M674 -636 L674 -514 L910 -514 L910 -636 Z"/>
      </clipPath>
      <clipPath clipPathUnits="userSpaceOnUse" id="clipPath8">
        <path d="M729 -395 L729 -194 L974 -194 L974 -395 Z"/>
      </clipPath>
      <clipPath clipPathUnits="userSpaceOnUse" id="clipPath9">
        <path d="M0 0 L0 112 L227 112 L227 0 Z"/>
      </clipPath>
      <clipPath clipPathUnits="userSpaceOnUse" id="clipPath10">
        <path d="M100 -84 L100 -5 L302 -5 L302 -84 Z"/>
      </clipPath>
      <clipPath clipPathUnits="userSpaceOnUse" id="clipPath11">
        <path d="M322 -89 L322 0 L668 0 L668 -89 Z"/>
      </clipPath>
    </defs>
    <g fill="rgb(204,255,204)" text-rendering="geometricPrecision" shape-rendering="geometricPrecision" transform="matrix(1,0,0,1,-10,666)" stroke="rgb(204,255,204)">
      <rect x="26" width="353" height="149" y="-650" clip-path="url(#clipPath2)" stroke="none"/>
    </g>
    <g fill="white" text-rendering="geometricPrecision" shape-rendering="geometricPrecision" transform="matrix(1,0,0,1,-10,666)" stroke="white">
      <rect x="25" width="1" height="151" y="-651" clip-path="url(#clipPath2)" stroke="none"/>
      <rect x="26" width="353" height="1" y="-651" clip-path="url(#clipPath2)" stroke="none"/>
      <rect x="26" y="-501" clip-path="url(#clipPath2)" fill="rgb(142,178,142)" width="354" height="1" stroke="none"/>
      <rect x="379" y="-651" clip-path="url(#clipPath2)" fill="rgb(142,178,142)" width="1" height="150" stroke="none"/>
    </g>
    <g font-size="13px" stroke-linecap="butt" transform="matrix(1,0,0,1,-10,666)" text-rendering="geometricPrecision" font-family="sans-serif" shape-rendering="geometricPrecision" font-weight="bold" stroke-miterlimit="1.45">
      <text x="142.5464" xml:space="preserve" y="-632.9302" clip-path="url(#clipPath3)" stroke="none">ApartmentComplex</text>
    </g>
    <g text-rendering="geometricPrecision" shape-rendering="geometricPrecision" transform="matrix(1,0,0,1,-10,666)">
      <line y2="-625" fill="none" x1="26" clip-path="url(#clipPath3)" x2="379" y1="-625"/>
      <text stroke-linecap="butt" x="30" y="-608.0093" clip-path="url(#clipPath3)" font-family="sans-serif" stroke="none" stroke-miterlimit="1.45" xml:space="preserve">- address : String</text>
      <line y2="-600" fill="none" x1="26" clip-path="url(#clipPath3)" x2="379" y1="-600"/>
      <text stroke-linecap="butt" x="30" y="-583.3081" clip-path="url(#clipPath3)" font-family="sans-serif" stroke="none" stroke-miterlimit="1.45" xml:space="preserve">+ ApartmentComplex(address : String)</text>
      <text stroke-linecap="butt" x="30" y="-568.6069" clip-path="url(#clipPath3)" font-family="sans-serif" stroke="none" stroke-miterlimit="1.45" xml:space="preserve">+ getNumberOfResidences() : int</text>
      <text stroke-linecap="butt" x="30" y="-553.9058" clip-path="url(#clipPath3)" font-family="sans-serif" stroke="none" stroke-miterlimit="1.45" xml:space="preserve">+ add(residence : Residence) : void</text>
      <text stroke-linecap="butt" x="30" y="-539.2046" clip-path="url(#clipPath3)" font-family="sans-serif" stroke="none" stroke-miterlimit="1.45" xml:space="preserve">+ getResidence(index : int) : Residence</text>
      <text stroke-linecap="butt" x="30" y="-524.5034" clip-path="url(#clipPath3)" font-family="sans-serif" stroke="none" stroke-miterlimit="1.45" xml:space="preserve">+ getFirstAvailableRoom() : Room</text>
      <text stroke-linecap="butt" x="30" y="-509.8022" clip-path="url(#clipPath3)" font-family="sans-serif" stroke="none" stroke-miterlimit="1.45" xml:space="preserve">+ getFirstAvailableApartment(minNoOfRooms : int) : Apartment</text>
      <rect x="129" y="-403" clip-path="url(#clipPath2)" fill="rgb(204,255,204)" width="295" height="217" stroke="none"/>
      <rect x="128" y="-404" clip-path="url(#clipPath2)" fill="white" width="1" height="219" stroke="none"/>
      <rect x="129" y="-404" clip-path="url(#clipPath2)" fill="white" width="295" height="1" stroke="none"/>
      <rect x="129" y="-186" clip-path="url(#clipPath2)" fill="rgb(142,178,142)" width="296" height="1" stroke="none"/>
      <rect x="424" y="-404" clip-path="url(#clipPath2)" fill="rgb(142,178,142)" width="1" height="218" stroke="none"/>
    </g>
    <g stroke-linecap="butt" font-size="13px" transform="matrix(1,0,0,1,-10,666) translate(243,-399)" text-rendering="geometricPrecision" font-family="sans-serif" shape-rendering="geometricPrecision" font-style="italic" font-weight="bold" stroke-miterlimit="1.45">
      <text x="0" xml:space="preserve" y="15" clip-path="url(#clipPath5)" stroke="none">Residence </text>
    </g>
    <g text-rendering="geometricPrecision" shape-rendering="geometricPrecision" transform="matrix(1,0,0,1,-10,666)">
      <line y2="-376" fill="none" x1="129" clip-path="url(#clipPath4)" x2="424" y1="-376"/>
      <text stroke-linecap="butt" x="133.25" y="-358.9355" clip-path="url(#clipPath4)" font-family="sans-serif" stroke="none" stroke-miterlimit="1.45" xml:space="preserve">- number : int</text>
      <text stroke-linecap="butt" x="133.25" y="-344.2344" clip-path="url(#clipPath4)" font-family="sans-serif" stroke="none" stroke-miterlimit="1.45" xml:space="preserve">- size : double</text>
      <text stroke-linecap="butt" x="133.25" y="-329.5332" clip-path="url(#clipPath4)" font-family="sans-serif" stroke="none" stroke-miterlimit="1.45" xml:space="preserve">- type : String</text>
      <line y2="-321" fill="none" x1="129" clip-path="url(#clipPath4)" x2="424" y1="-321"/>
    </g>
    <g text-rendering="geometricPrecision" stroke-miterlimit="1.45" shape-rendering="geometricPrecision" font-family="sans-serif" transform="matrix(1,0,0,1,-10,666) translate(133,-316)" stroke-linecap="butt">
      <text x="0" xml:space="preserve" y="13" clip-path="url(#clipPath6)" stroke="none">+ Residence(number : int, size : double, type : String)</text>
      <text x="287" xml:space="preserve" y="13" clip-path="url(#clipPath6)" stroke="none"> </text>
      <text x="0" xml:space="preserve" y="29" clip-path="url(#clipPath6)" stroke="none">+ getNumber() : int</text>
      <text x="102" xml:space="preserve" y="29" clip-path="url(#clipPath6)" stroke="none"> </text>
      <text x="0" xml:space="preserve" y="45" clip-path="url(#clipPath6)" stroke="none">+ getSize() : double</text>
      <text x="105" xml:space="preserve" y="45" clip-path="url(#clipPath6)" stroke="none"> </text>
      <text x="0" xml:space="preserve" y="61" clip-path="url(#clipPath6)" stroke="none">+ getType() : String</text>
      <text x="102" xml:space="preserve" y="61" clip-path="url(#clipPath6)" stroke="none"> </text>
      <text x="0" xml:space="preserve" y="77" clip-path="url(#clipPath6)" stroke="none">+ isAvailable() : boolean</text>
      <text x="131" xml:space="preserve" y="77" clip-path="url(#clipPath6)" stroke="none"> </text>
      <text x="0" xml:space="preserve" y="93" clip-path="url(#clipPath6)" stroke="none">+ rentTo(tenant : Tenant, rentedFrom : Date) : void</text>
      <text x="270" xml:space="preserve" y="93" clip-path="url(#clipPath6)" stroke="none"> </text>
      <text x="0" xml:space="preserve" y="109" clip-path="url(#clipPath6)" stroke="none">+ getTenant() : Tenant</text>
      <text x="120" xml:space="preserve" y="109" clip-path="url(#clipPath6)" stroke="none"> </text>
      <text x="0" xml:space="preserve" y="125" clip-path="url(#clipPath6)" stroke="none">+ </text>
      <text font-style="italic" x="10" xml:space="preserve" y="125" clip-path="url(#clipPath6)" stroke="none">getNumberOfRooms() : int</text>
    </g>
    <g fill="rgb(204,255,204)" text-rendering="geometricPrecision" shape-rendering="geometricPrecision" transform="matrix(1,0,0,1,-10,666)" stroke="rgb(204,255,204)">
      <rect x="675" width="234" height="120" y="-635" clip-path="url(#clipPath2)" stroke="none"/>
      <rect x="674" y="-636" clip-path="url(#clipPath2)" fill="white" width="1" height="122" stroke="none"/>
      <rect x="675" y="-636" clip-path="url(#clipPath2)" fill="white" width="234" height="1" stroke="none"/>
      <rect x="675" y="-515" clip-path="url(#clipPath2)" fill="rgb(142,178,142)" width="235" height="1" stroke="none"/>
      <rect x="909" y="-636" clip-path="url(#clipPath2)" fill="rgb(142,178,142)" width="1" height="121" stroke="none"/>
    </g>
    <g font-size="13px" stroke-linecap="butt" transform="matrix(1,0,0,1,-10,666)" text-rendering="geometricPrecision" font-family="sans-serif" shape-rendering="geometricPrecision" font-weight="bold" stroke-miterlimit="1.45">
      <text x="771.4441" xml:space="preserve" y="-618.4302" clip-path="url(#clipPath7)" stroke="none">Tenant</text>
    </g>
    <g text-rendering="geometricPrecision" shape-rendering="geometricPrecision" transform="matrix(1,0,0,1,-10,666)">
      <line y2="-610" fill="none" x1="675" clip-path="url(#clipPath7)" x2="909" y1="-610"/>
      <text stroke-linecap="butt" x="679.75" y="-593.5093" clip-path="url(#clipPath7)" font-family="sans-serif" stroke="none" stroke-miterlimit="1.45" xml:space="preserve">- name : String</text>
      <line y2="-585" fill="none" x1="675" clip-path="url(#clipPath7)" x2="909" y1="-585"/>
      <text stroke-linecap="butt" x="679.75" y="-568.8081" clip-path="url(#clipPath7)" font-family="sans-serif" stroke="none" stroke-miterlimit="1.45" xml:space="preserve">+ Tenant(name : String)</text>
      <text stroke-linecap="butt" x="679.75" y="-554.1069" clip-path="url(#clipPath7)" font-family="sans-serif" stroke="none" stroke-miterlimit="1.45" xml:space="preserve">+ getName() : String</text>
      <text stroke-linecap="butt" x="679.75" y="-539.4058" clip-path="url(#clipPath7)" font-family="sans-serif" stroke="none" stroke-miterlimit="1.45" xml:space="preserve">+ getRentedFrom() : MyDate</text>
      <text stroke-linecap="butt" x="679.75" y="-524.7046" clip-path="url(#clipPath7)" font-family="sans-serif" stroke="none" stroke-miterlimit="1.45" xml:space="preserve">+ setRentedFrom(date : MyDate) : void</text>
      <rect x="730" y="-394" clip-path="url(#clipPath2)" fill="rgb(204,255,204)" width="243" height="199" stroke="none"/>
      <rect x="729" y="-395" clip-path="url(#clipPath2)" fill="white" width="1" height="201" stroke="none"/>
      <rect x="730" y="-395" clip-path="url(#clipPath2)" fill="white" width="243" height="1" stroke="none"/>
      <rect x="730" y="-195" clip-path="url(#clipPath2)" fill="rgb(142,178,142)" width="244" height="1" stroke="none"/>
      <rect x="973" y="-395" clip-path="url(#clipPath2)" fill="rgb(142,178,142)" width="1" height="200" stroke="none"/>
    </g>
    <g font-size="13px" stroke-linecap="butt" transform="matrix(1,0,0,1,-10,666)" text-rendering="geometricPrecision" font-family="sans-serif" shape-rendering="geometricPrecision" font-weight="bold" stroke-miterlimit="1.45">
      <text x="828.6318" xml:space="preserve" y="-376.9302" clip-path="url(#clipPath8)" stroke="none">MyDate</text>
    </g>
    <g text-rendering="geometricPrecision" shape-rendering="geometricPrecision" transform="matrix(1,0,0,1,-10,666)">
      <line y2="-369" fill="none" x1="730" clip-path="url(#clipPath8)" x2="973" y1="-369"/>
      <text stroke-linecap="butt" x="734.25" y="-352.0093" clip-path="url(#clipPath8)" font-family="sans-serif" stroke="none" stroke-miterlimit="1.45" xml:space="preserve">- day : int</text>
      <text stroke-linecap="butt" x="734.25" y="-337.3081" clip-path="url(#clipPath8)" font-family="sans-serif" stroke="none" stroke-miterlimit="1.45" xml:space="preserve">- month : int</text>
      <text stroke-linecap="butt" x="734.25" y="-322.6069" clip-path="url(#clipPath8)" font-family="sans-serif" stroke="none" stroke-miterlimit="1.45" xml:space="preserve">- year : int</text>
      <line y2="-314" fill="none" x1="730" clip-path="url(#clipPath8)" x2="973" y1="-314"/>
    </g>
    <g text-rendering="geometricPrecision" stroke-miterlimit="1.45" shape-rendering="geometricPrecision" font-family="sans-serif" transform="matrix(1,0,0,1,-10,666) translate(734,-309)" stroke-linecap="butt">
      <text x="0" xml:space="preserve" y="13" clip-path="url(#clipPath9)" stroke="none">+ MyDate(day : int, month : int, year : int)</text>
      <text x="213" xml:space="preserve" y="13" clip-path="url(#clipPath9)" stroke="none"> </text>
      <text x="0" xml:space="preserve" y="29" clip-path="url(#clipPath9)" stroke="none">+ getDay() : int</text>
      <text x="78" xml:space="preserve" y="29" clip-path="url(#clipPath9)" stroke="none"> </text>
      <text x="0" xml:space="preserve" y="45" clip-path="url(#clipPath9)" stroke="none">+ getMonth() : int</text>
      <text x="90" xml:space="preserve" y="45" clip-path="url(#clipPath9)" stroke="none"> </text>
      <text x="0" xml:space="preserve" y="61" clip-path="url(#clipPath9)" stroke="none">+ getYear() : int</text>
      <text x="82" xml:space="preserve" y="61" clip-path="url(#clipPath9)" stroke="none"> </text>
      <text x="0" xml:space="preserve" y="77" clip-path="url(#clipPath9)" stroke="none">+ set(day : int, month : int, year : int) : void  </text>
      <text x="227" xml:space="preserve" y="77" clip-path="url(#clipPath9)" stroke="none"> </text>
      <text x="0" xml:space="preserve" y="93" clip-path="url(#clipPath9)" stroke="none">+ copy() : MyDate</text>
      <text x="92" xml:space="preserve" y="93" clip-path="url(#clipPath9)" stroke="none"> </text>
      <text x="0" xml:space="preserve" y="109" clip-path="url(#clipPath9)" stroke="none">+ now() : MyDate</text>
      <line y2="110" fill="none" x1="0" clip-path="url(#clipPath9)" x2="90" y1="110"/>
    </g>
    <g fill="rgb(204,255,204)" text-rendering="geometricPrecision" shape-rendering="geometricPrecision" transform="matrix(1,0,0,1,-10,666)" stroke="rgb(204,255,204)">
      <rect x="101" width="200" height="77" y="-83" clip-path="url(#clipPath2)" stroke="none"/>
      <rect x="100" y="-84" clip-path="url(#clipPath2)" fill="white" width="1" height="79" stroke="none"/>
      <rect x="101" y="-84" clip-path="url(#clipPath2)" fill="white" width="200" height="1" stroke="none"/>
      <rect x="101" y="-6" clip-path="url(#clipPath2)" fill="rgb(142,178,142)" width="201" height="1" stroke="none"/>
      <rect x="301" y="-84" clip-path="url(#clipPath2)" fill="rgb(142,178,142)" width="1" height="78" stroke="none"/>
    </g>
    <g font-size="13px" stroke-linecap="butt" transform="matrix(1,0,0,1,-10,666)" text-rendering="geometricPrecision" font-family="sans-serif" shape-rendering="geometricPrecision" font-weight="bold" stroke-miterlimit="1.45">
      <text x="182.9604" xml:space="preserve" y="-65.9302" clip-path="url(#clipPath10)" stroke="none">Room</text>
    </g>
    <g text-rendering="geometricPrecision" shape-rendering="geometricPrecision" transform="matrix(1,0,0,1,-10,666)">
      <line y2="-58" fill="none" x1="101" clip-path="url(#clipPath10)" x2="301" y1="-58"/>
      <line y2="-48" fill="none" x1="101" clip-path="url(#clipPath10)" x2="301" y1="-48"/>
      <text stroke-linecap="butt" x="105.375" y="-31.0093" clip-path="url(#clipPath10)" font-family="sans-serif" stroke="none" stroke-miterlimit="1.45" xml:space="preserve">+ Room(number : int, size : double)</text>
      <text stroke-linecap="butt" x="105.375" y="-16.3081" clip-path="url(#clipPath10)" font-family="sans-serif" stroke="none" stroke-miterlimit="1.45" xml:space="preserve">+ getNumberOfRooms() : int</text>
      <rect x="323" y="-88" clip-path="url(#clipPath2)" fill="rgb(204,255,204)" width="344" height="87" stroke="none"/>
      <rect x="322" y="-89" clip-path="url(#clipPath2)" fill="white" width="1" height="89" stroke="none"/>
      <rect x="323" y="-89" clip-path="url(#clipPath2)" fill="white" width="344" height="1" stroke="none"/>
      <rect x="323" y="-1" clip-path="url(#clipPath2)" fill="rgb(142,178,142)" width="345" height="1" stroke="none"/>
      <rect x="667" y="-89" clip-path="url(#clipPath2)" fill="rgb(142,178,142)" width="1" height="88" stroke="none"/>
    </g>
    <g font-size="13px" stroke-linecap="butt" transform="matrix(1,0,0,1,-10,666)" text-rendering="geometricPrecision" font-family="sans-serif" shape-rendering="geometricPrecision" font-weight="bold" stroke-miterlimit="1.45">
      <text x="462.8718" xml:space="preserve" y="-70.9302" clip-path="url(#clipPath11)" stroke="none">Apartment</text>
    </g>
    <g text-rendering="geometricPrecision" shape-rendering="geometricPrecision" transform="matrix(1,0,0,1,-10,666)">
      <line y2="-63" fill="none" x1="323" clip-path="url(#clipPath11)" x2="667" y1="-63"/>
      <text stroke-linecap="butt" x="327.375" y="-46.0093" clip-path="url(#clipPath11)" font-family="sans-serif" stroke="none" stroke-miterlimit="1.45" xml:space="preserve">- numberOfRooms : int</text>
      <line y2="-38" fill="none" x1="323" clip-path="url(#clipPath11)" x2="667" y1="-38"/>
      <text stroke-linecap="butt" x="327.375" y="-21.3081" clip-path="url(#clipPath11)" font-family="sans-serif" stroke="none" stroke-miterlimit="1.45" xml:space="preserve">+ Apartment(number : int, size : double, numberOfRooms : int)</text>
      <text stroke-linecap="butt" x="327.375" y="-6.6069" clip-path="url(#clipPath11)" font-family="sans-serif" stroke="none" stroke-miterlimit="1.45" xml:space="preserve">+ getNumberOfRooms() : int</text>
      <path fill="rgb(255,204,153)" d="M505.25 -308.5 L694.25 -308.5 L694.25 -293.5 L709.25 -293.5 L709.25 -280.5 L505.25 -280.5 Z" clip-path="url(#clipPath2)" stroke="none"/>
      <path fill="white" d="M694.25 -308.5 L694.25 -293.5 L709.25 -293.5 Z" clip-path="url(#clipPath2)" fill-rule="evenodd" stroke="none"/>
      <path fill="none" stroke-miterlimit="1.45" d="M505.25 -308.5 L694.25 -308.5 L694.25 -293.5 L709.25 -293.5 L709.25 -280.5 L505.25 -280.5 Z" clip-path="url(#clipPath2)" stroke-linecap="butt"/>
      <path fill="none" stroke-miterlimit="1.45" d="M694.25 -308.5 L694.25 -293.5 L709.25 -293.5 Z" fill-rule="evenodd" clip-path="url(#clipPath2)" stroke-linecap="butt"/>
      <text stroke-linecap="butt" x="528.0342" y="-289.7861" clip-path="url(#clipPath2)" font-family="sans-serif" stroke="none" stroke-miterlimit="1.45" xml:space="preserve">type is "Room" or "apartment"</text>
      <path fill="none" stroke-miterlimit="1.45" d="M202.5 -492.9531 L202.5 -404.0468" clip-path="url(#clipPath2)" stroke-linecap="butt"/>
    </g>
    <g stroke-linecap="butt" transform="matrix(1,0,0,1,-10,666)" fill="white" text-rendering="geometricPrecision" shape-rendering="geometricPrecision" stroke="white" stroke-miterlimit="1.45">
      <path d="M202.5 -499.9531 L207.5 -492.9531 L202.5 -485.9531 L197.5 -492.9531 Z" stroke="none" clip-path="url(#clipPath2)"/>
      <path fill="none" d="M202.5 -499.9531 L207.5 -492.9531 L202.5 -485.9531 L197.5 -492.9531 Z" clip-path="url(#clipPath2)" stroke="black"/>
      <text x="187.165" y="-410.2861" clip-path="url(#clipPath2)" fill="black" font-family="sans-serif" stroke="none" xml:space="preserve">*</text>
      <path fill="none" d="M351 -404.0303 L351 -419.5 L733.75 -419.5 L733.75 -509.4536" clip-path="url(#clipPath2)" stroke="black"/>
      <path fill="black" d="M733.75 -513.4536 L727.75 -501.4536 L733.75 -513.4536 L739.75 -501.4536 Z" clip-path="url(#clipPath2)" stroke="none"/>
    </g>
    <g text-rendering="geometricPrecision" shape-rendering="geometricPrecision" transform="matrix(1,0,0,1,-10,666)">
      <path fill="none" d="M733.75 -513.4536 L727.75 -501.4536 L733.75 -513.4536 L739.75 -501.4536 Z" clip-path="url(#clipPath2)"/>
      <text stroke-linecap="butt" x="700.9922" y="-493.9111" clip-path="url(#clipPath2)" font-family="sans-serif" stroke="none" stroke-miterlimit="1.45" xml:space="preserve">0..1</text>
      <path fill="none" stroke-miterlimit="1.45" d="M851.75 -507.4708 L851.75 -395.0292" clip-path="url(#clipPath2)" stroke-linecap="butt"/>
      <path stroke-miterlimit="1.45" d="M851.75 -514.4708 L856.75 -507.4708 L851.75 -500.4708 L846.75 -507.4708 Z" clip-path="url(#clipPath2)" stroke-linecap="butt" stroke="none"/>
      <text stroke-linecap="butt" x="832.4131" y="-491.0361" clip-path="url(#clipPath2)" font-family="sans-serif" stroke="none" stroke-miterlimit="1.45" xml:space="preserve">1</text>
      <path fill="none" stroke-miterlimit="1.45" d="M201.375 -84.04 L201.375 -104.5 L276.75 -104.5 L276.75 -169.9607" clip-path="url(#clipPath2)" stroke-linecap="butt"/>
    </g>
    <g stroke-linecap="butt" transform="matrix(1,0,0,1,-10,666)" fill="white" text-rendering="geometricPrecision" shape-rendering="geometricPrecision" stroke="white" stroke-miterlimit="1.45">
      <path d="M276.75 -184.9607 L270.75 -168.9607 L282.75 -168.9607 Z" stroke="none" clip-path="url(#clipPath2)"/>
      <path fill="none" d="M276.75 -184.9607 L270.75 -168.9607 L282.75 -168.9607 Z" clip-path="url(#clipPath2)" stroke="black"/>
      <path fill="none" d="M495.375 -89.0303 L495.375 -104.5 L276.75 -104.5 L276.75 -169.9607" clip-path="url(#clipPath2)" stroke="black"/>
      <path d="M276.75 -184.9607 L270.75 -168.9607 L282.75 -168.9607 Z" clip-path="url(#clipPath2)" stroke="none"/>
      <path fill="none" d="M276.75 -184.9607 L270.75 -168.9607 L282.75 -168.9607 Z" clip-path="url(#clipPath2)" stroke="black"/>
      <path fill="none" stroke-dasharray="6,2" d="M505.2109 -294.5 L425.289 -294.5" clip-path="url(#clipPath2)" stroke="black"/>
    </g>
  </g>
</svg>
