<?xml version="1.0" encoding="UTF-8"?><svg xmlns="http://www.w3.org/2000/svg" xmlns:xlink="http://www.w3.org/1999/xlink" fill-opacity="1" color-rendering="auto" color-interpolation="auto" text-rendering="auto" stroke="black" stroke-linecap="square" width="1264" stroke-miterlimit="10" shape-rendering="auto" stroke-opacity="1" fill="black" stroke-dasharray="none" font-weight="normal" stroke-width="1" height="748" font-family="'Dialog'" font-style="normal" stroke-linejoin="miter" font-size="12px" stroke-dashoffset="0" image-rendering="auto">
  <!--Generated by ySVG 2.5-->
  <defs id="genericDefs"/>
  <g>
    <defs id="defs1">
      <clipPath clipPathUnits="userSpaceOnUse" id="clipPath1">
        <path d="M0 0 L1264 0 L1264 748 L0 748 L0 0 Z"/>
      </clipPath>
      <clipPath clipPathUnits="userSpaceOnUse" id="clipPath2">
        <path d="M10 -733 L1274 -733 L1274 15 L10 15 L10 -733 Z"/>
      </clipPath>
      <clipPath clipPathUnits="userSpaceOnUse" id="clipPath3">
        <path d="M25 -210 L25 0 L328 0 L328 -210 Z"/>
      </clipPath>
      <clipPath clipPathUnits="userSpaceOnUse" id="clipPath4">
        <path d="M499 -516 L499 -306 L753 -306 L753 -516 Z"/>
      </clipPath>
      <clipPath clipPathUnits="userSpaceOnUse" id="clipPath5">
        <path d="M0 0 L0 18 L25 18 L25 0 Z"/>
      </clipPath>
      <clipPath clipPathUnits="userSpaceOnUse" id="clipPath6">
        <path d="M0 0 L0 128 L236 128 L236 0 Z"/>
      </clipPath>
      <clipPath clipPathUnits="userSpaceOnUse" id="clipPath7">
        <path d="M502 -718 L502 -596 L751 -596 L751 -718 Z"/>
      </clipPath>
      <clipPath clipPathUnits="userSpaceOnUse" id="clipPath8">
        <path d="M945 -159 L945 -50 L1259 -50 L1259 -159 Z"/>
      </clipPath>
      <clipPath clipPathUnits="userSpaceOnUse" id="clipPath9">
        <path d="M348 -144 L348 -66 L607 -66 L607 -144 Z"/>
      </clipPath>
      <clipPath clipPathUnits="userSpaceOnUse" id="clipPath10">
        <path d="M627 -159 L627 -50 L925 -50 L925 -159 Z"/>
      </clipPath>
    </defs>
    <g fill="rgb(204,255,204)" text-rendering="geometricPrecision" shape-rendering="geometricPrecision" transform="matrix(1,0,0,1,-10,733)" stroke="rgb(204,255,204)">
      <rect x="26" width="301" height="208" y="-209" clip-path="url(#clipPath2)" stroke="none"/>
    </g>
    <g fill="white" text-rendering="geometricPrecision" shape-rendering="geometricPrecision" transform="matrix(1,0,0,1,-10,733)" stroke="white">
      <rect x="25" width="1" height="210" y="-210" clip-path="url(#clipPath2)" stroke="none"/>
      <rect x="26" width="301" height="1" y="-210" clip-path="url(#clipPath2)" stroke="none"/>
      <rect x="26" y="-1" clip-path="url(#clipPath2)" fill="rgb(142,178,142)" width="302" height="1" stroke="none"/>
      <rect x="327" y="-210" clip-path="url(#clipPath2)" fill="rgb(142,178,142)" width="1" height="209" stroke="none"/>
    </g>
    <g font-size="13px" stroke-linecap="butt" transform="matrix(1,0,0,1,-10,733)" text-rendering="geometricPrecision" font-family="sans-serif" shape-rendering="geometricPrecision" font-weight="bold" stroke-miterlimit="1.45">
      <text x="145.7964" xml:space="preserve" y="-191.9302" clip-path="url(#clipPath3)" stroke="none">CarRental</text>
    </g>
    <g text-rendering="geometricPrecision" shape-rendering="geometricPrecision" transform="matrix(1,0,0,1,-10,733)">
      <line y2="-184" fill="none" x1="26" clip-path="url(#clipPath3)" x2="327" y1="-184"/>
      <text stroke-linecap="butt" x="30" y="-167.0093" clip-path="url(#clipPath3)" font-family="sans-serif" stroke="none" stroke-miterlimit="1.45" xml:space="preserve">- companyName : String</text>
      <text stroke-linecap="butt" x="30" y="-152.3081" clip-path="url(#clipPath3)" font-family="sans-serif" stroke="none" stroke-miterlimit="1.45" xml:space="preserve">- address : String</text>
      <line y2="-144" fill="none" x1="26" clip-path="url(#clipPath3)" x2="327" y1="-144"/>
      <text stroke-linecap="butt" x="30" y="-127.6069" clip-path="url(#clipPath3)" font-family="sans-serif" stroke="none" stroke-miterlimit="1.45" xml:space="preserve">+ CarRental(companyName : String, address : String)</text>
      <text stroke-linecap="butt" x="30" y="-112.9058" clip-path="url(#clipPath3)" font-family="sans-serif" stroke="none" stroke-miterlimit="1.45" xml:space="preserve">+ getCompanyName() : String</text>
      <text stroke-linecap="butt" x="30" y="-98.2046" clip-path="url(#clipPath3)" font-family="sans-serif" stroke="none" stroke-miterlimit="1.45" xml:space="preserve">+ getAddress() : String</text>
      <text stroke-linecap="butt" x="30" y="-83.5034" clip-path="url(#clipPath3)" font-family="sans-serif" stroke="none" stroke-miterlimit="1.45" xml:space="preserve">+ getNumberOfCars() : int</text>
      <text stroke-linecap="butt" x="30" y="-68.8022" clip-path="url(#clipPath3)" font-family="sans-serif" stroke="none" stroke-miterlimit="1.45" xml:space="preserve">+ getCar(index : int)  : Car</text>
      <text stroke-linecap="butt" x="30" y="-54.1011" clip-path="url(#clipPath3)" font-family="sans-serif" stroke="none" stroke-miterlimit="1.45" xml:space="preserve">+ addCar(car : Car) : void</text>
      <text stroke-linecap="butt" x="30" y="-39.3999" clip-path="url(#clipPath3)" font-family="sans-serif" stroke="none" stroke-miterlimit="1.45" xml:space="preserve">+ getCarByLicense(licenseNo : String) : Car</text>
      <text stroke-linecap="butt" x="30" y="-24.6987" clip-path="url(#clipPath3)" font-family="sans-serif" stroke="none" stroke-miterlimit="1.45" xml:space="preserve">+ getAvailableSportsCar() : SportsCar</text>
      <text stroke-linecap="butt" x="30" y="-9.9976" clip-path="url(#clipPath3)" font-family="sans-serif" stroke="none" stroke-miterlimit="1.45" xml:space="preserve">+ getAvailableVan(minCapacity : int) : Van</text>
      <rect x="500" y="-515" clip-path="url(#clipPath2)" fill="rgb(204,255,204)" width="252" height="208" stroke="none"/>
      <rect x="499" y="-516" clip-path="url(#clipPath2)" fill="white" width="1" height="210" stroke="none"/>
      <rect x="500" y="-516" clip-path="url(#clipPath2)" fill="white" width="252" height="1" stroke="none"/>
      <rect x="500" y="-307" clip-path="url(#clipPath2)" fill="rgb(142,178,142)" width="253" height="1" stroke="none"/>
      <rect x="752" y="-516" clip-path="url(#clipPath2)" fill="rgb(142,178,142)" width="1" height="209" stroke="none"/>
    </g>
    <g stroke-linecap="butt" font-size="13px" transform="matrix(1,0,0,1,-10,733) translate(614,-511)" text-rendering="geometricPrecision" font-family="sans-serif" shape-rendering="geometricPrecision" font-style="italic" font-weight="bold" stroke-miterlimit="1.45">
      <text x="0" xml:space="preserve" y="15" clip-path="url(#clipPath5)" stroke="none">Car </text>
    </g>
    <g text-rendering="geometricPrecision" shape-rendering="geometricPrecision" transform="matrix(1,0,0,1,-10,733)">
      <line y2="-488" fill="none" x1="500" clip-path="url(#clipPath4)" x2="752" y1="-488"/>
      <text stroke-linecap="butt" x="504.75" y="-470.9355" clip-path="url(#clipPath4)" font-family="sans-serif" stroke="none" stroke-miterlimit="1.45" xml:space="preserve">- licenseNo : String</text>
      <text stroke-linecap="butt" x="504.75" y="-456.2344" clip-path="url(#clipPath4)" font-family="sans-serif" stroke="none" stroke-miterlimit="1.45" xml:space="preserve">- price : double</text>
      <line y2="-448" fill="none" x1="500" clip-path="url(#clipPath4)" x2="752" y1="-448"/>
    </g>
    <g text-rendering="geometricPrecision" stroke-miterlimit="1.45" shape-rendering="geometricPrecision" font-family="sans-serif" transform="matrix(1,0,0,1,-10,733) translate(504,-443)" stroke-linecap="butt">
      <text x="0" xml:space="preserve" y="13" clip-path="url(#clipPath6)" stroke="none">+ Car(licenseNo : String, price : double)</text>
      <text x="215" xml:space="preserve" y="13" clip-path="url(#clipPath6)" stroke="none"> </text>
      <text x="0" xml:space="preserve" y="29" clip-path="url(#clipPath6)" stroke="none">+ getLicenseNo() : String</text>
      <text x="136" xml:space="preserve" y="29" clip-path="url(#clipPath6)" stroke="none"> </text>
      <text x="0" xml:space="preserve" y="45" clip-path="url(#clipPath6)" stroke="none">+ getPrice() : double</text>
      <text x="110" xml:space="preserve" y="45" clip-path="url(#clipPath6)" stroke="none"> </text>
      <text x="0" xml:space="preserve" y="61" clip-path="url(#clipPath6)" stroke="none">+ setPrice(price : double) : void</text>
      <text x="168" xml:space="preserve" y="61" clip-path="url(#clipPath6)" stroke="none"> </text>
      <text x="0" xml:space="preserve" y="77" clip-path="url(#clipPath6)" stroke="none">+ </text>
      <text font-style="italic" x="10" xml:space="preserve" y="77" clip-path="url(#clipPath6)" stroke="none">getType() : String</text>
      <text x="103" xml:space="preserve" y="77" clip-path="url(#clipPath6)" stroke="none"> </text>
      <text x="0" xml:space="preserve" y="93" clip-path="url(#clipPath6)" stroke="none">+ getRentedTo() : Customer</text>
      <text x="153" xml:space="preserve" y="93" clip-path="url(#clipPath6)" stroke="none"> </text>
      <text x="0" xml:space="preserve" y="109" clip-path="url(#clipPath6)" stroke="none">+ setRentedTo(customer : Customer) : void</text>
      <text x="236" xml:space="preserve" y="109" clip-path="url(#clipPath6)" stroke="none"> </text>
      <text x="0" xml:space="preserve" y="125" clip-path="url(#clipPath6)" stroke="none">+ isAvailable() : boolean</text>
    </g>
    <g fill="rgb(204,255,204)" text-rendering="geometricPrecision" shape-rendering="geometricPrecision" transform="matrix(1,0,0,1,-10,733)" stroke="rgb(204,255,204)">
      <rect x="503" width="247" height="120" y="-717" clip-path="url(#clipPath2)" stroke="none"/>
      <rect x="502" y="-718" clip-path="url(#clipPath2)" fill="white" width="1" height="122" stroke="none"/>
      <rect x="503" y="-718" clip-path="url(#clipPath2)" fill="white" width="247" height="1" stroke="none"/>
      <rect x="503" y="-597" clip-path="url(#clipPath2)" fill="rgb(142,178,142)" width="248" height="1" stroke="none"/>
      <rect x="750" y="-718" clip-path="url(#clipPath2)" fill="rgb(142,178,142)" width="1" height="121" stroke="none"/>
    </g>
    <g font-size="13px" stroke-linecap="butt" transform="matrix(1,0,0,1,-10,733)" text-rendering="geometricPrecision" font-family="sans-serif" shape-rendering="geometricPrecision" font-weight="bold" stroke-miterlimit="1.45">
      <text x="596.4114" xml:space="preserve" y="-699.9302" clip-path="url(#clipPath7)" stroke="none">Customer</text>
    </g>
    <g text-rendering="geometricPrecision" shape-rendering="geometricPrecision" transform="matrix(1,0,0,1,-10,733)">
      <line y2="-692" fill="none" x1="503" clip-path="url(#clipPath7)" x2="750" y1="-692"/>
      <text stroke-linecap="butt" x="507.25" y="-675.0093" clip-path="url(#clipPath7)" font-family="sans-serif" stroke="none" stroke-miterlimit="1.45" xml:space="preserve">- name : String</text>
      <text stroke-linecap="butt" x="507.25" y="-660.3081" clip-path="url(#clipPath7)" font-family="sans-serif" stroke="none" stroke-miterlimit="1.45" xml:space="preserve">- address : String</text>
      <line y2="-652" fill="none" x1="503" clip-path="url(#clipPath7)" x2="750" y1="-652"/>
      <text stroke-linecap="butt" x="507.25" y="-635.6069" clip-path="url(#clipPath7)" font-family="sans-serif" stroke="none" stroke-miterlimit="1.45" xml:space="preserve">+ Customer(name : String, address : String)</text>
      <text stroke-linecap="butt" x="507.25" y="-620.9058" clip-path="url(#clipPath7)" font-family="sans-serif" stroke="none" stroke-miterlimit="1.45" xml:space="preserve">+ getName() : String</text>
      <text stroke-linecap="butt" x="507.25" y="-606.2046" clip-path="url(#clipPath7)" font-family="sans-serif" stroke="none" stroke-miterlimit="1.45" xml:space="preserve">+ getAddress() : String</text>
      <rect x="946" y="-158" clip-path="url(#clipPath2)" fill="rgb(204,255,204)" width="312" height="107" stroke="none"/>
      <rect x="945" y="-159" clip-path="url(#clipPath2)" fill="white" width="1" height="109" stroke="none"/>
      <rect x="946" y="-159" clip-path="url(#clipPath2)" fill="white" width="312" height="1" stroke="none"/>
      <rect x="946" y="-51" clip-path="url(#clipPath2)" fill="rgb(142,178,142)" width="313" height="1" stroke="none"/>
      <rect x="1258" y="-159" clip-path="url(#clipPath2)" fill="rgb(142,178,142)" width="1" height="108" stroke="none"/>
    </g>
    <g font-size="13px" stroke-linecap="butt" transform="matrix(1,0,0,1,-10,733)" text-rendering="geometricPrecision" font-family="sans-serif" shape-rendering="geometricPrecision" font-weight="bold" stroke-miterlimit="1.45">
      <text x="1070.5696" xml:space="preserve" y="-141.4302" clip-path="url(#clipPath8)" stroke="none">FamilyCar</text>
    </g>
    <g text-rendering="geometricPrecision" shape-rendering="geometricPrecision" transform="matrix(1,0,0,1,-10,733)">
      <line y2="-133" fill="none" x1="946" clip-path="url(#clipPath8)" x2="1258" y1="-133"/>
      <text stroke-linecap="butt" x="950" y="-116.5093" clip-path="url(#clipPath8)" font-family="sans-serif" stroke="none" stroke-miterlimit="1.45" xml:space="preserve">- seats : int</text>
      <line y2="-108" fill="none" x1="946" clip-path="url(#clipPath8)" x2="1258" y1="-108"/>
      <text stroke-linecap="butt" x="950" y="-91.8081" clip-path="url(#clipPath8)" font-family="sans-serif" stroke="none" stroke-miterlimit="1.45" xml:space="preserve">+ FamilyCar(licenseNo : String, price : double, seats : int)</text>
      <text stroke-linecap="butt" x="950" y="-77.1069" clip-path="url(#clipPath8)" font-family="sans-serif" stroke="none" stroke-miterlimit="1.45" xml:space="preserve">+ getSeats() : int</text>
      <text stroke-linecap="butt" x="950" y="-62.4058" clip-path="url(#clipPath8)" font-family="sans-serif" stroke="none" stroke-miterlimit="1.45" xml:space="preserve">+ getType() : String</text>
      <rect x="349" y="-143" clip-path="url(#clipPath2)" fill="rgb(204,255,204)" width="257" height="76" stroke="none"/>
      <rect x="348" y="-144" clip-path="url(#clipPath2)" fill="white" width="1" height="78" stroke="none"/>
      <rect x="349" y="-144" clip-path="url(#clipPath2)" fill="white" width="257" height="1" stroke="none"/>
      <rect x="349" y="-67" clip-path="url(#clipPath2)" fill="rgb(142,178,142)" width="258" height="1" stroke="none"/>
      <rect x="606" y="-144" clip-path="url(#clipPath2)" fill="rgb(142,178,142)" width="1" height="77" stroke="none"/>
    </g>
    <g font-size="13px" stroke-linecap="butt" transform="matrix(1,0,0,1,-10,733)" text-rendering="geometricPrecision" font-family="sans-serif" shape-rendering="geometricPrecision" font-weight="bold" stroke-miterlimit="1.45">
      <text x="446.0759" xml:space="preserve" y="-125.9302" clip-path="url(#clipPath9)" stroke="none">SportsCar</text>
    </g>
    <g text-rendering="geometricPrecision" shape-rendering="geometricPrecision" transform="matrix(1,0,0,1,-10,733)">
      <line y2="-118" fill="none" x1="349" clip-path="url(#clipPath9)" x2="606" y1="-118"/>
      <line y2="-108" fill="none" x1="349" clip-path="url(#clipPath9)" x2="606" y1="-108"/>
      <text stroke-linecap="butt" x="353" y="-91.0093" clip-path="url(#clipPath9)" font-family="sans-serif" stroke="none" stroke-miterlimit="1.45" xml:space="preserve">+ SportsCar(licenseNo : String, price : double)</text>
      <text stroke-linecap="butt" x="353" y="-76.3081" clip-path="url(#clipPath9)" font-family="sans-serif" stroke="none" stroke-miterlimit="1.45" xml:space="preserve">+ getType() : String</text>
      <rect x="628" y="-158" clip-path="url(#clipPath2)" fill="rgb(204,255,204)" width="296" height="107" stroke="none"/>
      <rect x="627" y="-159" clip-path="url(#clipPath2)" fill="white" width="1" height="109" stroke="none"/>
      <rect x="628" y="-159" clip-path="url(#clipPath2)" fill="white" width="296" height="1" stroke="none"/>
      <rect x="628" y="-51" clip-path="url(#clipPath2)" fill="rgb(142,178,142)" width="297" height="1" stroke="none"/>
      <rect x="924" y="-159" clip-path="url(#clipPath2)" fill="rgb(142,178,142)" width="1" height="108" stroke="none"/>
    </g>
    <g font-size="13px" stroke-linecap="butt" transform="matrix(1,0,0,1,-10,733)" text-rendering="geometricPrecision" font-family="sans-serif" shape-rendering="geometricPrecision" font-weight="bold" stroke-miterlimit="1.45">
      <text x="764.0791" xml:space="preserve" y="-141.4302" clip-path="url(#clipPath10)" stroke="none">Van</text>
    </g>
    <g text-rendering="geometricPrecision" shape-rendering="geometricPrecision" transform="matrix(1,0,0,1,-10,733)">
      <line y2="-133" fill="none" x1="628" clip-path="url(#clipPath10)" x2="924" y1="-133"/>
      <text stroke-linecap="butt" x="632" y="-116.5093" clip-path="url(#clipPath10)" font-family="sans-serif" stroke="none" stroke-miterlimit="1.45" xml:space="preserve">- capacity : int</text>
      <line y2="-108" fill="none" x1="628" clip-path="url(#clipPath10)" x2="924" y1="-108"/>
      <text stroke-linecap="butt" x="632" y="-91.8081" clip-path="url(#clipPath10)" font-family="sans-serif" stroke="none" stroke-miterlimit="1.45" xml:space="preserve">+ Van(licenseNo : String, price : double, capacity : int)</text>
      <text stroke-linecap="butt" x="632" y="-77.1069" clip-path="url(#clipPath10)" font-family="sans-serif" stroke="none" stroke-miterlimit="1.45" xml:space="preserve">+ getCapacity() : int</text>
      <text stroke-linecap="butt" x="632" y="-62.4058" clip-path="url(#clipPath10)" font-family="sans-serif" stroke="none" stroke-miterlimit="1.45" xml:space="preserve">+ getType() : String</text>
      <path fill="rgb(255,204,153)" d="M847 -364 L988 -364 L988 -349 L1003 -349 L1003 -306 L847 -306 Z" clip-path="url(#clipPath2)" stroke="none"/>
      <path fill="white" d="M988 -364 L988 -349 L1003 -349 Z" clip-path="url(#clipPath2)" fill-rule="evenodd" stroke="none"/>
      <path fill="none" stroke-miterlimit="1.45" d="M847 -364 L988 -364 L988 -349 L1003 -349 L1003 -306 L847 -306 Z" clip-path="url(#clipPath2)" stroke-linecap="butt"/>
      <path fill="none" stroke-miterlimit="1.45" d="M988 -364 L988 -349 L1003 -349 Z" fill-rule="evenodd" clip-path="url(#clipPath2)" stroke-linecap="butt"/>
      <text stroke-linecap="butt" x="858.3965" y="-337.6367" clip-path="url(#clipPath2)" font-family="sans-serif" stroke="none" stroke-miterlimit="1.45" xml:space="preserve">getType() is "FamilyCar",</text>
      <text stroke-linecap="butt" x="868.46" y="-322.9355" clip-path="url(#clipPath2)" font-family="sans-serif" stroke="none" stroke-miterlimit="1.45" xml:space="preserve">"SportsCar" or "Van".</text>
      <path fill="none" stroke-miterlimit="1.45" d="M176.5 -210.0303 L176.5 -225.5 L176.5 -410.5 L494.7599 -410.8534" clip-path="url(#clipPath2)" stroke-linecap="butt"/>
      <path stroke-miterlimit="1.45" d="M498.7599 -410.8579 L486.7533 -416.8445 L498.7599 -410.8579 L486.7666 -404.8445 Z" clip-path="url(#clipPath2)" stroke-linecap="butt" stroke="none"/>
      <path fill="none" d="M498.7599 -410.8579 L486.7533 -416.8445 L498.7599 -410.8579 L486.7666 -404.8445 Z" clip-path="url(#clipPath2)"/>
      <text stroke-linecap="butt" x="473.165" y="-381.9111" clip-path="url(#clipPath2)" font-family="sans-serif" stroke="none" stroke-miterlimit="1.45" xml:space="preserve">*</text>
      <path fill="none" stroke-miterlimit="1.45" d="M626.75 -516.0391 L626.75 -590.9609" clip-path="url(#clipPath2)" stroke-linecap="butt"/>
      <path stroke-miterlimit="1.45" d="M626.75 -594.9609 L620.75 -582.9609 L626.75 -594.9609 L632.75 -582.9609 Z" clip-path="url(#clipPath2)" stroke-linecap="butt" stroke="none"/>
      <path fill="none" d="M626.75 -594.9609 L620.75 -582.9609 L626.75 -594.9609 L632.75 -582.9609 Z" clip-path="url(#clipPath2)"/>
      <text stroke-linecap="butt" x="639.7422" y="-572.2861" clip-path="url(#clipPath2)" font-family="sans-serif" stroke="none" stroke-miterlimit="1.45" xml:space="preserve">0..1</text>
      <path fill="none" stroke-miterlimit="1.45" d="M1102 -159.5322 L1102 -225.5 L626.75 -225.5 L626.75 -290.9607" clip-path="url(#clipPath2)" stroke-linecap="butt"/>
    </g>
    <g stroke-linecap="butt" transform="matrix(1,0,0,1,-10,733)" fill="white" text-rendering="geometricPrecision" shape-rendering="geometricPrecision" stroke="white" stroke-miterlimit="1.45">
      <path d="M626.75 -305.9607 L620.75 -289.9607 L632.75 -289.9607 Z" stroke="none" clip-path="url(#clipPath2)"/>
      <path fill="none" d="M626.75 -305.9607 L620.75 -289.9607 L632.75 -289.9607 Z" clip-path="url(#clipPath2)" stroke="black"/>
      <path fill="none" d="M477.5 -144.0398 L477.5 -225.5 L626.75 -225.5 L626.75 -290.9607" clip-path="url(#clipPath2)" stroke="black"/>
      <path d="M626.75 -305.9607 L620.75 -289.9607 L632.75 -289.9607 Z" clip-path="url(#clipPath2)" stroke="none"/>
      <path fill="none" d="M626.75 -305.9607 L620.75 -289.9607 L632.75 -289.9607 Z" clip-path="url(#clipPath2)" stroke="black"/>
      <path fill="none" d="M776 -159.5322 L776 -225.5 L626.75 -225.5 L626.75 -290.9607" clip-path="url(#clipPath2)" stroke="black"/>
      <path d="M626.75 -305.9607 L620.75 -289.9607 L632.75 -289.9607 Z" clip-path="url(#clipPath2)" stroke="none"/>
      <path fill="none" d="M626.75 -305.9607 L620.75 -289.9607 L632.75 -289.9607 Z" clip-path="url(#clipPath2)" stroke="black"/>
      <path fill="none" stroke-dasharray="6,2" d="M846.9747 -346.1241 L753.7651 -359.413" clip-path="url(#clipPath2)" stroke="black"/>
    </g>
  </g>
</svg>
