<?xml version="1.0" encoding="UTF-8"?><svg xmlns="http://www.w3.org/2000/svg" xmlns:xlink="http://www.w3.org/1999/xlink" fill-opacity="1" color-rendering="auto" color-interpolation="auto" text-rendering="auto" stroke="black" stroke-linecap="square" width="974" stroke-miterlimit="10" shape-rendering="auto" stroke-opacity="1" fill="black" stroke-dasharray="none" font-weight="normal" stroke-width="1" height="748" font-family="'Dialog'" font-style="normal" stroke-linejoin="miter" font-size="12px" stroke-dashoffset="0" image-rendering="auto">
  <!--Generated by ySVG 2.5-->
  <defs id="genericDefs"/>
  <g>
    <defs id="defs1">
      <clipPath clipPathUnits="userSpaceOnUse" id="clipPath1">
        <path d="M0 0 L974 0 L974 748 L0 748 L0 0 Z"/>
      </clipPath>
      <clipPath clipPathUnits="userSpaceOnUse" id="clipPath2">
        <path d="M10 -733 L984 -733 L984 15 L10 15 L10 -733 Z"/>
      </clipPath>
      <clipPath clipPathUnits="userSpaceOnUse" id="clipPath3">
        <path d="M25 -202 L25 0 L397 0 L397 -202 Z"/>
      </clipPath>
      <clipPath clipPathUnits="userSpaceOnUse" id="clipPath4">
        <path d="M70 -452 L70 -299 L351 -299 L351 -452 Z"/>
      </clipPath>
      <clipPath clipPathUnits="userSpaceOnUse" id="clipPath5">
        <path d="M404 -718 L404 -565 L634 -565 L634 -718 Z"/>
      </clipPath>
      <clipPath clipPathUnits="userSpaceOnUse" id="clipPath6">
        <path d="M0 0 L0 18 L67 18 L67 0 Z"/>
      </clipPath>
      <clipPath clipPathUnits="userSpaceOnUse" id="clipPath7">
        <path d="M371 -436 L371 -314 L667 -314 L667 -436 Z"/>
      </clipPath>
      <clipPath clipPathUnits="userSpaceOnUse" id="clipPath8">
        <path d="M687 -469 L687 -282 L968 -282 L968 -469 Z"/>
      </clipPath>
      <clipPath clipPathUnits="userSpaceOnUse" id="clipPath9">
        <path d="M0 0 L0 80 L187 80 L187 0 Z"/>
      </clipPath>
    </defs>
    <g fill="rgb(204,255,204)" text-rendering="geometricPrecision" shape-rendering="geometricPrecision" transform="matrix(1,0,0,1,-10,733)" stroke="rgb(204,255,204)">
      <rect x="26" width="370" height="200" y="-201" clip-path="url(#clipPath2)" stroke="none"/>
    </g>
    <g fill="white" text-rendering="geometricPrecision" shape-rendering="geometricPrecision" transform="matrix(1,0,0,1,-10,733)" stroke="white">
      <rect x="25" width="1" height="202" y="-202" clip-path="url(#clipPath2)" stroke="none"/>
      <rect x="26" width="370" height="1" y="-202" clip-path="url(#clipPath2)" stroke="none"/>
      <rect x="26" y="-1" clip-path="url(#clipPath2)" fill="rgb(142,178,142)" width="371" height="1" stroke="none"/>
      <rect x="396" y="-202" clip-path="url(#clipPath2)" fill="rgb(142,178,142)" width="1" height="201" stroke="none"/>
    </g>
    <g font-size="13px" stroke-linecap="butt" transform="matrix(1,0,0,1,-10,733)" text-rendering="geometricPrecision" font-family="sans-serif" shape-rendering="geometricPrecision" font-weight="bold" stroke-miterlimit="1.45">
      <text x="175.2532" xml:space="preserve" y="-183.9302" clip-path="url(#clipPath3)" stroke="none">StudentList</text>
    </g>
    <g text-rendering="geometricPrecision" shape-rendering="geometricPrecision" transform="matrix(1,0,0,1,-10,733)">
      <line y2="-176" fill="none" x1="26" clip-path="url(#clipPath3)" x2="396" y1="-176"/>
      <text stroke-linecap="butt" x="30" y="-159.0093" clip-path="url(#clipPath3)" font-family="sans-serif" stroke="none" stroke-miterlimit="1.45" xml:space="preserve">- size : int</text>
      <line y2="-151" fill="none" x1="26" clip-path="url(#clipPath3)" x2="396" y1="-151"/>
      <text stroke-linecap="butt" x="30" y="-134.3081" clip-path="url(#clipPath3)" font-family="sans-serif" stroke="none" stroke-miterlimit="1.45" xml:space="preserve">+ StudentList()</text>
      <text stroke-linecap="butt" x="30" y="-119.6069" clip-path="url(#clipPath3)" font-family="sans-serif" stroke="none" stroke-miterlimit="1.45" xml:space="preserve">+ addStudent(student : Student) : void</text>
      <text stroke-linecap="butt" x="30" y="-104.9058" clip-path="url(#clipPath3)" font-family="sans-serif" stroke="none" stroke-miterlimit="1.45" xml:space="preserve">+ getStudent(index : int) : Student</text>
      <text stroke-linecap="butt" x="30" y="-90.2046" clip-path="url(#clipPath3)" font-family="sans-serif" stroke="none" stroke-miterlimit="1.45" xml:space="preserve">+ removeStudent(student : Student) : void</text>
      <text stroke-linecap="butt" x="30" y="-75.5034" clip-path="url(#clipPath3)" font-family="sans-serif" stroke="none" stroke-miterlimit="1.45" xml:space="preserve">+ getNumberOfStudents() : int</text>
      <text stroke-linecap="butt" x="30" y="-60.8022" clip-path="url(#clipPath3)" font-family="sans-serif" stroke="none" stroke-miterlimit="1.45" xml:space="preserve">+ getNumberOfStudentsByEducation(education : Education) : int</text>
      <text stroke-linecap="butt" x="30" y="-46.1011" clip-path="url(#clipPath3)" font-family="sans-serif" stroke="none" stroke-miterlimit="1.45" xml:space="preserve">+ getStudentsByEducation(education : Education) : Student[]</text>
      <text stroke-linecap="butt" x="30" y="-31.3999" clip-path="url(#clipPath3)" font-family="sans-serif" stroke="none" stroke-miterlimit="1.45" xml:space="preserve">+ getNumberOfHighSchoolStudents() : int</text>
      <text stroke-linecap="butt" x="30" y="-16.6987" clip-path="url(#clipPath3)" font-family="sans-serif" stroke="none" stroke-miterlimit="1.45" xml:space="preserve">- doubleTheListCapacity() : void</text>
      <rect x="71" y="-451" clip-path="url(#clipPath2)" fill="rgb(204,255,204)" width="279" height="151" stroke="none"/>
      <rect x="70" y="-452" clip-path="url(#clipPath2)" fill="white" width="1" height="153" stroke="none"/>
      <rect x="71" y="-452" clip-path="url(#clipPath2)" fill="white" width="279" height="1" stroke="none"/>
      <rect x="71" y="-300" clip-path="url(#clipPath2)" fill="rgb(142,178,142)" width="280" height="1" stroke="none"/>
      <rect x="350" y="-452" clip-path="url(#clipPath2)" fill="rgb(142,178,142)" width="1" height="152" stroke="none"/>
    </g>
    <g font-size="13px" stroke-linecap="butt" transform="matrix(1,0,0,1,-10,733)" text-rendering="geometricPrecision" font-family="sans-serif" shape-rendering="geometricPrecision" font-weight="bold" stroke-miterlimit="1.45">
      <text x="186.8091" xml:space="preserve" y="-433.9302" clip-path="url(#clipPath4)" stroke="none">Student</text>
    </g>
    <g text-rendering="geometricPrecision" shape-rendering="geometricPrecision" transform="matrix(1,0,0,1,-10,733)">
      <line y2="-426" fill="none" x1="71" clip-path="url(#clipPath4)" x2="350" y1="-426"/>
      <text stroke-linecap="butt" x="75.5" y="-409.0093" clip-path="url(#clipPath4)" font-family="sans-serif" stroke="none" stroke-miterlimit="1.45" xml:space="preserve">- name : String</text>
      <line y2="-401" fill="none" x1="71" clip-path="url(#clipPath4)" x2="350" y1="-401"/>
      <text stroke-linecap="butt" x="75.5" y="-384.3081" clip-path="url(#clipPath4)" font-family="sans-serif" stroke="none" stroke-miterlimit="1.45" xml:space="preserve">+ Student(name : String, education : Education)</text>
      <text stroke-linecap="butt" x="75.5" y="-369.6069" clip-path="url(#clipPath4)" font-family="sans-serif" stroke="none" stroke-miterlimit="1.45" xml:space="preserve">+ getName() : String</text>
      <text stroke-linecap="butt" x="75.5" y="-354.9058" clip-path="url(#clipPath4)" font-family="sans-serif" stroke="none" stroke-miterlimit="1.45" xml:space="preserve">+ getEducation() : Education</text>
      <text stroke-linecap="butt" x="75.5" y="-340.2046" clip-path="url(#clipPath4)" font-family="sans-serif" stroke="none" stroke-miterlimit="1.45" xml:space="preserve">+ changeEducation(education : Education) : void</text>
      <text stroke-linecap="butt" x="75.5" y="-325.5034" clip-path="url(#clipPath4)" font-family="sans-serif" stroke="none" stroke-miterlimit="1.45" xml:space="preserve">+ equals(obj : Object) : boolean</text>
      <text stroke-linecap="butt" x="75.5" y="-310.8022" clip-path="url(#clipPath4)" font-family="sans-serif" stroke="none" stroke-miterlimit="1.45" xml:space="preserve">+ toString() : String</text>
      <rect x="405" y="-717" clip-path="url(#clipPath2)" fill="rgb(204,255,204)" width="228" height="151" stroke="none"/>
      <rect x="404" y="-718" clip-path="url(#clipPath2)" fill="white" width="1" height="153" stroke="none"/>
      <rect x="405" y="-718" clip-path="url(#clipPath2)" fill="white" width="228" height="1" stroke="none"/>
      <rect x="405" y="-566" clip-path="url(#clipPath2)" fill="rgb(142,178,142)" width="229" height="1" stroke="none"/>
      <rect x="633" y="-718" clip-path="url(#clipPath2)" fill="rgb(142,178,142)" width="1" height="152" stroke="none"/>
    </g>
    <g stroke-linecap="butt" font-size="13px" transform="matrix(1,0,0,1,-10,733) translate(486,-713)" text-rendering="geometricPrecision" font-family="sans-serif" shape-rendering="geometricPrecision" font-style="italic" font-weight="bold" stroke-miterlimit="1.45">
      <text x="0" xml:space="preserve" y="15" clip-path="url(#clipPath6)" stroke="none">Education </text>
    </g>
    <g text-rendering="geometricPrecision" shape-rendering="geometricPrecision" transform="matrix(1,0,0,1,-10,733)">
      <line y2="-690" fill="none" x1="405" clip-path="url(#clipPath5)" x2="633" y1="-690"/>
      <text stroke-linecap="butt" x="409.5" y="-672.9355" clip-path="url(#clipPath5)" font-family="sans-serif" stroke="none" stroke-miterlimit="1.45" xml:space="preserve">- code : String</text>
      <text stroke-linecap="butt" x="409.5" y="-658.2344" clip-path="url(#clipPath5)" font-family="sans-serif" stroke="none" stroke-miterlimit="1.45" xml:space="preserve">- title : String</text>
      <line y2="-650" fill="none" x1="405" clip-path="url(#clipPath5)" x2="633" y1="-650"/>
      <text stroke-linecap="butt" x="409.5" y="-633.5332" clip-path="url(#clipPath5)" font-family="sans-serif" stroke="none" stroke-miterlimit="1.45" xml:space="preserve">+ Education(code : String, title : String)</text>
      <text stroke-linecap="butt" x="409.5" y="-618.832" clip-path="url(#clipPath5)" font-family="sans-serif" stroke="none" stroke-miterlimit="1.45" xml:space="preserve">+ getCode() : String</text>
      <text stroke-linecap="butt" x="409.5" y="-604.1309" clip-path="url(#clipPath5)" font-family="sans-serif" stroke="none" stroke-miterlimit="1.45" xml:space="preserve">+ getTitle() : String</text>
      <text stroke-linecap="butt" x="409.5" y="-589.4297" clip-path="url(#clipPath5)" font-family="sans-serif" stroke="none" stroke-miterlimit="1.45" xml:space="preserve">+ equals(obj : Object) : boolean</text>
      <text stroke-linecap="butt" x="409.5" y="-574.7285" clip-path="url(#clipPath5)" font-family="sans-serif" stroke="none" stroke-miterlimit="1.45" xml:space="preserve">+ toString() : String</text>
      <rect x="372" y="-435" clip-path="url(#clipPath2)" fill="rgb(204,255,204)" width="294" height="120" stroke="none"/>
      <rect x="371" y="-436" clip-path="url(#clipPath2)" fill="white" width="1" height="122" stroke="none"/>
      <rect x="372" y="-436" clip-path="url(#clipPath2)" fill="white" width="294" height="1" stroke="none"/>
      <rect x="372" y="-315" clip-path="url(#clipPath2)" fill="rgb(142,178,142)" width="295" height="1" stroke="none"/>
      <rect x="666" y="-436" clip-path="url(#clipPath2)" fill="rgb(142,178,142)" width="1" height="121" stroke="none"/>
    </g>
    <g font-size="13px" stroke-linecap="butt" transform="matrix(1,0,0,1,-10,733)" text-rendering="geometricPrecision" font-family="sans-serif" shape-rendering="geometricPrecision" font-weight="bold" stroke-miterlimit="1.45">
      <text x="483.3755" xml:space="preserve" y="-418.4302" clip-path="url(#clipPath7)" stroke="none">Programme</text>
    </g>
    <g text-rendering="geometricPrecision" shape-rendering="geometricPrecision" transform="matrix(1,0,0,1,-10,733)">
      <line y2="-410" fill="none" x1="372" clip-path="url(#clipPath7)" x2="666" y1="-410"/>
      <text stroke-linecap="butt" x="376.5" y="-393.5093" clip-path="url(#clipPath7)" font-family="sans-serif" stroke="none" stroke-miterlimit="1.45" xml:space="preserve">- level : String</text>
      <line y2="-385" fill="none" x1="372" clip-path="url(#clipPath7)" x2="666" y1="-385"/>
      <text stroke-linecap="butt" x="376.5" y="-368.8081" clip-path="url(#clipPath7)" font-family="sans-serif" stroke="none" stroke-miterlimit="1.45" xml:space="preserve">+ Programme(code : String, title : String, level : String)</text>
      <text stroke-linecap="butt" x="376.5" y="-354.1069" clip-path="url(#clipPath7)" font-family="sans-serif" stroke="none" stroke-miterlimit="1.45" xml:space="preserve">+ getLevel() : String</text>
      <text stroke-linecap="butt" x="376.5" y="-339.4058" clip-path="url(#clipPath7)" font-family="sans-serif" stroke="none" stroke-miterlimit="1.45" xml:space="preserve">+ equals(obj : Object) : boolean</text>
      <text stroke-linecap="butt" x="376.5" y="-324.7046" clip-path="url(#clipPath7)" font-family="sans-serif" stroke="none" stroke-miterlimit="1.45" xml:space="preserve">+ toString() : String</text>
      <rect x="688" y="-468" clip-path="url(#clipPath2)" fill="rgb(204,255,204)" width="279" height="185" stroke="none"/>
      <rect x="687" y="-469" clip-path="url(#clipPath2)" fill="white" width="1" height="187" stroke="none"/>
      <rect x="688" y="-469" clip-path="url(#clipPath2)" fill="white" width="279" height="1" stroke="none"/>
      <rect x="688" y="-283" clip-path="url(#clipPath2)" fill="rgb(142,178,142)" width="280" height="1" stroke="none"/>
      <rect x="967" y="-469" clip-path="url(#clipPath2)" fill="rgb(142,178,142)" width="1" height="186" stroke="none"/>
    </g>
    <g font-size="13px" stroke-linecap="butt" transform="matrix(1,0,0,1,-10,733)" text-rendering="geometricPrecision" font-family="sans-serif" shape-rendering="geometricPrecision" font-weight="bold" stroke-miterlimit="1.45">
      <text x="806.3323" xml:space="preserve" y="-450.9302" clip-path="url(#clipPath8)" stroke="none">School</text>
    </g>
    <g text-rendering="geometricPrecision" shape-rendering="geometricPrecision" transform="matrix(1,0,0,1,-10,733)">
      <line y2="-443" fill="none" x1="688" clip-path="url(#clipPath8)" x2="967" y1="-443"/>
    </g>
    <g text-rendering="geometricPrecision" stroke-miterlimit="1.45" shape-rendering="geometricPrecision" font-family="sans-serif" transform="matrix(1,0,0,1,-10,733) translate(692,-438)" stroke-linecap="butt">
      <text x="0" xml:space="preserve" y="13" clip-path="url(#clipPath9)" stroke="none">- type : String</text>
      <text x="70" xml:space="preserve" y="13" clip-path="url(#clipPath9)" stroke="none"> </text>
      <text x="0" xml:space="preserve" y="29" clip-path="url(#clipPath9)" stroke="none">+ </text>
      <text x="10" xml:space="preserve" y="29" clip-path="url(#clipPath9)" stroke="none">INFANT_SCHOOL : String</text>
      <line y2="30" fill="none" x1="10" clip-path="url(#clipPath9)" x2="151" y1="30"/>
      <text x="151" xml:space="preserve" y="29" clip-path="url(#clipPath9)" stroke="none"> </text>
      <text x="0" xml:space="preserve" y="45" clip-path="url(#clipPath9)" stroke="none">+ </text>
      <text x="10" xml:space="preserve" y="45" clip-path="url(#clipPath9)" stroke="none">JUNIOR_SCHOOL : String</text>
      <line y2="46" fill="none" x1="10" clip-path="url(#clipPath9)" x2="154" y1="46"/>
      <text x="154" xml:space="preserve" y="45" clip-path="url(#clipPath9)" stroke="none"> </text>
      <text x="0" xml:space="preserve" y="61" clip-path="url(#clipPath9)" stroke="none">+ </text>
      <text x="10" xml:space="preserve" y="61" clip-path="url(#clipPath9)" stroke="none">SECONDARY_SCHOOL : String </text>
      <line y2="62" fill="none" x1="10" clip-path="url(#clipPath9)" x2="187" y1="62"/>
      <text x="187" xml:space="preserve" y="61" clip-path="url(#clipPath9)" stroke="none"> </text>
      <text x="0" xml:space="preserve" y="77" clip-path="url(#clipPath9)" stroke="none">+ </text>
      <text x="10" xml:space="preserve" y="77" clip-path="url(#clipPath9)" stroke="none">HIGH_SCHOOL</text>
      <line y2="78" fill="none" x1="10" clip-path="url(#clipPath9)" x2="98" y1="78"/>
      <text x="98" xml:space="preserve" y="77" clip-path="url(#clipPath9)" stroke="none"> : String</text>
    </g>
    <g text-rendering="geometricPrecision" shape-rendering="geometricPrecision" transform="matrix(1,0,0,1,-10,733)">
      <line y2="-353" fill="none" x1="688" clip-path="url(#clipPath8)" x2="967" y1="-353"/>
      <text stroke-linecap="butt" x="692.5" y="-336.0093" clip-path="url(#clipPath8)" font-family="sans-serif" stroke="none" stroke-miterlimit="1.45" xml:space="preserve">+ School(code : String, title : String, type : String)</text>
      <text stroke-linecap="butt" x="692.5" y="-321.3081" clip-path="url(#clipPath8)" font-family="sans-serif" stroke="none" stroke-miterlimit="1.45" xml:space="preserve">+ getSchoolType() : String</text>
      <text stroke-linecap="butt" x="692.5" y="-306.6069" clip-path="url(#clipPath8)" font-family="sans-serif" stroke="none" stroke-miterlimit="1.45" xml:space="preserve">+ equals(obj : Object) : boolean</text>
      <text stroke-linecap="butt" x="692.5" y="-291.9058" clip-path="url(#clipPath8)" font-family="sans-serif" stroke="none" stroke-miterlimit="1.45" xml:space="preserve">+ toString() : String</text>
      <path fill="none" stroke-miterlimit="1.45" d="M211 -202.0474 L211 -293.9527" clip-path="url(#clipPath2)" stroke-linecap="butt"/>
      <path stroke-miterlimit="1.45" d="M211 -297.9527 L205 -285.9527 L211 -297.9527 L217 -285.9527 Z" clip-path="url(#clipPath2)" stroke-linecap="butt" stroke="none"/>
      <path fill="none" d="M211 -297.9527 L205 -285.9527 L211 -297.9527 L217 -285.9527 Z" clip-path="url(#clipPath2)"/>
      <text stroke-linecap="butt" x="226.665" y="-281.7861" clip-path="url(#clipPath2)" font-family="sans-serif" stroke="none" stroke-miterlimit="1.45" xml:space="preserve">*</text>
      <path fill="none" stroke-miterlimit="1.45" d="M211 -452.0317 L211 -484.5 L211 -623.5 L399.5254 -623.5" clip-path="url(#clipPath2)" stroke-linecap="butt"/>
      <path stroke-miterlimit="1.45" d="M403.5254 -623.5 L391.5254 -629.5 L403.5254 -623.5 L391.5254 -617.5 Z" clip-path="url(#clipPath2)" stroke-linecap="butt" stroke="none"/>
      <path fill="none" d="M403.5254 -623.5 L391.5254 -629.5 L403.5254 -623.5 L391.5254 -617.5 Z" clip-path="url(#clipPath2)"/>
      <text stroke-linecap="butt" x="372.6631" y="-597.7114" clip-path="url(#clipPath2)" font-family="sans-serif" stroke="none" stroke-miterlimit="1.45" xml:space="preserve">1</text>
      <path fill="none" stroke-miterlimit="1.45" d="M519.5 -436.5314 L519.5 -549.9686" clip-path="url(#clipPath2)" stroke-linecap="butt"/>
    </g>
    <g stroke-linecap="butt" transform="matrix(1,0,0,1,-10,733)" fill="white" text-rendering="geometricPrecision" shape-rendering="geometricPrecision" stroke="white" stroke-miterlimit="1.45">
      <path d="M519.5 -564.9686 L513.5 -548.9686 L525.5 -548.9686 Z" stroke="none" clip-path="url(#clipPath2)"/>
      <path fill="none" d="M519.5 -564.9686 L513.5 -548.9686 L525.5 -548.9686 Z" clip-path="url(#clipPath2)" stroke="black"/>
      <path fill="none" d="M828 -469.0303 L828 -484.5 L519.5 -484.5 L519.5 -549.9607" clip-path="url(#clipPath2)" stroke="black"/>
      <path d="M519.5 -564.9607 L513.5 -548.9607 L525.5 -548.9607 Z" clip-path="url(#clipPath2)" stroke="none"/>
      <path fill="none" d="M519.5 -564.9607 L513.5 -548.9607 L525.5 -548.9607 Z" clip-path="url(#clipPath2)" stroke="black"/>
    </g>
  </g>
</svg>
