<?xml version="1.0" encoding="UTF-8"?><svg xmlns="http://www.w3.org/2000/svg" xmlns:xlink="http://www.w3.org/1999/xlink" fill-opacity="1" color-rendering="auto" color-interpolation="auto" text-rendering="auto" stroke="black" stroke-linecap="square" width="1112" stroke-miterlimit="10" shape-rendering="auto" stroke-opacity="1" fill="black" stroke-dasharray="none" font-weight="normal" stroke-width="1" height="628" font-family="'Dialog'" font-style="normal" stroke-linejoin="miter" font-size="12px" stroke-dashoffset="0" image-rendering="auto">
  <!--Generated by ySVG 2.5-->
  <defs id="genericDefs"/>
  <g>
    <defs id="defs1">
      <clipPath clipPathUnits="userSpaceOnUse" id="clipPath1">
        <path d="M0 0 L1112 0 L1112 628 L0 628 L0 0 Z"/>
      </clipPath>
      <clipPath clipPathUnits="userSpaceOnUse" id="clipPath2">
        <path d="M562 -172 L1674 -172 L1674 456 L562 456 L562 -172 Z"/>
      </clipPath>
      <clipPath clipPathUnits="userSpaceOnUse" id="clipPath3">
        <path d="M1133 -35 L1133 195 L1450 195 L1450 -35 Z"/>
      </clipPath>
      <clipPath clipPathUnits="userSpaceOnUse" id="clipPath4">
        <path d="M609 0 L609 160 L906 160 L906 0 Z"/>
      </clipPath>
      <clipPath clipPathUnits="userSpaceOnUse" id="clipPath5">
        <path d="M0 0 L0 18 L37 18 L37 0 Z"/>
      </clipPath>
      <clipPath clipPathUnits="userSpaceOnUse" id="clipPath6">
        <path d="M0 0 L0 80 L275 80 L275 0 Z"/>
      </clipPath>
      <clipPath clipPathUnits="userSpaceOnUse" id="clipPath7">
        <path d="M577 301 L577 440 L937 440 L937 301 Z"/>
      </clipPath>
      <clipPath clipPathUnits="userSpaceOnUse" id="clipPath8">
        <path d="M1205 301 L1205 440 L1463 440 L1463 301 Z"/>
      </clipPath>
    </defs>
    <g fill="rgb(204,255,204)" text-rendering="geometricPrecision" shape-rendering="geometricPrecision" transform="matrix(1,0,0,1,-562,172)" stroke="rgb(204,255,204)">
      <rect x="1134" width="315" height="228" y="-34" clip-path="url(#clipPath2)" stroke="none"/>
    </g>
    <g fill="white" text-rendering="geometricPrecision" shape-rendering="geometricPrecision" transform="matrix(1,0,0,1,-562,172)" stroke="white">
      <rect x="1133" width="1" height="230" y="-35" clip-path="url(#clipPath2)" stroke="none"/>
      <rect x="1134" width="315" height="1" y="-35" clip-path="url(#clipPath2)" stroke="none"/>
      <rect x="1134" y="194" clip-path="url(#clipPath2)" fill="rgb(142,178,142)" width="316" height="1" stroke="none"/>
      <rect x="1449" y="-35" clip-path="url(#clipPath2)" fill="rgb(142,178,142)" width="1" height="229" stroke="none"/>
    </g>
    <g font-size="13px" stroke-linecap="butt" transform="matrix(1,0,0,1,-562,172)" text-rendering="geometricPrecision" font-family="sans-serif" shape-rendering="geometricPrecision" font-weight="bold" stroke-miterlimit="1.45">
      <text x="1264.5208" xml:space="preserve" y="-16.9302" clip-path="url(#clipPath3)" stroke="none">BookList</text>
    </g>
    <g text-rendering="geometricPrecision" shape-rendering="geometricPrecision" transform="matrix(1,0,0,1,-562,172)">
      <line y2="-9" fill="none" x1="1134" clip-path="url(#clipPath3)" x2="1449" y1="-9"/>
      <line y2="0" fill="none" x1="1134" clip-path="url(#clipPath3)" x2="1449" y1="0"/>
      <text stroke-linecap="butt" x="1138.8267" y="17.9907" clip-path="url(#clipPath3)" font-family="sans-serif" stroke="none" stroke-miterlimit="1.45" xml:space="preserve">+ BookList()</text>
      <text stroke-linecap="butt" x="1138.8267" y="32.6919" clip-path="url(#clipPath3)" font-family="sans-serif" stroke="none" stroke-miterlimit="1.45" xml:space="preserve">+ getNumberOfBooks() : int</text>
      <text stroke-linecap="butt" x="1138.8267" y="47.3931" clip-path="url(#clipPath3)" font-family="sans-serif" stroke="none" stroke-miterlimit="1.45" xml:space="preserve">+ addBook(book : Book) : void</text>
      <text stroke-linecap="butt" x="1138.8267" y="62.0942" clip-path="url(#clipPath3)" font-family="sans-serif" stroke="none" stroke-miterlimit="1.45" xml:space="preserve">+ getBook(index : int) : Book</text>
      <text stroke-linecap="butt" x="1138.8267" y="76.7954" clip-path="url(#clipPath3)" font-family="sans-serif" stroke="none" stroke-miterlimit="1.45" xml:space="preserve">+ getBook(isbn : String) : Book</text>
      <text stroke-linecap="butt" x="1138.8267" y="91.4966" clip-path="url(#clipPath3)" font-family="sans-serif" stroke="none" stroke-miterlimit="1.45" xml:space="preserve">+ removeBook(index : int) : Book</text>
      <text stroke-linecap="butt" x="1138.8267" y="106.1978" clip-path="url(#clipPath3)" font-family="sans-serif" stroke="none" stroke-miterlimit="1.45" xml:space="preserve">+ getIndexOfFirstPrintedBook() : int</text>
      <text stroke-linecap="butt" x="1138.8267" y="120.8989" clip-path="url(#clipPath3)" font-family="sans-serif" stroke="none" stroke-miterlimit="1.45" xml:space="preserve">+ getNumberOfBooksByType(bookType : String) : int</text>
      <text stroke-linecap="butt" x="1138.8267" y="135.6001" clip-path="url(#clipPath3)" font-family="sans-serif" stroke="none" stroke-miterlimit="1.45" xml:space="preserve">+ getBooksByType(bookType : String) : Book[]</text>
      <text stroke-linecap="butt" x="1138.8267" y="150.3013" clip-path="url(#clipPath3)" font-family="sans-serif" stroke="none" stroke-miterlimit="1.45" xml:space="preserve">+ getAllEBooks() : EBook[]</text>
      <text stroke-linecap="butt" x="1138.8267" y="165.0024" clip-path="url(#clipPath3)" font-family="sans-serif" stroke="none" stroke-miterlimit="1.45" xml:space="preserve">+ toString() : String</text>
      <text stroke-linecap="butt" x="1138.8267" y="179.7036" clip-path="url(#clipPath3)" font-family="sans-serif" stroke="none" stroke-miterlimit="1.45" xml:space="preserve">+ equals(obj : Object) : boolean</text>
      <rect x="610" y="1" clip-path="url(#clipPath2)" fill="rgb(204,255,204)" width="295" height="158" stroke="none"/>
      <rect x="609" y="0" clip-path="url(#clipPath2)" fill="white" width="1" height="160" stroke="none"/>
      <rect x="610" y="0" clip-path="url(#clipPath2)" fill="white" width="295" height="1" stroke="none"/>
      <rect x="610" y="159" clip-path="url(#clipPath2)" fill="rgb(142,178,142)" width="296" height="1" stroke="none"/>
      <rect x="905" y="0" clip-path="url(#clipPath2)" fill="rgb(142,178,142)" width="1" height="159" stroke="none"/>
    </g>
    <g stroke-linecap="butt" font-size="13px" transform="matrix(1,0,0,1,-562,172) translate(739,5)" text-rendering="geometricPrecision" font-family="sans-serif" shape-rendering="geometricPrecision" font-style="italic" font-weight="bold" stroke-miterlimit="1.45">
      <text x="0" xml:space="preserve" y="15" clip-path="url(#clipPath5)" stroke="none">Book </text>
    </g>
    <g text-rendering="geometricPrecision" shape-rendering="geometricPrecision" transform="matrix(1,0,0,1,-562,172)">
      <line y2="28" fill="none" x1="610" clip-path="url(#clipPath4)" x2="905" y1="28"/>
      <text stroke-linecap="butt" x="614.2147" y="45.0645" clip-path="url(#clipPath4)" font-family="sans-serif" stroke="none" stroke-miterlimit="1.45" xml:space="preserve">- title : String</text>
      <text stroke-linecap="butt" x="614.2147" y="59.7656" clip-path="url(#clipPath4)" font-family="sans-serif" stroke="none" stroke-miterlimit="1.45" xml:space="preserve">- isbn : String</text>
      <line y2="67" fill="none" x1="610" clip-path="url(#clipPath4)" x2="905" y1="67"/>
    </g>
    <g text-rendering="geometricPrecision" stroke-miterlimit="1.45" shape-rendering="geometricPrecision" font-family="sans-serif" transform="matrix(1,0,0,1,-562,172) translate(614,72)" stroke-linecap="butt">
      <text x="0" xml:space="preserve" y="13" clip-path="url(#clipPath6)" stroke="none">+ Book(title : String, isbn : String)</text>
      <text x="177" xml:space="preserve" y="13" clip-path="url(#clipPath6)" stroke="none"> </text>
      <text x="0" xml:space="preserve" y="29" clip-path="url(#clipPath6)" stroke="none">+ getTitle() : String</text>
      <text x="99" xml:space="preserve" y="29" clip-path="url(#clipPath6)" stroke="none"> </text>
      <text x="0" xml:space="preserve" y="45" clip-path="url(#clipPath6)" stroke="none">+ getIsbn() : String</text>
      <text x="100" xml:space="preserve" y="45" clip-path="url(#clipPath6)" stroke="none"> </text>
      <text x="0" xml:space="preserve" y="61" clip-path="url(#clipPath6)" stroke="none">+ </text>
      <text font-style="italic" x="10" xml:space="preserve" y="61" clip-path="url(#clipPath6)" stroke="none">getBookType() : String</text>
      <text x="132" xml:space="preserve" y="61" clip-path="url(#clipPath6)" stroke="none"> </text>
      <text x="0" xml:space="preserve" y="77" clip-path="url(#clipPath6)" stroke="none">+ toString() : String + equals(obj : Object) : boolean</text>
    </g>
    <g fill="rgb(204,255,204)" text-rendering="geometricPrecision" shape-rendering="geometricPrecision" transform="matrix(1,0,0,1,-562,172)" stroke="rgb(204,255,204)">
      <rect x="578" width="358" height="137" y="302" clip-path="url(#clipPath2)" stroke="none"/>
      <rect x="577" y="301" clip-path="url(#clipPath2)" fill="white" width="1" height="139" stroke="none"/>
      <rect x="578" y="301" clip-path="url(#clipPath2)" fill="white" width="358" height="1" stroke="none"/>
      <rect x="578" y="439" clip-path="url(#clipPath2)" fill="rgb(142,178,142)" width="359" height="1" stroke="none"/>
      <rect x="936" y="301" clip-path="url(#clipPath2)" fill="rgb(142,178,142)" width="1" height="138" stroke="none"/>
    </g>
    <g font-size="13px" stroke-linecap="butt" transform="matrix(1,0,0,1,-562,172)" text-rendering="geometricPrecision" font-family="sans-serif" shape-rendering="geometricPrecision" font-weight="bold" stroke-miterlimit="1.45">
      <text x="719.0733" xml:space="preserve" y="319.5698" clip-path="url(#clipPath7)" stroke="none">PrintedBook</text>
    </g>
    <g text-rendering="geometricPrecision" shape-rendering="geometricPrecision" transform="matrix(1,0,0,1,-562,172)">
      <line y2="327" fill="none" x1="578" clip-path="url(#clipPath7)" x2="936" y1="327"/>
      <text stroke-linecap="butt" x="582.7147" y="344.4907" clip-path="url(#clipPath7)" font-family="sans-serif" stroke="none" stroke-miterlimit="1.45" xml:space="preserve">- isPaperBack : boolean</text>
      <line y2="352" fill="none" x1="578" clip-path="url(#clipPath7)" x2="936" y1="352"/>
      <text stroke-linecap="butt" x="582.7147" y="369.1919" clip-path="url(#clipPath7)" font-family="sans-serif" stroke="none" stroke-miterlimit="1.45" xml:space="preserve">+ PrintedBook(title : String, isbn : String, paperback : boolean)</text>
      <text stroke-linecap="butt" x="582.7147" y="383.8931" clip-path="url(#clipPath7)" font-family="sans-serif" stroke="none" stroke-miterlimit="1.45" xml:space="preserve">+ isPaperBack() : boolean</text>
      <text stroke-linecap="butt" x="582.7147" y="398.5942" clip-path="url(#clipPath7)" font-family="sans-serif" stroke="none" stroke-miterlimit="1.45" xml:space="preserve">+ getBookType() : String</text>
      <text stroke-linecap="butt" x="582.7147" y="413.2954" clip-path="url(#clipPath7)" font-family="sans-serif" stroke="none" stroke-miterlimit="1.45" xml:space="preserve">+ toString() : String</text>
      <text stroke-linecap="butt" x="582.7147" y="427.9966" clip-path="url(#clipPath7)" font-family="sans-serif" stroke="none" stroke-miterlimit="1.45" xml:space="preserve">+ equals(obj : Object) : boolean</text>
      <rect x="1206" y="302" clip-path="url(#clipPath2)" fill="rgb(204,255,204)" width="256" height="137" stroke="none"/>
      <rect x="1205" y="301" clip-path="url(#clipPath2)" fill="white" width="1" height="139" stroke="none"/>
      <rect x="1206" y="301" clip-path="url(#clipPath2)" fill="white" width="256" height="1" stroke="none"/>
      <rect x="1206" y="439" clip-path="url(#clipPath2)" fill="rgb(142,178,142)" width="257" height="1" stroke="none"/>
      <rect x="1462" y="301" clip-path="url(#clipPath2)" fill="rgb(142,178,142)" width="1" height="138" stroke="none"/>
    </g>
    <g font-size="13px" stroke-linecap="butt" transform="matrix(1,0,0,1,-562,172)" text-rendering="geometricPrecision" font-family="sans-serif" shape-rendering="geometricPrecision" font-weight="bold" stroke-miterlimit="1.45">
      <text x="1313.8435" xml:space="preserve" y="319.5698" clip-path="url(#clipPath8)" stroke="none">EBook</text>
    </g>
    <g text-rendering="geometricPrecision" shape-rendering="geometricPrecision" transform="matrix(1,0,0,1,-562,172)">
      <line y2="327" fill="none" x1="1206" clip-path="url(#clipPath8)" x2="1462" y1="327"/>
      <text stroke-linecap="butt" x="1210.429" y="344.4907" clip-path="url(#clipPath8)" font-family="sans-serif" stroke="none" stroke-miterlimit="1.45" xml:space="preserve">- url : String</text>
      <line y2="352" fill="none" x1="1206" clip-path="url(#clipPath8)" x2="1462" y1="352"/>
      <text stroke-linecap="butt" x="1210.429" y="369.1919" clip-path="url(#clipPath8)" font-family="sans-serif" stroke="none" stroke-miterlimit="1.45" xml:space="preserve">+ EBook(url : String, title : String, isbn : String)</text>
      <text stroke-linecap="butt" x="1210.429" y="383.8931" clip-path="url(#clipPath8)" font-family="sans-serif" stroke="none" stroke-miterlimit="1.45" xml:space="preserve">+ getUrl() : String</text>
      <text stroke-linecap="butt" x="1210.429" y="398.5942" clip-path="url(#clipPath8)" font-family="sans-serif" stroke="none" stroke-miterlimit="1.45" xml:space="preserve">+ getBookType() : String</text>
      <text stroke-linecap="butt" x="1210.429" y="413.2954" clip-path="url(#clipPath8)" font-family="sans-serif" stroke="none" stroke-miterlimit="1.45" xml:space="preserve">+ toString() : String</text>
      <text stroke-linecap="butt" x="1210.429" y="427.9966" clip-path="url(#clipPath8)" font-family="sans-serif" stroke="none" stroke-miterlimit="1.45" xml:space="preserve">+ equals(obj : Object) : boolean</text>
      <path fill="rgb(255,204,153)" d="M1372.5146 -156.5378 L1518.2289 -156.5378 L1518.2289 -141.5378 L1533.2289 -141.5378 L1533.2289 -111.5378 L1372.5146 -111.5378 Z" clip-path="url(#clipPath2)" stroke="none"/>
      <path fill="white" d="M1518.2289 -156.5378 L1518.2289 -141.5378 L1533.2289 -141.5378 Z" clip-path="url(#clipPath2)" fill-rule="evenodd" stroke="none"/>
      <path fill="none" stroke-miterlimit="1.45" d="M1372.5146 -156.5378 L1518.2289 -156.5378 L1518.2289 -141.5378 L1533.2289 -141.5378 L1533.2289 -111.5378 L1372.5146 -111.5378 Z" clip-path="url(#clipPath2)" stroke-linecap="butt"/>
      <path fill="none" stroke-miterlimit="1.45" d="M1518.2289 -156.5378 L1518.2289 -141.5378 L1533.2289 -141.5378 Z" fill-rule="evenodd" clip-path="url(#clipPath2)" stroke-linecap="butt"/>
      <text stroke-linecap="butt" x="1391.5065" y="-136.6746" clip-path="url(#clipPath2)" font-family="sans-serif" stroke="none" stroke-miterlimit="1.45" xml:space="preserve">It is OK to add an extra</text>
      <text stroke-linecap="butt" x="1391.5123" y="-121.9734" clip-path="url(#clipPath2)" font-family="sans-serif" stroke="none" stroke-miterlimit="1.45" xml:space="preserve">instance variable (size)</text>
      <path fill="rgb(255,204,153)" d="M1017.7147 334.5 L1170.429 334.5 L1170.429 349.5 L1185.429 349.5 L1185.429 407.5 L1017.7147 407.5 Z" clip-path="url(#clipPath2)" stroke="none"/>
      <path fill="white" d="M1170.429 334.5 L1170.429 349.5 L1185.429 349.5 Z" clip-path="url(#clipPath2)" fill-rule="evenodd" stroke="none"/>
      <path fill="none" stroke-miterlimit="1.45" d="M1017.7147 334.5 L1170.429 334.5 L1170.429 349.5 L1185.429 349.5 L1185.429 407.5 L1017.7147 407.5 Z" clip-path="url(#clipPath2)" stroke-linecap="butt"/>
      <path fill="none" stroke-miterlimit="1.45" d="M1170.429 334.5 L1170.429 349.5 L1185.429 349.5 Z" fill-rule="evenodd" clip-path="url(#clipPath2)" stroke-linecap="butt"/>
      <text stroke-linecap="butt" x="1060.5532" y="353.6621" clip-path="url(#clipPath2)" font-family="sans-serif" stroke="none" stroke-miterlimit="1.45" xml:space="preserve">getBookType():</text>
      <text stroke-linecap="butt" x="1044.2847" y="368.3633" clip-path="url(#clipPath2)" font-family="sans-serif" stroke="none" stroke-miterlimit="1.45" xml:space="preserve">return "Paperback" or</text>
      <text stroke-linecap="butt" x="1028.2651" y="383.0645" clip-path="url(#clipPath2)" font-family="sans-serif" stroke="none" stroke-miterlimit="1.45" xml:space="preserve">"Hard cover" depending on </text>
      <text stroke-linecap="butt" x="1045.8726" y="397.7656" clip-path="url(#clipPath2)" font-family="sans-serif" stroke="none" stroke-miterlimit="1.45" xml:space="preserve">the field isPaperback</text>
      <path fill="rgb(255,204,153)" d="M1543.429 343.2108 L1643.1433 343.2108 L1643.1433 358.2108 L1658.1433 358.2108 L1658.1433 398.7892 L1543.429 398.7892 Z" clip-path="url(#clipPath2)" stroke="none"/>
      <path fill="white" d="M1643.1433 343.2108 L1643.1433 358.2108 L1658.1433 358.2108 Z" clip-path="url(#clipPath2)" fill-rule="evenodd" stroke="none"/>
      <path fill="none" stroke-miterlimit="1.45" d="M1543.429 343.2108 L1643.1433 343.2108 L1643.1433 358.2108 L1658.1433 358.2108 L1658.1433 398.7892 L1543.429 398.7892 Z" clip-path="url(#clipPath2)" stroke-linecap="butt"/>
      <path fill="none" stroke-miterlimit="1.45" d="M1643.1433 343.2108 L1643.1433 358.2108 L1658.1433 358.2108 Z" fill-rule="evenodd" clip-path="url(#clipPath2)" stroke-linecap="butt"/>
      <text stroke-linecap="butt" x="1559.7676" y="368.3633" clip-path="url(#clipPath2)" font-family="sans-serif" stroke="none" stroke-miterlimit="1.45" xml:space="preserve">getBookType():</text>
      <text stroke-linecap="butt" x="1560.1748" y="383.0645" clip-path="url(#clipPath2)" font-family="sans-serif" stroke="none" stroke-miterlimit="1.45" xml:space="preserve">return "E-book"</text>
      <path fill="none" stroke-miterlimit="1.45" d="M1133.8422 80 L911.2465 80" clip-path="url(#clipPath2)" stroke-linecap="butt"/>
      <path stroke-miterlimit="1.45" d="M907.2465 80 L919.2465 86 L907.2465 80 L919.2465 74 Z" clip-path="url(#clipPath2)" stroke-linecap="butt" stroke="none"/>
      <path fill="none" d="M907.2465 80 L919.2465 86 L907.2465 80 L919.2465 74 Z" clip-path="url(#clipPath2)"/>
      <text stroke-linecap="butt" x="919.5768" y="69.2072" clip-path="url(#clipPath2)" font-family="sans-serif" stroke="none" stroke-miterlimit="1.45" xml:space="preserve">*</text>
      <path fill="none" stroke-miterlimit="1.45" d="M757.7147 301.4655 L757.7147 175.0345" clip-path="url(#clipPath2)" stroke-linecap="butt"/>
    </g>
    <g stroke-linecap="butt" transform="matrix(1,0,0,1,-562,172)" fill="white" text-rendering="geometricPrecision" shape-rendering="geometricPrecision" stroke="white" stroke-miterlimit="1.45">
      <path d="M757.7147 160.0345 L751.7147 176.0345 L763.7147 176.0345 Z" stroke="none" clip-path="url(#clipPath2)"/>
      <path fill="none" d="M757.7147 160.0345 L751.7147 176.0345 L763.7147 176.0345 Z" clip-path="url(#clipPath2)" stroke="black"/>
      <path fill="none" d="M1334.429 301.4702 L1334.429 240.5 L757.7147 240.5 L757.7147 175.0393" clip-path="url(#clipPath2)" stroke="black"/>
      <path d="M757.7147 160.0393 L751.7147 176.0393 L763.7147 176.0393 Z" clip-path="url(#clipPath2)" stroke="none"/>
      <path fill="none" d="M757.7147 160.0393 L751.7147 176.0393 L763.7147 176.0393 Z" clip-path="url(#clipPath2)" stroke="black"/>
      <path fill="none" stroke-dasharray="6,2" d="M1372.4969 -134.0031 L1322.0551 -35.01" clip-path="url(#clipPath2)" stroke="black"/>
      <path fill="none" stroke-dasharray="6,2" d="M1017.6756 371 L937.7537 371" clip-path="url(#clipPath2)" stroke="black"/>
      <path fill="none" stroke-dasharray="6,2" d="M1543.3899 371 L1463.468 371" clip-path="url(#clipPath2)" stroke="black"/>
    </g>
  </g>
</svg>
