<?xml version="1.0" encoding="UTF-8"?><svg xmlns="http://www.w3.org/2000/svg" xmlns:xlink="http://www.w3.org/1999/xlink" fill-opacity="1" color-rendering="auto" color-interpolation="auto" text-rendering="auto" stroke="black" stroke-linecap="square" width="1038" stroke-miterlimit="10" shape-rendering="auto" stroke-opacity="1" fill="black" stroke-dasharray="none" font-weight="normal" stroke-width="1" height="726" font-family="'Dialog'" font-style="normal" stroke-linejoin="miter" font-size="12px" stroke-dashoffset="0" image-rendering="auto">
  <!--Generated by ySVG 2.5-->
  <defs id="genericDefs"/>
  <g>
    <defs id="defs1">
      <clipPath clipPathUnits="userSpaceOnUse" id="clipPath1">
        <path d="M0 0 L1038 0 L1038 726 L0 726 L0 0 Z"/>
      </clipPath>
      <clipPath clipPathUnits="userSpaceOnUse" id="clipPath2">
        <path d="M-197 -711 L841 -711 L841 15 L-197 15 L-197 -711 Z"/>
      </clipPath>
      <clipPath clipPathUnits="userSpaceOnUse" id="clipPath3">
        <path d="M199 -696 L199 -520 L449 -520 L449 -696 Z"/>
      </clipPath>
      <clipPath clipPathUnits="userSpaceOnUse" id="clipPath4">
        <path d="M242 -490 L242 -371 L407 -371 L407 -490 Z"/>
      </clipPath>
      <clipPath clipPathUnits="userSpaceOnUse" id="clipPath5">
        <path d="M0 0 L0 60 L144 60 L144 0 Z"/>
      </clipPath>
      <clipPath clipPathUnits="userSpaceOnUse" id="clipPath6">
        <path d="M341 -325 L341 -206 L616 -206 L616 -325 Z"/>
      </clipPath>
      <clipPath clipPathUnits="userSpaceOnUse" id="clipPath7">
        <path d="M42 -176 L42 0 L298 0 L298 -176 Z"/>
      </clipPath>
      <clipPath clipPathUnits="userSpaceOnUse" id="clipPath8">
        <path d="M30 -317 L30 -214 L311 -214 L311 -317 Z"/>
      </clipPath>
    </defs>
    <g fill="white" text-rendering="geometricPrecision" shape-rendering="geometricPrecision" transform="translate(197,711)" stroke="white">
      <rect x="-197" width="1038" height="726" y="-711" clip-path="url(#clipPath2)" stroke="none"/>
    </g>
    <g fill="rgb(204,255,204)" text-rendering="geometricPrecision" shape-rendering="geometricPrecision" transform="matrix(1,0,0,1,197,711)" stroke="rgb(204,255,204)">
      <rect x="200" width="248" height="174" y="-695" clip-path="url(#clipPath2)" stroke="none"/>
      <rect x="199" y="-696" clip-path="url(#clipPath2)" fill="white" width="1" height="176" stroke="none"/>
      <rect x="200" y="-696" clip-path="url(#clipPath2)" fill="white" width="248" height="1" stroke="none"/>
      <rect x="200" y="-521" clip-path="url(#clipPath2)" fill="rgb(142,178,142)" width="249" height="1" stroke="none"/>
      <rect x="448" y="-696" clip-path="url(#clipPath2)" fill="rgb(142,178,142)" width="1" height="175" stroke="none"/>
    </g>
    <g font-size="13px" stroke-linecap="butt" transform="matrix(1,0,0,1,197,711)" text-rendering="geometricPrecision" font-family="sans-serif" shape-rendering="geometricPrecision" font-weight="bold" stroke-miterlimit="1.45">
      <text x="292.1873" xml:space="preserve" y="-678.4316" clip-path="url(#clipPath3)" stroke="none">Notebook</text>
    </g>
    <g text-rendering="geometricPrecision" shape-rendering="geometricPrecision" transform="matrix(1,0,0,1,197,711)">
      <line y2="-670" fill="none" x1="200" clip-path="url(#clipPath3)" x2="448" y1="-670"/>
      <text stroke-linecap="butt" x="204.5" y="-654.0879" clip-path="url(#clipPath3)" font-family="sans-serif" stroke="none" stroke-miterlimit="1.45" xml:space="preserve">- numberOfNotes : int</text>
      <line y2="-646" fill="none" x1="200" clip-path="url(#clipPath3)" x2="448" y1="-646"/>
      <text stroke-linecap="butt" x="204.5" y="-629.9551" clip-path="url(#clipPath3)" font-family="sans-serif" stroke="none" stroke-miterlimit="1.45" xml:space="preserve">+ Notebook(maxNumberofNotes : int)</text>
      <text stroke-linecap="butt" x="204.5" y="-615.8223" clip-path="url(#clipPath3)" font-family="sans-serif" stroke="none" stroke-miterlimit="1.45" xml:space="preserve">+ addNote(note : Note) : void</text>
      <text stroke-linecap="butt" x="204.5" y="-601.6895" clip-path="url(#clipPath3)" font-family="sans-serif" stroke="none" stroke-miterlimit="1.45" xml:space="preserve">+ setNote(note : Note, index : int) : void</text>
      <text stroke-linecap="butt" x="204.5" y="-587.5566" clip-path="url(#clipPath3)" font-family="sans-serif" stroke="none" stroke-miterlimit="1.45" xml:space="preserve">+ removeNote(index : int) : void</text>
      <text stroke-linecap="butt" x="204.5" y="-573.4238" clip-path="url(#clipPath3)" font-family="sans-serif" stroke="none" stroke-miterlimit="1.45" xml:space="preserve">+ getNote(index : int) : Note</text>
      <text stroke-linecap="butt" x="204.5" y="-559.291" clip-path="url(#clipPath3)" font-family="sans-serif" stroke="none" stroke-miterlimit="1.45" xml:space="preserve">+ getNumberOfPriorityNotes() : int</text>
      <text stroke-linecap="butt" x="204.5" y="-545.1582" clip-path="url(#clipPath3)" font-family="sans-serif" stroke="none" stroke-miterlimit="1.45" xml:space="preserve">+ getPriorityNotes() : PriorityNote[]</text>
      <text stroke-linecap="butt" x="204.5" y="-531.0254" clip-path="url(#clipPath3)" font-family="sans-serif" stroke="none" stroke-miterlimit="1.45" xml:space="preserve">+ toString() : String</text>
      <rect x="243" y="-489" clip-path="url(#clipPath2)" fill="rgb(204,255,204)" width="163" height="117" stroke="none"/>
      <rect x="242" y="-490" clip-path="url(#clipPath2)" fill="white" width="1" height="119" stroke="none"/>
      <rect x="243" y="-490" clip-path="url(#clipPath2)" fill="white" width="163" height="1" stroke="none"/>
      <rect x="243" y="-372" clip-path="url(#clipPath2)" fill="rgb(142,178,142)" width="164" height="1" stroke="none"/>
      <rect x="406" y="-490" clip-path="url(#clipPath2)" fill="rgb(142,178,142)" width="1" height="118" stroke="none"/>
    </g>
    <g font-size="13px" stroke-linecap="butt" transform="matrix(1,0,0,1,197,711)" text-rendering="geometricPrecision" font-family="sans-serif" shape-rendering="geometricPrecision" font-weight="bold" stroke-miterlimit="1.45">
      <text x="308.9102" xml:space="preserve" y="-472.4316" clip-path="url(#clipPath4)" stroke="none">Note</text>
    </g>
    <g text-rendering="geometricPrecision" shape-rendering="geometricPrecision" transform="matrix(1,0,0,1,197,711)">
      <line y2="-464" fill="none" x1="243" clip-path="url(#clipPath4)" x2="406" y1="-464"/>
      <text stroke-linecap="butt" x="247" y="-448.0879" clip-path="url(#clipPath4)" font-family="sans-serif" stroke="none" stroke-miterlimit="1.45" xml:space="preserve">- message : String</text>
      <line y2="-440" fill="none" x1="243" clip-path="url(#clipPath4)" x2="406" y1="-440"/>
    </g>
    <g text-rendering="geometricPrecision" stroke-miterlimit="1.45" shape-rendering="geometricPrecision" font-family="sans-serif" transform="matrix(1,0,0,1,197,711) translate(247,-435)" stroke-linecap="butt">
      <text x="0" xml:space="preserve" y="12" clip-path="url(#clipPath5)" stroke="none">+ Note(message : String)</text>
      <text x="144" xml:space="preserve" y="12" clip-path="url(#clipPath5)" stroke="none"> </text>
      <text x="0" xml:space="preserve" y="27" clip-path="url(#clipPath5)" stroke="none">+ getMessage() : String</text>
      <text x="134" xml:space="preserve" y="27" clip-path="url(#clipPath5)" stroke="none"> </text>
      <text font-style="italic" x="0" xml:space="preserve" y="42" clip-path="url(#clipPath5)" stroke="none">+ copy() : Note</text>
      <text x="88" xml:space="preserve" y="42" clip-path="url(#clipPath5)" stroke="none"> </text>
      <text x="0" xml:space="preserve" y="57" clip-path="url(#clipPath5)" stroke="none">+ toString() : String</text>
    </g>
    <g fill="rgb(204,255,204)" text-rendering="geometricPrecision" shape-rendering="geometricPrecision" transform="matrix(1,0,0,1,197,711)" stroke="rgb(204,255,204)">
      <rect x="342" width="273" height="117" y="-324" clip-path="url(#clipPath2)" stroke="none"/>
      <rect x="341" y="-325" clip-path="url(#clipPath2)" fill="white" width="1" height="119" stroke="none"/>
      <rect x="342" y="-325" clip-path="url(#clipPath2)" fill="white" width="273" height="1" stroke="none"/>
      <rect x="342" y="-207" clip-path="url(#clipPath2)" fill="rgb(142,178,142)" width="274" height="1" stroke="none"/>
      <rect x="615" y="-325" clip-path="url(#clipPath2)" fill="rgb(142,178,142)" width="1" height="118" stroke="none"/>
    </g>
    <g font-size="13px" stroke-linecap="butt" transform="matrix(1,0,0,1,197,711)" text-rendering="geometricPrecision" font-family="sans-serif" shape-rendering="geometricPrecision" font-weight="bold" stroke-miterlimit="1.45">
      <text x="438.2114" xml:space="preserve" y="-307.4316" clip-path="url(#clipPath6)" stroke="none">PriorityNote</text>
    </g>
    <g text-rendering="geometricPrecision" shape-rendering="geometricPrecision" transform="matrix(1,0,0,1,197,711)">
      <line y2="-299" fill="none" x1="342" clip-path="url(#clipPath6)" x2="615" y1="-299"/>
      <text stroke-linecap="butt" x="346" y="-283.0879" clip-path="url(#clipPath6)" font-family="sans-serif" stroke="none" stroke-miterlimit="1.45" xml:space="preserve">- priority : int</text>
      <line y2="-275" fill="none" x1="342" clip-path="url(#clipPath6)" x2="615" y1="-275"/>
      <text stroke-linecap="butt" x="346" y="-258.9551" clip-path="url(#clipPath6)" font-family="sans-serif" stroke="none" stroke-miterlimit="1.45" xml:space="preserve">+ PriorityNote(message : String, priority : int)</text>
      <text stroke-linecap="butt" x="346" y="-244.8223" clip-path="url(#clipPath6)" font-family="sans-serif" stroke="none" stroke-miterlimit="1.45" xml:space="preserve">+ getPriority() : int</text>
      <text stroke-linecap="butt" x="346" y="-230.6895" clip-path="url(#clipPath6)" font-family="sans-serif" stroke="none" stroke-miterlimit="1.45" xml:space="preserve">+ copy() : Note</text>
      <text stroke-linecap="butt" x="346" y="-216.5566" clip-path="url(#clipPath6)" font-family="sans-serif" stroke="none" stroke-miterlimit="1.45" xml:space="preserve">+ toString() : String</text>
      <rect x="43" y="-175" clip-path="url(#clipPath2)" fill="rgb(204,255,204)" width="254" height="174" stroke="none"/>
      <rect x="42" y="-176" clip-path="url(#clipPath2)" fill="white" width="1" height="176" stroke="none"/>
      <rect x="43" y="-176" clip-path="url(#clipPath2)" fill="white" width="254" height="1" stroke="none"/>
      <rect x="43" y="-1" clip-path="url(#clipPath2)" fill="rgb(142,178,142)" width="255" height="1" stroke="none"/>
      <rect x="297" y="-176" clip-path="url(#clipPath2)" fill="rgb(142,178,142)" width="1" height="175" stroke="none"/>
    </g>
    <g font-size="13px" stroke-linecap="butt" transform="matrix(1,0,0,1,197,711)" text-rendering="geometricPrecision" font-family="sans-serif" shape-rendering="geometricPrecision" font-weight="bold" stroke-miterlimit="1.45">
      <text x="145.3918" xml:space="preserve" y="-158.4316" clip-path="url(#clipPath7)" stroke="none">MyDate</text>
    </g>
    <g text-rendering="geometricPrecision" shape-rendering="geometricPrecision" transform="matrix(1,0,0,1,197,711)">
      <line y2="-150" fill="none" x1="43" clip-path="url(#clipPath7)" x2="297" y1="-150"/>
      <text stroke-linecap="butt" x="47.5" y="-134.0879" clip-path="url(#clipPath7)" font-family="sans-serif" stroke="none" stroke-miterlimit="1.45" xml:space="preserve">- day : int</text>
      <text stroke-linecap="butt" x="47.5" y="-119.9551" clip-path="url(#clipPath7)" font-family="sans-serif" stroke="none" stroke-miterlimit="1.45" xml:space="preserve">- month : int</text>
      <text stroke-linecap="butt" x="47.5" y="-105.8223" clip-path="url(#clipPath7)" font-family="sans-serif" stroke="none" stroke-miterlimit="1.45" xml:space="preserve">- year : int</text>
      <line y2="-98" fill="none" x1="43" clip-path="url(#clipPath7)" x2="297" y1="-98"/>
      <text stroke-linecap="butt" x="47.5" y="-81.6895" clip-path="url(#clipPath7)" font-family="sans-serif" stroke="none" stroke-miterlimit="1.45" xml:space="preserve">+ MyDate(day : int, month : int, year : int)</text>
      <text stroke-linecap="butt" x="47.5" y="-67.5566" clip-path="url(#clipPath7)" font-family="sans-serif" stroke="none" stroke-miterlimit="1.45" xml:space="preserve">+ getDay() : int</text>
      <text stroke-linecap="butt" x="47.5" y="-53.4238" clip-path="url(#clipPath7)" font-family="sans-serif" stroke="none" stroke-miterlimit="1.45" xml:space="preserve">+ getMonth() : int</text>
      <text stroke-linecap="butt" x="47.5" y="-39.291" clip-path="url(#clipPath7)" font-family="sans-serif" stroke="none" stroke-miterlimit="1.45" xml:space="preserve">+ getYear() : int</text>
      <text stroke-linecap="butt" x="47.5" y="-25.1582" clip-path="url(#clipPath7)" font-family="sans-serif" stroke="none" stroke-miterlimit="1.45" xml:space="preserve">+ copy() : MyDate</text>
      <text stroke-linecap="butt" x="47.5" y="-11.0254" clip-path="url(#clipPath7)" font-family="sans-serif" stroke="none" stroke-miterlimit="1.45" xml:space="preserve">+ toString() : String</text>
      <rect x="31" y="-316" clip-path="url(#clipPath2)" fill="rgb(204,255,204)" width="279" height="101" stroke="none"/>
      <rect x="30" y="-317" clip-path="url(#clipPath2)" fill="white" width="1" height="103" stroke="none"/>
      <rect x="31" y="-317" clip-path="url(#clipPath2)" fill="white" width="279" height="1" stroke="none"/>
      <rect x="31" y="-215" clip-path="url(#clipPath2)" fill="rgb(142,178,142)" width="280" height="1" stroke="none"/>
      <rect x="310" y="-317" clip-path="url(#clipPath2)" fill="rgb(142,178,142)" width="1" height="102" stroke="none"/>
    </g>
    <g font-size="13px" stroke-linecap="butt" transform="matrix(1,0,0,1,197,711)" text-rendering="geometricPrecision" font-family="sans-serif" shape-rendering="geometricPrecision" font-weight="bold" stroke-miterlimit="1.45">
      <text x="135.1848" xml:space="preserve" y="-299.4316" clip-path="url(#clipPath8)" stroke="none">DatedNote</text>
    </g>
    <g text-rendering="geometricPrecision" shape-rendering="geometricPrecision" transform="matrix(1,0,0,1,197,711)">
      <line y2="-291" fill="none" x1="31" clip-path="url(#clipPath8)" x2="310" y1="-291"/>
      <line y2="-281" fill="none" x1="31" clip-path="url(#clipPath8)" x2="310" y1="-281"/>
      <text stroke-linecap="butt" x="35" y="-265.0879" clip-path="url(#clipPath8)" font-family="sans-serif" stroke="none" stroke-miterlimit="1.45" xml:space="preserve">+ DatedNote(message : String, date : MyDate)</text>
      <text stroke-linecap="butt" x="35" y="-250.9551" clip-path="url(#clipPath8)" font-family="sans-serif" stroke="none" stroke-miterlimit="1.45" xml:space="preserve">+getDate() : MyDate</text>
      <text stroke-linecap="butt" x="35" y="-236.8223" clip-path="url(#clipPath8)" font-family="sans-serif" stroke="none" stroke-miterlimit="1.45" xml:space="preserve">+ copy() : Note</text>
      <text stroke-linecap="butt" x="35" y="-222.6895" clip-path="url(#clipPath8)" font-family="sans-serif" stroke="none" stroke-miterlimit="1.45" xml:space="preserve">+ toString() : String</text>
      <path fill="rgb(255,204,153)" d="M-136.5 -460.5 L116.5 -460.5 L116.5 -445.5 L131.5 -445.5 L131.5 -376.5 L-136.5 -376.5 Z" clip-path="url(#clipPath2)" stroke="none"/>
      <path fill="white" d="M116.5 -460.5 L116.5 -445.5 L131.5 -445.5 Z" clip-path="url(#clipPath2)" fill-rule="evenodd" stroke="none"/>
      <path fill="none" stroke-miterlimit="1.45" d="M-136.5 -460.5 L116.5 -460.5 L116.5 -445.5 L131.5 -445.5 L131.5 -376.5 L-136.5 -376.5 Z" clip-path="url(#clipPath2)" stroke-linecap="butt"/>
      <path fill="none" stroke-miterlimit="1.45" d="M116.5 -460.5 L116.5 -445.5 L131.5 -445.5 Z" fill-rule="evenodd" clip-path="url(#clipPath2)" stroke-linecap="butt"/>
      <text stroke-linecap="butt" x="-16.5098" y="-442.2305" clip-path="url(#clipPath2)" font-family="sans-serif" stroke="none" stroke-miterlimit="1.45" xml:space="preserve">Hint:</text>
      <text stroke-linecap="butt" x="-124.0732" y="-428.0977" clip-path="url(#clipPath2)" font-family="sans-serif" stroke="none" stroke-miterlimit="1.45" xml:space="preserve">Pay attention to the relationship between </text>
      <text stroke-linecap="butt" x="-94.9492" y="-413.9648" clip-path="url(#clipPath2)" font-family="sans-serif" stroke="none" stroke-miterlimit="1.45" xml:space="preserve">this class and the MyDate class.</text>
      <text stroke-linecap="butt" x="-119.2949" y="-399.832" clip-path="url(#clipPath2)" font-family="sans-serif" stroke="none" stroke-miterlimit="1.45" xml:space="preserve">This class should have exacly 1 MyDate </text>
      <text stroke-linecap="butt" x="-93.4492" y="-385.6992" clip-path="url(#clipPath2)" font-family="sans-serif" stroke="none" stroke-miterlimit="1.45" xml:space="preserve">object (use a field to store this)</text>
      <path fill="rgb(255,204,153)" d="M-182 -662.5 L108 -662.5 L108 -647.5 L123 -647.5 L123 -553.5 L-182 -553.5 Z" clip-path="url(#clipPath2)" stroke="none"/>
      <path fill="white" d="M108 -662.5 L108 -647.5 L123 -647.5 Z" clip-path="url(#clipPath2)" fill-rule="evenodd" stroke="none"/>
      <path fill="none" stroke-miterlimit="1.45" d="M-182 -662.5 L108 -662.5 L108 -647.5 L123 -647.5 L123 -553.5 L-182 -553.5 Z" clip-path="url(#clipPath2)" stroke-linecap="butt"/>
      <path fill="none" stroke-miterlimit="1.45" d="M108 -662.5 L108 -647.5 L123 -647.5 Z" fill-rule="evenodd" clip-path="url(#clipPath2)" stroke-linecap="butt"/>
      <text stroke-linecap="butt" x="-43.5098" y="-644.8984" clip-path="url(#clipPath2)" font-family="sans-serif" stroke="none" stroke-miterlimit="1.45" xml:space="preserve">Hint:</text>
      <text stroke-linecap="butt" x="-151.0732" y="-630.7656" clip-path="url(#clipPath2)" font-family="sans-serif" stroke="none" stroke-miterlimit="1.45" xml:space="preserve">Pay attention to the relationship between </text>
      <text stroke-linecap="butt" x="-113.957" y="-616.6328" clip-path="url(#clipPath2)" font-family="sans-serif" stroke="none" stroke-miterlimit="1.45" xml:space="preserve">this class and the Note class.</text>
      <text stroke-linecap="butt" x="-155.1689" y="-602.5" clip-path="url(#clipPath2)" font-family="sans-serif" stroke="none" stroke-miterlimit="1.45" xml:space="preserve">This class should have an arbitrary number</text>
      <text stroke-linecap="butt" x="-146.9014" y="-588.3672" clip-path="url(#clipPath2)" font-family="sans-serif" stroke="none" stroke-miterlimit="1.45" xml:space="preserve">of Note objects (use a field to store this)</text>
      <text stroke-linecap="butt" x="-164.333" y="-574.2344" clip-path="url(#clipPath2)" font-family="sans-serif" stroke="none" stroke-miterlimit="1.45" xml:space="preserve">You will need some form of list (i recommend </text>
      <text stroke-linecap="butt" x="-55.0586" y="-560.1016" clip-path="url(#clipPath2)" font-family="sans-serif" stroke="none" stroke-miterlimit="1.45" xml:space="preserve">an array)</text>
      <path fill="rgb(255,204,153)" d="M521 -696 L811 -696 L811 -681 L826 -681 L826 -612 L521 -612 Z" clip-path="url(#clipPath2)" stroke="none"/>
      <path fill="white" d="M811 -696 L811 -681 L826 -681 Z" clip-path="url(#clipPath2)" fill-rule="evenodd" stroke="none"/>
      <path fill="none" stroke-miterlimit="1.45" d="M521 -696 L811 -696 L811 -681 L826 -681 L826 -612 L521 -612 Z" clip-path="url(#clipPath2)" stroke-linecap="butt"/>
      <path fill="none" stroke-miterlimit="1.45" d="M811 -696 L811 -681 L826 -681 Z" fill-rule="evenodd" clip-path="url(#clipPath2)" stroke-linecap="butt"/>
      <text stroke-linecap="butt" x="622.7461" y="-677.7305" clip-path="url(#clipPath2)" font-family="sans-serif" stroke="none" stroke-miterlimit="1.45" xml:space="preserve">getPriorityNotes()</text>
      <text stroke-linecap="butt" x="541.582" y="-663.5977" clip-path="url(#clipPath2)" font-family="sans-serif" stroke="none" stroke-miterlimit="1.45" xml:space="preserve">Returns an array with all PriorityNote objects.</text>
      <text stroke-linecap="butt" x="544.4385" y="-649.4648" clip-path="url(#clipPath2)" font-family="sans-serif" stroke="none" stroke-miterlimit="1.45" xml:space="preserve">The notes must be sorted so that notes with</text>
      <text stroke-linecap="butt" x="530.7158" y="-635.332" clip-path="url(#clipPath2)" font-family="sans-serif" stroke="none" stroke-miterlimit="1.45" xml:space="preserve">priority 1 comes first, then notes with priority 2, </text>
      <text stroke-linecap="butt" x="580.3213" y="-621.1992" clip-path="url(#clipPath2)" font-family="sans-serif" stroke="none" stroke-miterlimit="1.45" xml:space="preserve">and finally notes with priority 3.</text>
      <path fill="rgb(255,204,153)" d="M533 -481 L752 -481 L752 -466 L767 -466 L767 -421 L533 -421 Z" clip-path="url(#clipPath2)" stroke="none"/>
      <path fill="white" d="M752 -481 L752 -466 L767 -466 Z" clip-path="url(#clipPath2)" fill-rule="evenodd" stroke="none"/>
      <path fill="none" stroke-miterlimit="1.45" d="M533 -481 L752 -481 L752 -466 L767 -466 L767 -421 L533 -421 Z" clip-path="url(#clipPath2)" stroke-linecap="butt"/>
      <path fill="none" stroke-miterlimit="1.45" d="M752 -481 L752 -466 L767 -466 Z" fill-rule="evenodd" clip-path="url(#clipPath2)" stroke-linecap="butt"/>
      <text stroke-linecap="butt" x="562.1328" y="-460.5977" clip-path="url(#clipPath2)" font-family="sans-serif" stroke="none" stroke-miterlimit="1.45" xml:space="preserve">Priority is one of the following</text>
      <text stroke-linecap="butt" x="568.3965" y="-446.4648" clip-path="url(#clipPath2)" font-family="sans-serif" stroke="none" stroke-miterlimit="1.45" xml:space="preserve">numbers {1, 2, 3}. The most</text>
      <text stroke-linecap="butt" x="546.0723" y="-432.332" clip-path="url(#clipPath2)" font-family="sans-serif" stroke="none" stroke-miterlimit="1.45" xml:space="preserve">important notes have a priority of 1</text>
      <path fill="none" stroke-miterlimit="1.45" d="M324.5 -512.9707 L324.5 -490.0293" clip-path="url(#clipPath2)" stroke-linecap="butt"/>
      <path stroke-miterlimit="1.45" d="M324.5 -519.9707 L329.5 -512.9707 L324.5 -505.9707 L319.5 -512.9707 Z" clip-path="url(#clipPath2)" stroke-linecap="butt" stroke="none"/>
      <text stroke-linecap="butt" x="311.6084" y="-490.4648" clip-path="url(#clipPath2)" font-family="sans-serif" stroke="none" stroke-miterlimit="1.45" xml:space="preserve">*</text>
      <path fill="none" stroke-miterlimit="1.45" d="M478.5 -325.0303 L478.5 -340.5 L324.5 -340.5 L324.5 -355.9702" clip-path="url(#clipPath2)" stroke-linecap="butt"/>
    </g>
    <g stroke-linecap="butt" transform="matrix(1,0,0,1,197,711)" fill="white" text-rendering="geometricPrecision" shape-rendering="geometricPrecision" stroke="white" stroke-miterlimit="1.45">
      <path d="M324.5 -370.9702 L318.5 -354.9702 L330.5 -354.9702 Z" stroke="none" clip-path="url(#clipPath2)"/>
      <path fill="none" d="M324.5 -370.9702 L318.5 -354.9702 L330.5 -354.9702 Z" clip-path="url(#clipPath2)" stroke="black"/>
      <path fill="none" d="M170.5 -206.9629 L170.5 -176.0371" clip-path="url(#clipPath2)" stroke="black"/>
      <path fill="black" d="M170.5 -213.9629 L175.5 -206.9629 L170.5 -199.9629 L165.5 -206.9629 Z" clip-path="url(#clipPath2)" stroke="none"/>
      <text x="153.7061" y="-181.4648" clip-path="url(#clipPath2)" fill="black" font-family="sans-serif" stroke="none" xml:space="preserve">1</text>
      <path fill="none" d="M170.5 -317.0459 L170.5 -340.5 L324.5 -340.5 L324.5 -355.9702" clip-path="url(#clipPath2)" stroke="black"/>
      <path d="M324.5 -370.9702 L318.5 -354.9702 L330.5 -354.9702 Z" clip-path="url(#clipPath2)" stroke="none"/>
      <path fill="none" d="M324.5 -370.9702 L318.5 -354.9702 L330.5 -354.9702 Z" clip-path="url(#clipPath2)" stroke="black"/>
      <path fill="none" stroke-dasharray="6,2" d="M112.2772 -316.9918 L44.9969 -376.494" clip-path="url(#clipPath2)" stroke="black"/>
      <path fill="none" stroke-dasharray="6,2" d="M199.4851 -608 L122.9797 -608" clip-path="url(#clipPath2)" stroke="black"/>
      <path fill="none" stroke-dasharray="6,2" d="M449.5385 -624.4807 L520.9754 -633.8965" clip-path="url(#clipPath2)" stroke="black"/>
      <path fill="none" stroke-dasharray="6,2" d="M533.4964 -324.9859 L622.2678 -421.004" clip-path="url(#clipPath2)" stroke="black"/>
    </g>
  </g>
</svg>
