<?xml version="1.0" encoding="UTF-8"?><svg xmlns="http://www.w3.org/2000/svg" xmlns:xlink="http://www.w3.org/1999/xlink" fill-opacity="1" color-rendering="auto" color-interpolation="auto" text-rendering="auto" stroke="black" stroke-linecap="square" width="918" stroke-miterlimit="10" shape-rendering="auto" stroke-opacity="1" fill="black" stroke-dasharray="none" font-weight="normal" stroke-width="1" height="459" font-family="'Dialog'" font-style="normal" stroke-linejoin="miter" font-size="12px" stroke-dashoffset="0" image-rendering="auto">
  <!--Generated by ySVG 2.5-->
  <defs id="genericDefs"/>
  <g>
    <defs id="defs1">
      <clipPath clipPathUnits="userSpaceOnUse" id="clipPath1">
        <path d="M0 0 L918 0 L918 459 L0 459 L0 0 Z"/>
      </clipPath>
      <clipPath clipPathUnits="userSpaceOnUse" id="clipPath2">
        <path d="M20 -444 L938 -444 L938 15 L20 15 L20 -444 Z"/>
      </clipPath>
      <clipPath clipPathUnits="userSpaceOnUse" id="clipPath3">
        <path d="M257 -429 L257 -322 L452 -322 L452 -429 Z"/>
      </clipPath>
      <clipPath clipPathUnits="userSpaceOnUse" id="clipPath4">
        <path d="M249 -292 L249 -124 L461 -124 L461 -292 Z"/>
      </clipPath>
      <clipPath clipPathUnits="userSpaceOnUse" id="clipPath5">
        <path d="M35 -78 L35 0 L165 0 L165 -78 Z"/>
      </clipPath>
      <clipPath clipPathUnits="userSpaceOnUse" id="clipPath6">
        <path d="M473 -78 L473 0 L675 0 L675 -78 Z"/>
      </clipPath>
    </defs>
    <g fill="rgb(204,255,204)" text-rendering="geometricPrecision" shape-rendering="geometricPrecision" transform="matrix(1,0,0,1,-20,444)" stroke="rgb(204,255,204)">
      <rect x="258" width="193" height="105" y="-428" clip-path="url(#clipPath2)" stroke="none"/>
    </g>
    <g fill="white" text-rendering="geometricPrecision" shape-rendering="geometricPrecision" transform="matrix(1,0,0,1,-20,444)" stroke="white">
      <rect x="257" width="1" height="107" y="-429" clip-path="url(#clipPath2)" stroke="none"/>
      <rect x="258" width="193" height="1" y="-429" clip-path="url(#clipPath2)" stroke="none"/>
      <rect x="258" y="-323" clip-path="url(#clipPath2)" fill="rgb(142,178,142)" width="194" height="1" stroke="none"/>
      <rect x="451" y="-429" clip-path="url(#clipPath2)" fill="rgb(142,178,142)" width="1" height="106" stroke="none"/>
    </g>
    <g font-size="13px" stroke-linecap="butt" transform="matrix(1,0,0,1,-20,444)" text-rendering="geometricPrecision" font-family="sans-serif" shape-rendering="geometricPrecision" font-weight="bold" stroke-miterlimit="1.45">
      <text x="323.2141" xml:space="preserve" y="-410.9302" clip-path="url(#clipPath3)" stroke="none">LegoBrick</text>
    </g>
    <g text-rendering="geometricPrecision" shape-rendering="geometricPrecision" transform="matrix(1,0,0,1,-20,444)">
      <line y2="-403" fill="none" x1="258" clip-path="url(#clipPath3)" x2="451" y1="-403"/>
      <text stroke-linecap="butt" x="262.5" y="-386.0093" clip-path="url(#clipPath3)" font-family="sans-serif" stroke="none" stroke-miterlimit="1.45" xml:space="preserve">- colour : String</text>
      <line y2="-378" fill="none" x1="258" clip-path="url(#clipPath3)" x2="451" y1="-378"/>
      <text stroke-linecap="butt" x="262.5" y="-361.3081" clip-path="url(#clipPath3)" font-family="sans-serif" stroke="none" stroke-miterlimit="1.45" xml:space="preserve">+ LegoBrick(colour : String)</text>
      <text stroke-linecap="butt" x="262.5" y="-346.6069" clip-path="url(#clipPath3)" font-family="sans-serif" stroke="none" stroke-miterlimit="1.45" xml:space="preserve">+ getColour() : String</text>
      <text stroke-linecap="butt" x="262.5" y="-331.9058" clip-path="url(#clipPath3)" font-family="sans-serif" stroke="none" stroke-miterlimit="1.45" xml:space="preserve"># setColour(colour : String) : void</text>
      <rect x="250" y="-291" clip-path="url(#clipPath2)" fill="rgb(204,255,204)" width="210" height="166" stroke="none"/>
      <rect x="249" y="-292" clip-path="url(#clipPath2)" fill="white" width="1" height="168" stroke="none"/>
      <rect x="250" y="-292" clip-path="url(#clipPath2)" fill="white" width="210" height="1" stroke="none"/>
      <rect x="250" y="-125" clip-path="url(#clipPath2)" fill="rgb(142,178,142)" width="211" height="1" stroke="none"/>
      <rect x="460" y="-292" clip-path="url(#clipPath2)" fill="rgb(142,178,142)" width="1" height="167" stroke="none"/>
    </g>
    <g font-size="13px" stroke-linecap="butt" transform="matrix(1,0,0,1,-20,444)" text-rendering="geometricPrecision" font-family="sans-serif" shape-rendering="geometricPrecision" font-weight="bold" stroke-miterlimit="1.45">
      <text x="295.0432" xml:space="preserve" y="-273.9302" clip-path="url(#clipPath4)" stroke="none">StandardLegoBrick</text>
    </g>
    <g text-rendering="geometricPrecision" shape-rendering="geometricPrecision" transform="matrix(1,0,0,1,-20,444)">
      <line y2="-266" fill="none" x1="250" clip-path="url(#clipPath4)" x2="460" y1="-266"/>
      <text stroke-linecap="butt" x="254" y="-249.0093" clip-path="url(#clipPath4)" font-family="sans-serif" stroke="none" stroke-miterlimit="1.45" xml:space="preserve">- width : int</text>
      <text stroke-linecap="butt" x="254" y="-234.3081" clip-path="url(#clipPath4)" font-family="sans-serif" stroke="none" stroke-miterlimit="1.45" xml:space="preserve">- length : int</text>
      <line y2="-226" fill="none" x1="250" clip-path="url(#clipPath4)" x2="460" y1="-226"/>
      <text stroke-linecap="butt" x="254" y="-209.6069" clip-path="url(#clipPath4)" font-family="sans-serif" stroke="none" stroke-miterlimit="1.45" xml:space="preserve">+ StandardLegoBrick(colour : String)</text>
      <text stroke-linecap="butt" x="254" y="-194.9058" clip-path="url(#clipPath4)" font-family="sans-serif" stroke="none" stroke-miterlimit="1.45" xml:space="preserve">+ getWidth() : int</text>
      <text stroke-linecap="butt" x="254" y="-180.2046" clip-path="url(#clipPath4)" font-family="sans-serif" stroke="none" stroke-miterlimit="1.45" xml:space="preserve">+ setWidth(width : int) : void</text>
      <text stroke-linecap="butt" x="254" y="-165.5034" clip-path="url(#clipPath4)" font-family="sans-serif" stroke="none" stroke-miterlimit="1.45" xml:space="preserve">+ getLength() : int</text>
      <text stroke-linecap="butt" x="254" y="-150.8022" clip-path="url(#clipPath4)" font-family="sans-serif" stroke="none" stroke-miterlimit="1.45" xml:space="preserve">+ setLength(length : int) : void</text>
      <text stroke-linecap="butt" x="254" y="-136.1011" clip-path="url(#clipPath4)" font-family="sans-serif" stroke="none" stroke-miterlimit="1.45" xml:space="preserve">+ getHeight() : double</text>
      <rect x="36" y="-77" clip-path="url(#clipPath2)" fill="rgb(204,255,204)" width="128" height="76" stroke="none"/>
      <rect x="35" y="-78" clip-path="url(#clipPath2)" fill="white" width="1" height="78" stroke="none"/>
      <rect x="36" y="-78" clip-path="url(#clipPath2)" fill="white" width="128" height="1" stroke="none"/>
      <rect x="36" y="-1" clip-path="url(#clipPath2)" fill="rgb(142,178,142)" width="129" height="1" stroke="none"/>
      <rect x="164" y="-78" clip-path="url(#clipPath2)" fill="rgb(142,178,142)" width="1" height="77" stroke="none"/>
    </g>
    <g font-size="13px" stroke-linecap="butt" transform="matrix(1,0,0,1,-20,444)" text-rendering="geometricPrecision" font-family="sans-serif" shape-rendering="geometricPrecision" font-weight="bold" stroke-miterlimit="1.45">
      <text x="56.6582" xml:space="preserve" y="-59.9302" clip-path="url(#clipPath5)" stroke="none">FlatLegoBrick</text>
    </g>
    <g text-rendering="geometricPrecision" shape-rendering="geometricPrecision" transform="matrix(1,0,0,1,-20,444)">
      <line y2="-52" fill="none" x1="36" clip-path="url(#clipPath5)" x2="164" y1="-52"/>
      <line y2="-42" fill="none" x1="36" clip-path="url(#clipPath5)" x2="164" y1="-42"/>
      <text stroke-linecap="butt" x="40" y="-25.0093" clip-path="url(#clipPath5)" font-family="sans-serif" stroke="none" stroke-miterlimit="1.45" xml:space="preserve">+ FlatLegoBrick(colour : String)</text>
      <text stroke-linecap="butt" x="40" y="-10.3081" clip-path="url(#clipPath5)" font-family="sans-serif" stroke="none" stroke-miterlimit="1.45" xml:space="preserve">+ getHeight() : double</text>
      <path fill="rgb(255,204,153)" d="M541 -231 L694 -231 L694 -216 L709 -216 L709 -185 L541 -185 Z" clip-path="url(#clipPath2)" stroke="none"/>
      <path fill="white" d="M694 -231 L694 -216 L709 -216 Z" clip-path="url(#clipPath2)" fill-rule="evenodd" stroke="none"/>
      <path fill="none" stroke-miterlimit="1.45" d="M541 -231 L694 -231 L694 -216 L709 -216 L709 -185 L541 -185 Z" clip-path="url(#clipPath2)" stroke-linecap="butt"/>
      <path fill="none" stroke-miterlimit="1.45" d="M694 -231 L694 -216 L709 -216 Z" fill-rule="evenodd" clip-path="url(#clipPath2)" stroke-linecap="butt"/>
      <text stroke-linecap="butt" x="559.9551" y="-210.6367" clip-path="url(#clipPath2)" font-family="sans-serif" stroke="none" stroke-miterlimit="1.45" xml:space="preserve">The height of a standard</text>
      <text stroke-linecap="butt" x="569.9775" y="-195.9355" clip-path="url(#clipPath2)" font-family="sans-serif" stroke="none" stroke-miterlimit="1.45" xml:space="preserve">legobrick is always 1</text>
      <path fill="rgb(255,204,153)" d="M245 -62 L398 -62 L398 -47 L413 -47 L413 -16 L245 -16 Z" clip-path="url(#clipPath2)" stroke="none"/>
      <path fill="white" d="M398 -62 L398 -47 L413 -47 Z" clip-path="url(#clipPath2)" fill-rule="evenodd" stroke="none"/>
      <path fill="none" stroke-miterlimit="1.45" d="M245 -62 L398 -62 L398 -47 L413 -47 L413 -16 L245 -16 Z" clip-path="url(#clipPath2)" stroke-linecap="butt"/>
      <path fill="none" stroke-miterlimit="1.45" d="M398 -62 L398 -47 L413 -47 Z" fill-rule="evenodd" clip-path="url(#clipPath2)" stroke-linecap="butt"/>
      <text stroke-linecap="butt" x="279.3008" y="-41.6367" clip-path="url(#clipPath2)" font-family="sans-serif" stroke="none" stroke-miterlimit="1.45" xml:space="preserve">The height of a flat</text>
      <text stroke-linecap="butt" x="265.6367" y="-26.9355" clip-path="url(#clipPath2)" font-family="sans-serif" stroke="none" stroke-miterlimit="1.45" xml:space="preserve">legobrick is always 0.33</text>
      <rect x="474" y="-77" clip-path="url(#clipPath2)" fill="rgb(204,255,204)" width="200" height="76" stroke="none"/>
      <rect x="473" y="-78" clip-path="url(#clipPath2)" fill="white" width="1" height="78" stroke="none"/>
      <rect x="474" y="-78" clip-path="url(#clipPath2)" fill="white" width="200" height="1" stroke="none"/>
      <rect x="474" y="-1" clip-path="url(#clipPath2)" fill="rgb(142,178,142)" width="201" height="1" stroke="none"/>
      <rect x="674" y="-78" clip-path="url(#clipPath2)" fill="rgb(142,178,142)" width="1" height="77" stroke="none"/>
    </g>
    <g font-size="13px" stroke-linecap="butt" transform="matrix(1,0,0,1,-20,444)" text-rendering="geometricPrecision" font-family="sans-serif" shape-rendering="geometricPrecision" font-weight="bold" stroke-miterlimit="1.45">
      <text x="520.5464" xml:space="preserve" y="-59.9302" clip-path="url(#clipPath6)" stroke="none">SlopedLegoBrick</text>
    </g>
    <g text-rendering="geometricPrecision" shape-rendering="geometricPrecision" transform="matrix(1,0,0,1,-20,444)">
      <line y2="-52" fill="none" x1="474" clip-path="url(#clipPath6)" x2="674" y1="-52"/>
      <line y2="-42" fill="none" x1="474" clip-path="url(#clipPath6)" x2="674" y1="-42"/>
      <text stroke-linecap="butt" x="478" y="-25.0093" clip-path="url(#clipPath6)" font-family="sans-serif" stroke="none" stroke-miterlimit="1.45" xml:space="preserve">+ SlopedLegoBrick(colour : String)</text>
      <text stroke-linecap="butt" x="478" y="-10.3081" clip-path="url(#clipPath6)" font-family="sans-serif" stroke="none" stroke-miterlimit="1.45" xml:space="preserve">+ getHeight() : double</text>
      <path fill="rgb(255,204,153)" d="M755 -62 L908 -62 L908 -47 L923 -47 L923 -16 L755 -16 Z" clip-path="url(#clipPath2)" stroke="none"/>
      <path fill="white" d="M908 -62 L908 -47 L923 -47 Z" clip-path="url(#clipPath2)" fill-rule="evenodd" stroke="none"/>
      <path fill="none" stroke-miterlimit="1.45" d="M755 -62 L908 -62 L908 -47 L923 -47 L923 -16 L755 -16 Z" clip-path="url(#clipPath2)" stroke-linecap="butt"/>
      <path fill="none" stroke-miterlimit="1.45" d="M908 -62 L908 -47 L923 -47 Z" fill-rule="evenodd" clip-path="url(#clipPath2)" stroke-linecap="butt"/>
      <text stroke-linecap="butt" x="773.9551" y="-41.6367" clip-path="url(#clipPath2)" font-family="sans-serif" stroke="none" stroke-miterlimit="1.45" xml:space="preserve">The height of a standard</text>
      <text stroke-linecap="butt" x="783.9775" y="-26.9355" clip-path="url(#clipPath2)" font-family="sans-serif" stroke="none" stroke-miterlimit="1.45" xml:space="preserve">legobrick is always 1</text>
      <path fill="none" stroke-miterlimit="1.45" d="M355 -292.0293 L355 -306.9707" clip-path="url(#clipPath2)" stroke-linecap="butt"/>
    </g>
    <g stroke-linecap="butt" transform="matrix(1,0,0,1,-20,444)" fill="white" text-rendering="geometricPrecision" shape-rendering="geometricPrecision" stroke="white" stroke-miterlimit="1.45">
      <path d="M355 -321.9707 L349 -305.9707 L361 -305.9707 Z" stroke="none" clip-path="url(#clipPath2)"/>
      <path fill="none" d="M355 -321.9707 L349 -305.9707 L361 -305.9707 Z" clip-path="url(#clipPath2)" stroke="black"/>
      <path fill="none" d="M100 -78.0303 L100 -93.5 L355 -93.5 L355 -108.9702" clip-path="url(#clipPath2)" stroke="black"/>
      <path d="M355 -123.9702 L349 -107.9702 L361 -107.9702 Z" clip-path="url(#clipPath2)" stroke="none"/>
      <path fill="none" d="M355 -123.9702 L349 -107.9702 L361 -107.9702 Z" clip-path="url(#clipPath2)" stroke="black"/>
      <path fill="none" d="M540.9609 -208 L461.039 -208" clip-path="url(#clipPath2)" stroke="black"/>
      <path fill="none" d="M244.9609 -39 L165.039 -39" clip-path="url(#clipPath2)" stroke="black"/>
      <path fill="none" d="M574 -78.0303 L574 -93.5 L355 -93.5 L355 -108.9702" clip-path="url(#clipPath2)" stroke="black"/>
      <path d="M355 -123.9702 L349 -107.9702 L361 -107.9702 Z" clip-path="url(#clipPath2)" stroke="none"/>
      <path fill="none" d="M355 -123.9702 L349 -107.9702 L361 -107.9702 Z" clip-path="url(#clipPath2)" stroke="black"/>
      <path fill="none" d="M754.9609 -39 L675.0391 -39" clip-path="url(#clipPath2)" stroke="black"/>
    </g>
  </g>
</svg>
