<?xml version="1.0" encoding="UTF-8"?><svg xmlns="http://www.w3.org/2000/svg" xmlns:xlink="http://www.w3.org/1999/xlink" fill-opacity="1" color-rendering="auto" color-interpolation="auto" text-rendering="auto" stroke="black" stroke-linecap="square" width="483" stroke-miterlimit="10" shape-rendering="auto" stroke-opacity="1" fill="black" stroke-dasharray="none" font-weight="normal" stroke-width="1" height="239" font-family="'Dialog'" font-style="normal" stroke-linejoin="miter" font-size="12px" stroke-dashoffset="0" image-rendering="auto">
  <!--Generated by ySVG 2.5-->
  <defs id="genericDefs"/>
  <g>
    <defs id="defs1">
      <clipPath clipPathUnits="userSpaceOnUse" id="clipPath1">
        <path d="M0 0 L483 0 L483 239 L0 239 L0 0 Z"/>
      </clipPath>
      <clipPath clipPathUnits="userSpaceOnUse" id="clipPath2">
        <path d="M423 256 L906 256 L906 495 L423 495 L423 256 Z"/>
      </clipPath>
      <clipPath clipPathUnits="userSpaceOnUse" id="clipPath3">
        <path d="M658 304 L658 480 L891 480 L891 304 Z"/>
      </clipPath>
      <clipPath clipPathUnits="userSpaceOnUse" id="clipPath4">
        <path d="M0 0 L0 49 L102 49 L102 0 Z"/>
      </clipPath>
    </defs>
    <g fill="rgb(204,255,204)" text-rendering="geometricPrecision" shape-rendering="geometricPrecision" transform="matrix(1,0,0,1,-423,-256)" stroke="rgb(204,255,204)">
      <rect x="659" width="231" height="174" y="305" clip-path="url(#clipPath2)" stroke="none"/>
    </g>
    <g fill="white" text-rendering="geometricPrecision" shape-rendering="geometricPrecision" transform="matrix(1,0,0,1,-423,-256)" stroke="white">
      <rect x="658" width="1" height="176" y="304" clip-path="url(#clipPath2)" stroke="none"/>
      <rect x="659" width="231" height="1" y="304" clip-path="url(#clipPath2)" stroke="none"/>
      <rect x="659" y="479" clip-path="url(#clipPath2)" fill="rgb(142,178,142)" width="232" height="1" stroke="none"/>
      <rect x="890" y="304" clip-path="url(#clipPath2)" fill="rgb(142,178,142)" width="1" height="175" stroke="none"/>
    </g>
    <g font-size="13px" stroke-linecap="butt" transform="matrix(1,0,0,1,-423,-256)" text-rendering="geometricPrecision" font-family="sans-serif" shape-rendering="geometricPrecision" font-weight="bold" stroke-miterlimit="1.45">
      <text x="752.4641" xml:space="preserve" y="322.0698" clip-path="url(#clipPath3)" stroke="none">Person</text>
    </g>
    <g text-rendering="geometricPrecision" shape-rendering="geometricPrecision" transform="matrix(1,0,0,1,-423,-256)">
      <line y2="329" fill="none" x1="659" clip-path="url(#clipPath3)" x2="890" y1="329"/>
      <text stroke-linecap="butt" x="663" y="346.9907" clip-path="url(#clipPath3)" font-family="sans-serif" stroke="none" stroke-miterlimit="1.45" xml:space="preserve">- name : String</text>
      <text stroke-linecap="butt" x="663" y="361.6919" clip-path="url(#clipPath3)" font-family="sans-serif" stroke="none" stroke-miterlimit="1.45" xml:space="preserve"># address : String</text>
      <line y2="369" fill="none" x1="659" clip-path="url(#clipPath3)" x2="890" y1="369"/>
      <text stroke-linecap="butt" x="663" y="386.3931" clip-path="url(#clipPath3)" font-family="sans-serif" stroke="none" stroke-miterlimit="1.45" xml:space="preserve">+ Person(name : String, address : String)</text>
      <text stroke-linecap="butt" x="663" y="401.0942" clip-path="url(#clipPath3)" font-family="sans-serif" stroke="none" stroke-miterlimit="1.45" xml:space="preserve">+ getName() : String</text>
      <text stroke-linecap="butt" x="663" y="415.7954" clip-path="url(#clipPath3)" font-family="sans-serif" stroke="none" stroke-miterlimit="1.45" xml:space="preserve">+ setName(name : String) : void</text>
      <text stroke-linecap="butt" x="663" y="430.4966" clip-path="url(#clipPath3)" font-family="sans-serif" stroke="none" stroke-miterlimit="1.45" xml:space="preserve">+ getAddress() : String</text>
      <text stroke-linecap="butt" x="663" y="445.1978" clip-path="url(#clipPath3)" font-family="sans-serif" stroke="none" stroke-miterlimit="1.45" xml:space="preserve">+ setAddress(address : String) : void</text>
      <text stroke-linecap="butt" x="663" y="459.8989" clip-path="url(#clipPath3)" font-family="sans-serif" stroke="none" stroke-miterlimit="1.45" xml:space="preserve">+ toString() : String</text>
      <text stroke-linecap="butt" x="663" y="474.6001" clip-path="url(#clipPath3)" font-family="sans-serif" stroke="none" stroke-miterlimit="1.45" xml:space="preserve">+ equals(obj : Object) : boolean</text>
      <path fill="rgb(255,204,153)" d="M438 271 L540 271 L540 286 L555 286 L555 352 L438 352 Z" clip-path="url(#clipPath2)" stroke="none"/>
      <path fill="white" d="M540 271 L540 286 L555 286 Z" clip-path="url(#clipPath2)" fill-rule="evenodd" stroke="none"/>
      <path fill="none" stroke-miterlimit="1.45" d="M438 271 L540 271 L540 286 L555 286 L555 352 L438 352 Z" clip-path="url(#clipPath2)" stroke-linecap="butt"/>
      <path fill="none" stroke-miterlimit="1.45" d="M540 271 L540 286 L555 286 Z" fill-rule="evenodd" clip-path="url(#clipPath2)" stroke-linecap="butt"/>
    </g>
    <g text-rendering="geometricPrecision" stroke-miterlimit="1.45" shape-rendering="geometricPrecision" font-family="sans-serif" transform="matrix(1,0,0,1,-423,-256) translate(445,287)" stroke-linecap="butt">
      <text x="0" xml:space="preserve" y="13" clip-path="url(#clipPath4)" stroke="none">In class diagrams,</text>
      <text x="102" xml:space="preserve" y="13" clip-path="url(#clipPath4)" stroke="none"> </text>
      <text x="0" xml:space="preserve" y="29" clip-path="url(#clipPath4)" font-family="monospace" stroke="none">protected</text>
      <text x="63" xml:space="preserve" y="29" clip-path="url(#clipPath4)" stroke="none"> is</text>
      <text x="76" xml:space="preserve" y="29" clip-path="url(#clipPath4)" stroke="none"> </text>
      <text x="0" xml:space="preserve" y="46" clip-path="url(#clipPath4)" stroke="none">indicated by a #</text>
    </g>
    <g text-rendering="geometricPrecision" stroke-miterlimit="1.45" shape-rendering="geometricPrecision" transform="matrix(1,0,0,1,-423,-256)" stroke-linecap="butt">
      <path fill="none" d="M554.9709 328.4313 L658.0092 358.2679" clip-path="url(#clipPath2)"/>
    </g>
  </g>
</svg>
