<?xml version="1.0" encoding="UTF-8"?><svg xmlns="http://www.w3.org/2000/svg" xmlns:xlink="http://www.w3.org/1999/xlink" fill-opacity="1" color-rendering="auto" color-interpolation="auto" text-rendering="auto" stroke="black" stroke-linecap="square" width="298" stroke-miterlimit="10" shape-rendering="auto" stroke-opacity="1" fill="black" stroke-dasharray="none" font-weight="normal" stroke-width="1" height="172" font-family="'Dialog'" font-style="normal" stroke-linejoin="miter" font-size="12px" stroke-dashoffset="0" image-rendering="auto">
  <!--Generated by ySVG 2.5-->
  <defs id="genericDefs"/>
  <g>
    <defs id="defs1">
      <clipPath clipPathUnits="userSpaceOnUse" id="clipPath1">
        <path d="M0 0 L298 0 L298 172 L0 172 L0 0 Z"/>
      </clipPath>
      <clipPath clipPathUnits="userSpaceOnUse" id="clipPath2">
        <path d="M20 -157 L318 -157 L318 15 L20 15 L20 -157 Z"/>
      </clipPath>
      <clipPath clipPathUnits="userSpaceOnUse" id="clipPath3">
        <path d="M117 -142 L117 -94 L221 -94 L221 -142 Z"/>
      </clipPath>
      <clipPath clipPathUnits="userSpaceOnUse" id="clipPath4">
        <path d="M35 -48 L35 0 L139 0 L139 -48 Z"/>
      </clipPath>
      <clipPath clipPathUnits="userSpaceOnUse" id="clipPath5">
        <path d="M199 -48 L199 0 L303 0 L303 -48 Z"/>
      </clipPath>
    </defs>
    <g fill="rgb(204,255,204)" text-rendering="geometricPrecision" shape-rendering="geometricPrecision" transform="matrix(1,0,0,1,-20,157)" stroke="rgb(204,255,204)">
      <rect x="118" width="102" height="46" y="-141" clip-path="url(#clipPath2)" stroke="none"/>
    </g>
    <g fill="white" text-rendering="geometricPrecision" shape-rendering="geometricPrecision" transform="matrix(1,0,0,1,-20,157)" stroke="white">
      <rect x="117" width="1" height="48" y="-142" clip-path="url(#clipPath2)" stroke="none"/>
      <rect x="118" width="102" height="1" y="-142" clip-path="url(#clipPath2)" stroke="none"/>
      <rect x="118" y="-95" clip-path="url(#clipPath2)" fill="rgb(142,178,142)" width="103" height="1" stroke="none"/>
      <rect x="220" y="-142" clip-path="url(#clipPath2)" fill="rgb(142,178,142)" width="1" height="47" stroke="none"/>
    </g>
    <g font-size="13px" stroke-linecap="butt" transform="matrix(1,0,0,1,-20,157)" text-rendering="geometricPrecision" font-family="sans-serif" shape-rendering="geometricPrecision" font-weight="bold" stroke-miterlimit="1.45">
      <text x="146.9641" xml:space="preserve" y="-123.9302" clip-path="url(#clipPath3)" stroke="none">Person</text>
    </g>
    <g text-rendering="geometricPrecision" shape-rendering="geometricPrecision" transform="matrix(1,0,0,1,-20,157)">
      <line y2="-116" fill="none" x1="118" clip-path="url(#clipPath3)" x2="220" y1="-116"/>
      <line y2="-106" fill="none" x1="118" clip-path="url(#clipPath3)" x2="220" y1="-106"/>
      <text stroke-linecap="butt" x="122" y="-89.0093" clip-path="url(#clipPath3)" font-family="sans-serif" stroke="none" stroke-miterlimit="1.45" xml:space="preserve"> </text>
      <rect x="36" y="-47" clip-path="url(#clipPath2)" fill="rgb(204,255,204)" width="102" height="46" stroke="none"/>
      <rect x="35" y="-48" clip-path="url(#clipPath2)" fill="white" width="1" height="48" stroke="none"/>
      <rect x="36" y="-48" clip-path="url(#clipPath2)" fill="white" width="102" height="1" stroke="none"/>
      <rect x="36" y="-1" clip-path="url(#clipPath2)" fill="rgb(142,178,142)" width="103" height="1" stroke="none"/>
      <rect x="138" y="-48" clip-path="url(#clipPath2)" fill="rgb(142,178,142)" width="1" height="47" stroke="none"/>
    </g>
    <g font-size="13px" stroke-linecap="butt" transform="matrix(1,0,0,1,-20,157)" text-rendering="geometricPrecision" font-family="sans-serif" shape-rendering="geometricPrecision" font-weight="bold" stroke-miterlimit="1.45">
      <text x="62.0696" xml:space="preserve" y="-29.9302" clip-path="url(#clipPath4)" stroke="none">Teacher</text>
    </g>
    <g text-rendering="geometricPrecision" shape-rendering="geometricPrecision" transform="matrix(1,0,0,1,-20,157)">
      <line y2="-22" fill="none" x1="36" clip-path="url(#clipPath4)" x2="138" y1="-22"/>
      <line y2="-12" fill="none" x1="36" clip-path="url(#clipPath4)" x2="138" y1="-12"/>
      <text stroke-linecap="butt" x="40" y="4.9907" clip-path="url(#clipPath4)" font-family="sans-serif" stroke="none" stroke-miterlimit="1.45" xml:space="preserve"> </text>
      <rect x="200" y="-47" clip-path="url(#clipPath2)" fill="rgb(204,255,204)" width="102" height="46" stroke="none"/>
      <rect x="199" y="-48" clip-path="url(#clipPath2)" fill="white" width="1" height="48" stroke="none"/>
      <rect x="200" y="-48" clip-path="url(#clipPath2)" fill="white" width="102" height="1" stroke="none"/>
      <rect x="200" y="-1" clip-path="url(#clipPath2)" fill="rgb(142,178,142)" width="103" height="1" stroke="none"/>
      <rect x="302" y="-48" clip-path="url(#clipPath2)" fill="rgb(142,178,142)" width="1" height="47" stroke="none"/>
    </g>
    <g font-size="13px" stroke-linecap="butt" transform="matrix(1,0,0,1,-20,157)" text-rendering="geometricPrecision" font-family="sans-serif" shape-rendering="geometricPrecision" font-weight="bold" stroke-miterlimit="1.45">
      <text x="226.8091" xml:space="preserve" y="-29.9302" clip-path="url(#clipPath5)" stroke="none">Student</text>
    </g>
    <g text-rendering="geometricPrecision" shape-rendering="geometricPrecision" transform="matrix(1,0,0,1,-20,157)">
      <line y2="-22" fill="none" x1="200" clip-path="url(#clipPath5)" x2="302" y1="-22"/>
      <line y2="-12" fill="none" x1="200" clip-path="url(#clipPath5)" x2="302" y1="-12"/>
      <text stroke-linecap="butt" x="204" y="4.9907" clip-path="url(#clipPath5)" font-family="sans-serif" stroke="none" stroke-miterlimit="1.45" xml:space="preserve"> </text>
      <path fill="none" stroke-miterlimit="1.45" d="M87 -48.0303 L87 -63.5 L169 -63.5 L169 -78.9702" clip-path="url(#clipPath2)" stroke-linecap="butt"/>
    </g>
    <g stroke-linecap="butt" transform="matrix(1,0,0,1,-20,157)" fill="white" text-rendering="geometricPrecision" shape-rendering="geometricPrecision" stroke="white" stroke-miterlimit="1.45">
      <path d="M169 -93.9702 L163 -77.9702 L175 -77.9702 Z" stroke="none" clip-path="url(#clipPath2)"/>
      <path fill="none" d="M169 -93.9702 L163 -77.9702 L175 -77.9702 Z" clip-path="url(#clipPath2)" stroke="black"/>
      <path fill="none" d="M251 -48.0303 L251 -63.5 L169 -63.5 L169 -78.9702" clip-path="url(#clipPath2)" stroke="black"/>
      <path d="M169 -93.9702 L163 -77.9702 L175 -77.9702 Z" clip-path="url(#clipPath2)" stroke="none"/>
      <path fill="none" d="M169 -93.9702 L163 -77.9702 L175 -77.9702 Z" clip-path="url(#clipPath2)" stroke="black"/>
    </g>
  </g>
</svg>
