<?xml version="1.0" encoding="UTF-8"?><svg xmlns="http://www.w3.org/2000/svg" xmlns:xlink="http://www.w3.org/1999/xlink" fill-opacity="1" color-rendering="auto" color-interpolation="auto" text-rendering="auto" stroke="black" stroke-linecap="square" width="353" stroke-miterlimit="10" shape-rendering="auto" stroke-opacity="1" fill="black" stroke-dasharray="none" font-weight="normal" stroke-width="1" height="330" font-family="'Dialog'" font-style="normal" stroke-linejoin="miter" font-size="12px" stroke-dashoffset="0" image-rendering="auto">
  <!--Generated by ySVG 2.5-->
  <defs id="genericDefs"/>
  <g>
    <defs id="defs1">
      <clipPath clipPathUnits="userSpaceOnUse" id="clipPath1">
        <path d="M0 0 L353 0 L353 330 L0 330 L0 0 Z"/>
      </clipPath>
      <clipPath clipPathUnits="userSpaceOnUse" id="clipPath2">
        <path d="M-5 -15 L348 -15 L348 315 L-5 315 L-5 -15 Z"/>
      </clipPath>
      <clipPath clipPathUnits="userSpaceOnUse" id="clipPath3">
        <path d="M10 0 L10 300 L333 300 L333 0 Z"/>
      </clipPath>
      <clipPath clipPathUnits="userSpaceOnUse" id="clipPath4">
        <path d="M0 0 L0 64 L94 64 L94 0 Z"/>
      </clipPath>
      <clipPath clipPathUnits="userSpaceOnUse" id="clipPath5">
        <path d="M0 0 L0 192 L311 192 L311 0 Z"/>
      </clipPath>
    </defs>
    <g fill="white" text-rendering="geometricPrecision" shape-rendering="geometricPrecision" transform="translate(5,15)" stroke="white">
      <rect x="-5" width="353" height="330" y="-15" clip-path="url(#clipPath2)" stroke="none"/>
    </g>
    <g fill="rgb(204,255,204)" text-rendering="geometricPrecision" shape-rendering="geometricPrecision" transform="matrix(1,0,0,1,5,15)" stroke="rgb(204,255,204)">
      <rect x="11" width="321" height="298" y="1" clip-path="url(#clipPath2)" stroke="none"/>
      <rect x="10" y="0" clip-path="url(#clipPath2)" fill="white" width="1" height="300" stroke="none"/>
      <rect x="11" y="0" clip-path="url(#clipPath2)" fill="white" width="321" height="1" stroke="none"/>
      <rect x="11" y="299" clip-path="url(#clipPath2)" fill="rgb(142,178,142)" width="322" height="1" stroke="none"/>
      <rect x="332" y="0" clip-path="url(#clipPath2)" fill="rgb(142,178,142)" width="1" height="299" stroke="none"/>
    </g>
    <g font-size="13px" stroke-linecap="butt" transform="matrix(1,0,0,1,5,15)" text-rendering="geometricPrecision" font-family="sans-serif" shape-rendering="geometricPrecision" font-weight="bold" stroke-miterlimit="1.45">
      <text x="147.3091" xml:space="preserve" y="18.0698" clip-path="url(#clipPath3)" stroke="none">Student</text>
    </g>
    <g text-rendering="geometricPrecision" shape-rendering="geometricPrecision" transform="matrix(1,0,0,1,5,15)">
      <line y2="25" fill="none" x1="11" clip-path="url(#clipPath3)" x2="332" y1="25"/>
    </g>
    <g stroke-linecap="butt" transform="matrix(1,0,0,1,5,15) translate(15,30)" fill="red" text-rendering="geometricPrecision" font-family="sans-serif" shape-rendering="geometricPrecision" stroke="red" stroke-miterlimit="1.45">
      <text x="0" xml:space="preserve" y="13" clip-path="url(#clipPath4)" stroke="none">- name : String</text>
      <text x="80" xml:space="preserve" y="13" clip-path="url(#clipPath4)" stroke="none"> </text>
      <text x="0" xml:space="preserve" y="29" clip-path="url(#clipPath4)" stroke="none">- address : String</text>
      <text x="94" xml:space="preserve" y="29" clip-path="url(#clipPath4)" stroke="none"> </text>
      <text fill="black" x="0" xml:space="preserve" y="45" clip-path="url(#clipPath4)" stroke="none">- studentNo : int</text>
      <text fill="black" x="86" xml:space="preserve" y="45" clip-path="url(#clipPath4)" stroke="none"> </text>
      <text fill="black" x="0" xml:space="preserve" y="61" clip-path="url(#clipPath4)" stroke="none">- grades : int[0..*]</text>
      <text fill="black" x="92" xml:space="preserve" y="61" clip-path="url(#clipPath4)" stroke="none"> </text>
    </g>
    <g text-rendering="geometricPrecision" shape-rendering="geometricPrecision" transform="matrix(1,0,0,1,5,15)">
      <line y2="99" fill="none" x1="11" clip-path="url(#clipPath3)" x2="332" y1="99"/>
    </g>
    <g text-rendering="geometricPrecision" stroke-miterlimit="1.45" shape-rendering="geometricPrecision" font-family="sans-serif" transform="matrix(1,0,0,1,5,15) translate(15,104)" stroke-linecap="butt">
      <text x="0" xml:space="preserve" y="13" clip-path="url(#clipPath5)" stroke="none">+ Student(name : String, address : String, studentNo : int)</text>
      <text x="311" xml:space="preserve" y="13" clip-path="url(#clipPath5)" stroke="none"> </text>
      <text fill="red" x="0" xml:space="preserve" y="29" clip-path="url(#clipPath5)" stroke="none">+ getName() : String</text>
      <text fill="red" x="110" xml:space="preserve" y="29" clip-path="url(#clipPath5)" stroke="none"> </text>
      <text fill="red" x="0" xml:space="preserve" y="45" clip-path="url(#clipPath5)" stroke="none">+ setName(name : String) : void</text>
      <text fill="red" x="173" xml:space="preserve" y="45" clip-path="url(#clipPath5)" stroke="none"> </text>
      <text fill="red" x="0" xml:space="preserve" y="61" clip-path="url(#clipPath5)" stroke="none">+ getAddress() : String</text>
      <text fill="red" x="122" xml:space="preserve" y="61" clip-path="url(#clipPath5)" stroke="none"> </text>
      <text fill="red" x="0" xml:space="preserve" y="77" clip-path="url(#clipPath5)" stroke="none">+ setAddress(address : String) : void</text>
      <text fill="red" x="199" xml:space="preserve" y="77" clip-path="url(#clipPath5)" stroke="none"> </text>
      <text x="0" xml:space="preserve" y="93" clip-path="url(#clipPath5)" stroke="none">+ getStudentNo() : int</text>
      <text x="115" xml:space="preserve" y="93" clip-path="url(#clipPath5)" stroke="none"> </text>
      <text x="0" xml:space="preserve" y="109" clip-path="url(#clipPath5)" stroke="none">+ setStudentNo(studentNo : int) : void</text>
      <text x="203" xml:space="preserve" y="109" clip-path="url(#clipPath5)" stroke="none"> </text>
      <text x="0" xml:space="preserve" y="125" clip-path="url(#clipPath5)" stroke="none">+ addGrade(grade : String) : void</text>
      <text x="177" xml:space="preserve" y="125" clip-path="url(#clipPath5)" stroke="none"> </text>
      <text x="0" xml:space="preserve" y="141" clip-path="url(#clipPath5)" stroke="none">+ getGrade(index : int) : String</text>
      <text x="161" xml:space="preserve" y="141" clip-path="url(#clipPath5)" stroke="none"> </text>
      <text x="0" xml:space="preserve" y="157" clip-path="url(#clipPath5)" stroke="none">+ getAllGrades() : String[]</text>
      <text x="136" xml:space="preserve" y="157" clip-path="url(#clipPath5)" stroke="none"> </text>
      <text x="0" xml:space="preserve" y="173" clip-path="url(#clipPath5)" stroke="none">+ toString() : String</text>
      <text x="101" xml:space="preserve" y="173" clip-path="url(#clipPath5)" stroke="none"> </text>
      <text x="0" xml:space="preserve" y="189" clip-path="url(#clipPath5)" stroke="none">+ equals(obj : Object) : boolean</text>
    </g>
  </g>
</svg>
