<?xml version="1.0" encoding="UTF-8"?><svg xmlns="http://www.w3.org/2000/svg" xmlns:xlink="http://www.w3.org/1999/xlink" fill-opacity="1" color-rendering="auto" color-interpolation="auto" text-rendering="auto" stroke="black" stroke-linecap="square" width="429" stroke-miterlimit="10" shape-rendering="auto" stroke-opacity="1" fill="black" stroke-dasharray="none" font-weight="normal" stroke-width="1" height="182" font-family="'Dialog'" font-style="normal" stroke-linejoin="miter" font-size="12px" stroke-dashoffset="0" image-rendering="auto">
  <!--Generated by ySVG 2.5-->
  <defs id="genericDefs"/>
  <g>
    <defs id="defs1">
      <clipPath clipPathUnits="userSpaceOnUse" id="clipPath1">
        <path d="M0 0 L429 0 L429 182 L0 182 L0 0 Z"/>
      </clipPath>
      <clipPath clipPathUnits="userSpaceOnUse" id="clipPath2">
        <path d="M88 304 L517 304 L517 486 L88 486 L88 304 Z"/>
      </clipPath>
      <clipPath clipPathUnits="userSpaceOnUse" id="clipPath3">
        <path d="M295 319 L295 471 L502 471 L502 319 Z"/>
      </clipPath>
    </defs>
    <g fill="rgb(204,255,204)" text-rendering="geometricPrecision" shape-rendering="geometricPrecision" transform="matrix(1,0,0,1,-88,-304)" stroke="rgb(204,255,204)">
      <rect x="296" width="205" height="150" y="320" clip-path="url(#clipPath2)" stroke="none"/>
    </g>
    <g fill="white" text-rendering="geometricPrecision" shape-rendering="geometricPrecision" transform="matrix(1,0,0,1,-88,-304)" stroke="white">
      <rect x="295" width="1" height="152" y="319" clip-path="url(#clipPath2)" stroke="none"/>
      <rect x="296" width="205" height="1" y="319" clip-path="url(#clipPath2)" stroke="none"/>
      <rect x="296" y="470" clip-path="url(#clipPath2)" fill="rgb(142,178,142)" width="206" height="1" stroke="none"/>
      <rect x="501" y="319" clip-path="url(#clipPath2)" fill="rgb(142,178,142)" width="1" height="151" stroke="none"/>
    </g>
    <g font-size="13px" stroke-linecap="butt" transform="matrix(1,0,0,1,-88,-304)" text-rendering="geometricPrecision" font-family="sans-serif" shape-rendering="geometricPrecision" font-weight="bold" stroke-miterlimit="1.45">
      <text x="374.3091" xml:space="preserve" y="337.0698" clip-path="url(#clipPath3)" stroke="none">Student</text>
    </g>
    <g text-rendering="geometricPrecision" shape-rendering="geometricPrecision" transform="matrix(1,0,0,1,-88,-304)">
      <line y2="344" fill="none" x1="296" clip-path="url(#clipPath3)" x2="501" y1="344"/>
      <text stroke-linecap="butt" x="300" y="361.9907" clip-path="url(#clipPath3)" font-family="sans-serif" stroke="none" stroke-miterlimit="1.45" xml:space="preserve">- name : String</text>
      <text stroke-linecap="butt" x="300" y="376.6919" clip-path="url(#clipPath3)" font-family="sans-serif" stroke="none" stroke-miterlimit="1.45" xml:space="preserve">- grade : int</text>
      <line y2="384" fill="none" x1="296" clip-path="url(#clipPath3)" x2="501" y1="384"/>
      <text stroke-linecap="butt" x="300" y="401.3931" clip-path="url(#clipPath3)" font-family="sans-serif" stroke="none" stroke-miterlimit="1.45" xml:space="preserve">+ Student(name : String, grade : int)</text>
      <text stroke-linecap="butt" x="300" y="416.0942" clip-path="url(#clipPath3)" font-family="sans-serif" stroke="none" stroke-miterlimit="1.45" xml:space="preserve">+ getName() : String</text>
      <text stroke-linecap="butt" x="300" y="430.7954" clip-path="url(#clipPath3)" font-family="sans-serif" stroke="none" stroke-miterlimit="1.45" xml:space="preserve">+ getGrade() : int</text>
      <text stroke-linecap="butt" x="300" y="445.4966" clip-path="url(#clipPath3)" font-family="sans-serif" stroke="none" stroke-miterlimit="1.45" xml:space="preserve">+ setGrade(grade : int) : void</text>
      <text stroke-linecap="butt" x="300" y="460.1978" clip-path="url(#clipPath3)" font-family="sans-serif" stroke="none" stroke-miterlimit="1.45" xml:space="preserve">+ toString() : String</text>
      <path fill="rgb(255,204,153)" d="M103 324 L216 324 L216 339 L231 339 L231 378 L103 378 Z" clip-path="url(#clipPath2)" stroke="none"/>
      <path fill="white" d="M216 324 L216 339 L231 339 Z" clip-path="url(#clipPath2)" fill-rule="evenodd" stroke="none"/>
      <path fill="none" stroke-miterlimit="1.45" d="M103 324 L216 324 L216 339 L231 339 L231 378 L103 378 Z" clip-path="url(#clipPath2)" stroke-linecap="butt"/>
      <path fill="none" stroke-miterlimit="1.45" d="M216 324 L216 339 L231 339 Z" fill-rule="evenodd" clip-path="url(#clipPath2)" stroke-linecap="butt"/>
      <text stroke-linecap="butt" x="116.9785" y="348.3633" clip-path="url(#clipPath2)" font-family="sans-serif" stroke="none" stroke-miterlimit="1.45" xml:space="preserve">Grade must be -3, </text>
      <text stroke-linecap="butt" x="118.2998" y="363.0645" clip-path="url(#clipPath2)" font-family="sans-serif" stroke="none" stroke-miterlimit="1.45" xml:space="preserve">0, 2, 4, 7, 10 or 12</text>
      <path fill="none" stroke-miterlimit="1.45" d="M231.0312 362.5056 L294.9688 373.9944" clip-path="url(#clipPath2)" stroke-linecap="butt"/>
    </g>
  </g>
</svg>
