<?xml version="1.0" encoding="UTF-8"?><svg xmlns="http://www.w3.org/2000/svg" xmlns:xlink="http://www.w3.org/1999/xlink" fill-opacity="1" color-rendering="auto" color-interpolation="auto" text-rendering="auto" stroke="black" stroke-linecap="square" width="799" stroke-miterlimit="10" shape-rendering="auto" stroke-opacity="1" fill="black" stroke-dasharray="none" font-weight="normal" stroke-width="1" height="462" font-family="'Dialog'" font-style="normal" stroke-linejoin="miter" font-size="12px" stroke-dashoffset="0" image-rendering="auto">
  <!--Generated by ySVG 2.5-->
  <defs id="genericDefs"/>
  <g>
    <defs id="defs1">
      <clipPath clipPathUnits="userSpaceOnUse" id="clipPath1">
        <path d="M0 0 L799 0 L799 462 L0 462 L0 0 Z"/>
      </clipPath>
      <clipPath clipPathUnits="userSpaceOnUse" id="clipPath2">
        <path d="M20 -447 L819 -447 L819 15 L20 15 L20 -447 Z"/>
      </clipPath>
      <clipPath clipPathUnits="userSpaceOnUse" id="clipPath3">
        <path d="M35 -200 L35 0 L425 0 L425 -200 Z"/>
      </clipPath>
      <clipPath clipPathUnits="userSpaceOnUse" id="clipPath4">
        <path d="M485 -200 L485 0 L804 0 L804 -200 Z"/>
      </clipPath>
      <clipPath clipPathUnits="userSpaceOnUse" id="clipPath5">
        <path d="M318 -431 L318 -246 L556 -246 L556 -431 Z"/>
      </clipPath>
      <clipPath clipPathUnits="userSpaceOnUse" id="clipPath6">
        <path d="M0 0 L0 16 L111 16 L111 0 Z"/>
      </clipPath>
      <clipPath clipPathUnits="userSpaceOnUse" id="clipPath7">
        <path d="M0 0 L0 16 L108 16 L108 0 Z"/>
      </clipPath>
    </defs>
    <g fill="rgb(204,255,204)" text-rendering="geometricPrecision" shape-rendering="geometricPrecision" transform="matrix(1,0,0,1,-20,447)" stroke="rgb(204,255,204)">
      <rect x="36" width="388" height="198" y="-199" clip-path="url(#clipPath2)" stroke="none"/>
    </g>
    <g fill="white" text-rendering="geometricPrecision" shape-rendering="geometricPrecision" transform="matrix(1,0,0,1,-20,447)" stroke="white">
      <rect x="35" width="1" height="200" y="-200" clip-path="url(#clipPath2)" stroke="none"/>
      <rect x="36" width="388" height="1" y="-200" clip-path="url(#clipPath2)" stroke="none"/>
      <rect x="36" y="-1" clip-path="url(#clipPath2)" fill="rgb(142,178,142)" width="389" height="1" stroke="none"/>
      <rect x="424" y="-200" clip-path="url(#clipPath2)" fill="rgb(142,178,142)" width="1" height="199" stroke="none"/>
    </g>
    <g font-size="13px" stroke-linecap="butt" transform="matrix(1,0,0,1,-20,447)" text-rendering="geometricPrecision" font-family="sans-serif" shape-rendering="geometricPrecision" font-weight="bold" stroke-miterlimit="1.45">
      <text x="205.0696" xml:space="preserve" y="-181.9302" clip-path="url(#clipPath3)" stroke="none">Teacher</text>
    </g>
    <g text-rendering="geometricPrecision" shape-rendering="geometricPrecision" transform="matrix(1,0,0,1,-20,447)">
      <line y2="-174" fill="none" x1="36" clip-path="url(#clipPath3)" x2="424" y1="-174"/>
      <text stroke-linecap="butt" x="40" y="-157.0093" clip-path="url(#clipPath3)" font-family="sans-serif" stroke="none" stroke-miterlimit="1.45" xml:space="preserve">- hours : double</text>
      <text stroke-linecap="butt" x="40" y="-142.3081" clip-path="url(#clipPath3)" font-family="sans-serif" stroke="none" stroke-miterlimit="1.45" xml:space="preserve">- payRate : double</text>
      <line y2="-134" fill="none" x1="36" clip-path="url(#clipPath3)" x2="424" y1="-134"/>
      <text stroke-linecap="butt" x="40" y="-117.6069" clip-path="url(#clipPath3)" font-family="sans-serif" stroke="none" stroke-miterlimit="1.45" xml:space="preserve">+ Teacher(name : String, address : String. hours : double, rate : double)</text>
      <text stroke-linecap="butt" x="40" y="-102.9058" clip-path="url(#clipPath3)" font-family="sans-serif" stroke="none" stroke-miterlimit="1.45" xml:space="preserve">+ getHours() : double</text>
      <text stroke-linecap="butt" x="40" y="-88.2046" clip-path="url(#clipPath3)" font-family="sans-serif" stroke="none" stroke-miterlimit="1.45" xml:space="preserve">+ setHours(hours : double) : void</text>
      <text stroke-linecap="butt" x="40" y="-73.5034" clip-path="url(#clipPath3)" font-family="sans-serif" stroke="none" stroke-miterlimit="1.45" xml:space="preserve">+ getPayRate() : double</text>
      <text stroke-linecap="butt" x="40" y="-58.8022" clip-path="url(#clipPath3)" font-family="sans-serif" stroke="none" stroke-miterlimit="1.45" xml:space="preserve">+ setPayRate(payRate : double) : void</text>
      <text stroke-linecap="butt" x="40" y="-44.1011" clip-path="url(#clipPath3)" font-family="sans-serif" stroke="none" stroke-miterlimit="1.45" xml:space="preserve">+ getSalary() : double</text>
      <text stroke-linecap="butt" x="40" y="-29.3999" clip-path="url(#clipPath3)" font-family="sans-serif" stroke="none" stroke-miterlimit="1.45" xml:space="preserve">+ toString() : String</text>
      <text stroke-linecap="butt" x="40" y="-14.6987" clip-path="url(#clipPath3)" font-family="sans-serif" stroke="none" stroke-miterlimit="1.45" xml:space="preserve">+ equals(obj : Object) : boolean</text>
      <rect x="486" y="-199" clip-path="url(#clipPath2)" fill="rgb(204,255,204)" width="317" height="198" stroke="none"/>
      <rect x="485" y="-200" clip-path="url(#clipPath2)" fill="white" width="1" height="200" stroke="none"/>
      <rect x="486" y="-200" clip-path="url(#clipPath2)" fill="white" width="317" height="1" stroke="none"/>
      <rect x="486" y="-1" clip-path="url(#clipPath2)" fill="rgb(142,178,142)" width="318" height="1" stroke="none"/>
      <rect x="803" y="-200" clip-path="url(#clipPath2)" fill="rgb(142,178,142)" width="1" height="199" stroke="none"/>
    </g>
    <g font-size="13px" stroke-linecap="butt" transform="matrix(1,0,0,1,-20,447)" text-rendering="geometricPrecision" font-family="sans-serif" shape-rendering="geometricPrecision" font-weight="bold" stroke-miterlimit="1.45">
      <text x="620.3091" xml:space="preserve" y="-181.9302" clip-path="url(#clipPath4)" stroke="none">Student</text>
    </g>
    <g text-rendering="geometricPrecision" shape-rendering="geometricPrecision" transform="matrix(1,0,0,1,-20,447)">
      <line y2="-174" fill="none" x1="486" clip-path="url(#clipPath4)" x2="803" y1="-174"/>
      <text stroke-linecap="butt" x="490" y="-157.0093" clip-path="url(#clipPath4)" font-family="sans-serif" stroke="none" stroke-miterlimit="1.45" xml:space="preserve">- studentNo : int</text>
      <text stroke-linecap="butt" x="490" y="-142.3081" clip-path="url(#clipPath4)" font-family="sans-serif" stroke="none" stroke-miterlimit="1.45" xml:space="preserve">- grades : int[0..*]</text>
      <line y2="-134" fill="none" x1="486" clip-path="url(#clipPath4)" x2="803" y1="-134"/>
      <text stroke-linecap="butt" x="490" y="-117.6069" clip-path="url(#clipPath4)" font-family="sans-serif" stroke="none" stroke-miterlimit="1.45" xml:space="preserve">+ Student(name : String, address : String, studentNo : int)</text>
      <text stroke-linecap="butt" x="490" y="-102.9058" clip-path="url(#clipPath4)" font-family="sans-serif" stroke="none" stroke-miterlimit="1.45" xml:space="preserve">+ getStudentNo() : int</text>
      <text stroke-linecap="butt" x="490" y="-88.2046" clip-path="url(#clipPath4)" font-family="sans-serif" stroke="none" stroke-miterlimit="1.45" xml:space="preserve">+ setStudentNo(studentNo : int) : void</text>
      <text stroke-linecap="butt" x="490" y="-73.5034" clip-path="url(#clipPath4)" font-family="sans-serif" stroke="none" stroke-miterlimit="1.45" xml:space="preserve">+ addGrade(grade : String) : void</text>
      <text stroke-linecap="butt" x="490" y="-58.8022" clip-path="url(#clipPath4)" font-family="sans-serif" stroke="none" stroke-miterlimit="1.45" xml:space="preserve">+ getGrade(index : int) : String</text>
      <text stroke-linecap="butt" x="490" y="-44.1011" clip-path="url(#clipPath4)" font-family="sans-serif" stroke="none" stroke-miterlimit="1.45" xml:space="preserve">+ getAllGrades() : String[]</text>
      <text stroke-linecap="butt" x="490" y="-29.3999" clip-path="url(#clipPath4)" font-family="sans-serif" stroke="none" stroke-miterlimit="1.45" xml:space="preserve">+ toString() : String</text>
      <text stroke-linecap="butt" x="490" y="-14.6987" clip-path="url(#clipPath4)" font-family="sans-serif" stroke="none" stroke-miterlimit="1.45" xml:space="preserve">+ equals(obj : Object) : boolean</text>
      <rect x="319" y="-430" clip-path="url(#clipPath2)" fill="rgb(204,255,204)" width="236" height="183" stroke="none"/>
      <rect x="318" y="-431" clip-path="url(#clipPath2)" fill="white" width="1" height="185" stroke="none"/>
      <rect x="319" y="-431" clip-path="url(#clipPath2)" fill="white" width="236" height="1" stroke="none"/>
      <rect x="319" y="-247" clip-path="url(#clipPath2)" fill="rgb(142,178,142)" width="237" height="1" stroke="none"/>
      <rect x="555" y="-431" clip-path="url(#clipPath2)" fill="rgb(142,178,142)" width="1" height="184" stroke="none"/>
    </g>
    <g font-size="13px" stroke-linecap="butt" transform="matrix(1,0,0,1,-20,447)" text-rendering="geometricPrecision" font-family="sans-serif" shape-rendering="geometricPrecision" font-weight="bold" stroke-miterlimit="1.45">
      <text x="415.2141" xml:space="preserve" y="-412.9302" clip-path="url(#clipPath5)" stroke="none">Person</text>
    </g>
    <g text-rendering="geometricPrecision" shape-rendering="geometricPrecision" transform="matrix(1,0,0,1,-20,447)">
      <line y2="-405" fill="none" x1="319" clip-path="url(#clipPath5)" x2="555" y1="-405"/>
      <text stroke-linecap="butt" x="323.25" y="-388.0093" clip-path="url(#clipPath5)" font-family="sans-serif" stroke="none" stroke-miterlimit="1.45" xml:space="preserve">- name : String</text>
      <text stroke-linecap="butt" x="323.25" y="-373.3081" clip-path="url(#clipPath5)" font-family="sans-serif" stroke="none" stroke-miterlimit="1.45" xml:space="preserve">- address : String</text>
      <line y2="-365" fill="none" x1="319" clip-path="url(#clipPath5)" x2="555" y1="-365"/>
      <text stroke-linecap="butt" x="323.25" y="-348.6069" clip-path="url(#clipPath5)" font-family="sans-serif" stroke="none" stroke-miterlimit="1.45" xml:space="preserve">+ Person(name : String, address : String)</text>
      <text stroke-linecap="butt" x="323.25" y="-333.9058" clip-path="url(#clipPath5)" font-family="sans-serif" stroke="none" stroke-miterlimit="1.45" xml:space="preserve">+ getName() : String</text>
      <text stroke-linecap="butt" x="323.25" y="-319.2046" clip-path="url(#clipPath5)" font-family="sans-serif" stroke="none" stroke-miterlimit="1.45" xml:space="preserve">+ setName(name : String) : void</text>
      <text stroke-linecap="butt" x="323.25" y="-304.5034" clip-path="url(#clipPath5)" font-family="sans-serif" stroke="none" stroke-miterlimit="1.45" xml:space="preserve">+ getAddress() : String</text>
      <text stroke-linecap="butt" x="323.25" y="-289.8022" clip-path="url(#clipPath5)" font-family="sans-serif" stroke="none" stroke-miterlimit="1.45" xml:space="preserve">+ setAddress(address : String) : void</text>
      <text stroke-linecap="butt" x="323.25" y="-275.1011" clip-path="url(#clipPath5)" font-family="sans-serif" stroke="none" stroke-miterlimit="1.45" xml:space="preserve">+ toString() : String</text>
      <text stroke-linecap="butt" x="323.25" y="-260.3999" clip-path="url(#clipPath5)" font-family="sans-serif" stroke="none" stroke-miterlimit="1.45" xml:space="preserve">+ equals(obj : Object) : boolean</text>
      <path fill="rgb(255,204,153)" d="M166.25 -268.5 L273.25 -268.5 L273.25 -253.5 L288.25 -253.5 L288.25 -224.5 L166.25 -224.5 Z" clip-path="url(#clipPath2)" stroke="none"/>
      <path fill="white" d="M273.25 -268.5 L273.25 -253.5 L288.25 -253.5 Z" clip-path="url(#clipPath2)" fill-rule="evenodd" stroke="none"/>
      <path fill="none" stroke-miterlimit="1.45" d="M166.25 -268.5 L273.25 -268.5 L273.25 -253.5 L288.25 -253.5 L288.25 -224.5 L166.25 -224.5 Z" clip-path="url(#clipPath2)" stroke-linecap="butt"/>
      <path fill="none" stroke-miterlimit="1.45" d="M273.25 -268.5 L273.25 -253.5 L288.25 -253.5 Z" fill-rule="evenodd" clip-path="url(#clipPath2)" stroke-linecap="butt"/>
    </g>
    <g text-rendering="geometricPrecision" stroke-miterlimit="1.45" shape-rendering="geometricPrecision" font-family="sans-serif" transform="matrix(1,0,0,1,-20,447) translate(171,-254)" stroke-linecap="butt">
      <text x="0" xml:space="preserve" y="13" clip-path="url(#clipPath6)" stroke="none">Teacher </text>
      <text x="48" xml:space="preserve" y="13" clip-path="url(#clipPath6)" font-weight="bold" stroke="none">is a</text>
      <text x="68" xml:space="preserve" y="13" clip-path="url(#clipPath6)" stroke="none"> Person</text>
    </g>
    <g fill="rgb(255,204,153)" text-rendering="geometricPrecision" shape-rendering="geometricPrecision" transform="matrix(1,0,0,1,-20,447)" stroke="rgb(255,204,153)">
      <path d="M586.25 -274 L693.25 -274 L693.25 -259 L708.25 -259 L708.25 -230 L586.25 -230 Z" stroke="none" clip-path="url(#clipPath2)"/>
      <path fill="white" d="M693.25 -274 L693.25 -259 L708.25 -259 Z" clip-path="url(#clipPath2)" fill-rule="evenodd" stroke="none"/>
    </g>
    <g text-rendering="geometricPrecision" stroke-miterlimit="1.45" shape-rendering="geometricPrecision" transform="matrix(1,0,0,1,-20,447)" stroke-linecap="butt">
      <path fill="none" d="M586.25 -274 L693.25 -274 L693.25 -259 L708.25 -259 L708.25 -230 L586.25 -230 Z" clip-path="url(#clipPath2)"/>
      <path fill="none" d="M693.25 -274 L693.25 -259 L708.25 -259 Z" clip-path="url(#clipPath2)" fill-rule="evenodd"/>
    </g>
    <g text-rendering="geometricPrecision" stroke-miterlimit="1.45" shape-rendering="geometricPrecision" font-family="sans-serif" transform="matrix(1,0,0,1,-20,447) translate(593,-260)" stroke-linecap="butt">
      <text x="0" xml:space="preserve" y="13" clip-path="url(#clipPath7)" stroke="none">Student </text>
      <text x="45" xml:space="preserve" y="13" clip-path="url(#clipPath7)" font-weight="bold" stroke="none">is a</text>
      <text x="65" xml:space="preserve" y="13" clip-path="url(#clipPath7)" stroke="none"> Person</text>
    </g>
    <g text-rendering="geometricPrecision" stroke-miterlimit="1.45" shape-rendering="geometricPrecision" transform="matrix(1,0,0,1,-20,447)" stroke-linecap="butt">
      <path fill="none" d="M230 -200.0303 L230 -215.5 L437.25 -215.5 L437.25 -230.9702" clip-path="url(#clipPath2)"/>
      <path fill="white" d="M437.25 -245.9702 L431.25 -229.9702 L443.25 -229.9702 Z" clip-path="url(#clipPath2)" stroke="none"/>
      <path fill="none" d="M437.25 -245.9702 L431.25 -229.9702 L443.25 -229.9702 Z" clip-path="url(#clipPath2)"/>
      <path fill="none" d="M644.5 -200.0303 L644.5 -215.5 L437.25 -215.5 L437.25 -230.9702" clip-path="url(#clipPath2)"/>
      <path fill="white" d="M437.25 -245.9702 L431.25 -229.9702 L443.25 -229.9702 Z" clip-path="url(#clipPath2)" stroke="none"/>
      <path fill="none" d="M437.25 -245.9702 L431.25 -229.9702 L443.25 -229.9702 Z" clip-path="url(#clipPath2)"/>
    </g>
  </g>
</svg>
