<?xml version="1.0" encoding="UTF-8"?><svg xmlns="http://www.w3.org/2000/svg" xmlns:xlink="http://www.w3.org/1999/xlink" fill-opacity="1" color-rendering="auto" color-interpolation="auto" text-rendering="auto" stroke="black" stroke-linecap="square" width="788" stroke-miterlimit="10" shape-rendering="auto" stroke-opacity="1" fill="black" stroke-dasharray="none" font-weight="normal" stroke-width="1" height="330" font-family="'Dialog'" font-style="normal" stroke-linejoin="miter" font-size="12px" stroke-dashoffset="0" image-rendering="auto">
  <!--Generated by ySVG 2.5-->
  <defs id="genericDefs"/>
  <g>
    <defs id="defs1">
      <clipPath clipPathUnits="userSpaceOnUse" id="clipPath1">
        <path d="M0 0 L788 0 L788 330 L0 330 L0 0 Z"/>
      </clipPath>
      <clipPath clipPathUnits="userSpaceOnUse" id="clipPath2">
        <path d="M281 211 L1069 211 L1069 541 L281 541 L281 211 Z"/>
      </clipPath>
      <clipPath clipPathUnits="userSpaceOnUse" id="clipPath3">
        <path d="M296 226 L296 526 L685 526 L685 226 Z"/>
      </clipPath>
      <clipPath clipPathUnits="userSpaceOnUse" id="clipPath4">
        <path d="M0 0 L0 64 L99 64 L99 0 Z"/>
      </clipPath>
      <clipPath clipPathUnits="userSpaceOnUse" id="clipPath5">
        <path d="M0 0 L0 192 L384 192 L384 0 Z"/>
      </clipPath>
      <clipPath clipPathUnits="userSpaceOnUse" id="clipPath6">
        <path d="M731 226 L731 526 L1054 526 L1054 226 Z"/>
      </clipPath>
      <clipPath clipPathUnits="userSpaceOnUse" id="clipPath7">
        <path d="M0 0 L0 64 L94 64 L94 0 Z"/>
      </clipPath>
      <clipPath clipPathUnits="userSpaceOnUse" id="clipPath8">
        <path d="M0 0 L0 192 L311 192 L311 0 Z"/>
      </clipPath>
    </defs>
    <g fill="rgb(204,255,204)" text-rendering="geometricPrecision" shape-rendering="geometricPrecision" transform="matrix(1,0,0,1,-281,-211)" stroke="rgb(204,255,204)">
      <rect x="297" width="387" height="298" y="227" clip-path="url(#clipPath2)" stroke="none"/>
    </g>
    <g fill="white" text-rendering="geometricPrecision" shape-rendering="geometricPrecision" transform="matrix(1,0,0,1,-281,-211)" stroke="white">
      <rect x="296" width="1" height="300" y="226" clip-path="url(#clipPath2)" stroke="none"/>
      <rect x="297" width="387" height="1" y="226" clip-path="url(#clipPath2)" stroke="none"/>
      <rect x="297" y="525" clip-path="url(#clipPath2)" fill="rgb(142,178,142)" width="388" height="1" stroke="none"/>
      <rect x="684" y="226" clip-path="url(#clipPath2)" fill="rgb(142,178,142)" width="1" height="299" stroke="none"/>
    </g>
    <g font-size="13px" stroke-linecap="butt" transform="matrix(1,0,0,1,-281,-211)" text-rendering="geometricPrecision" font-family="sans-serif" shape-rendering="geometricPrecision" font-weight="bold" stroke-miterlimit="1.45">
      <text x="465.5696" xml:space="preserve" y="244.0698" clip-path="url(#clipPath3)" stroke="none">Teacher</text>
    </g>
    <g text-rendering="geometricPrecision" shape-rendering="geometricPrecision" transform="matrix(1,0,0,1,-281,-211)">
      <line y2="251" fill="none" x1="297" clip-path="url(#clipPath3)" x2="684" y1="251"/>
    </g>
    <g stroke-linecap="butt" transform="matrix(1,0,0,1,-281,-211) translate(301,256)" fill="red" text-rendering="geometricPrecision" font-family="sans-serif" shape-rendering="geometricPrecision" stroke="red" stroke-miterlimit="1.45">
      <text x="0" xml:space="preserve" y="13" clip-path="url(#clipPath4)" stroke="none">- name : String</text>
      <text x="80" xml:space="preserve" y="13" clip-path="url(#clipPath4)" stroke="none"> </text>
      <text x="0" xml:space="preserve" y="29" clip-path="url(#clipPath4)" stroke="none">- address : String</text>
      <text x="94" xml:space="preserve" y="29" clip-path="url(#clipPath4)" stroke="none"> </text>
      <text fill="black" x="0" xml:space="preserve" y="45" clip-path="url(#clipPath4)" stroke="none">- hours : double</text>
      <text fill="black" x="86" xml:space="preserve" y="45" clip-path="url(#clipPath4)" stroke="none"> </text>
      <text fill="black" x="0" xml:space="preserve" y="61" clip-path="url(#clipPath4)" stroke="none">- payRate : double</text>
      <text fill="black" x="99" xml:space="preserve" y="61" clip-path="url(#clipPath4)" stroke="none"> </text>
    </g>
    <g text-rendering="geometricPrecision" shape-rendering="geometricPrecision" transform="matrix(1,0,0,1,-281,-211)">
      <line y2="325" fill="none" x1="297" clip-path="url(#clipPath3)" x2="684" y1="325"/>
    </g>
    <g text-rendering="geometricPrecision" stroke-miterlimit="1.45" shape-rendering="geometricPrecision" font-family="sans-serif" transform="matrix(1,0,0,1,-281,-211) translate(301,330)" stroke-linecap="butt">
      <text x="0" xml:space="preserve" y="13" clip-path="url(#clipPath5)" stroke="none">+ Teacher(name : String, address : String. hours : double, rate : double)</text>
      <text fill="red" x="0" xml:space="preserve" y="29" clip-path="url(#clipPath5)" stroke="none">+ getName() : String</text>
      <text fill="red" x="110" xml:space="preserve" y="29" clip-path="url(#clipPath5)" stroke="none"> </text>
      <text fill="red" x="0" xml:space="preserve" y="45" clip-path="url(#clipPath5)" stroke="none">+ setName(name : String) : void</text>
      <text fill="red" x="173" xml:space="preserve" y="45" clip-path="url(#clipPath5)" stroke="none"> </text>
      <text fill="red" x="0" xml:space="preserve" y="61" clip-path="url(#clipPath5)" stroke="none">+ getAddress() : String</text>
      <text fill="red" x="122" xml:space="preserve" y="61" clip-path="url(#clipPath5)" stroke="none"> </text>
      <text fill="red" x="0" xml:space="preserve" y="77" clip-path="url(#clipPath5)" stroke="none">+ setAddress(address : String) : void</text>
      <text fill="red" x="199" xml:space="preserve" y="77" clip-path="url(#clipPath5)" stroke="none"> </text>
      <text x="0" xml:space="preserve" y="93" clip-path="url(#clipPath5)" stroke="none">+ getHours() : double</text>
      <text x="116" xml:space="preserve" y="93" clip-path="url(#clipPath5)" stroke="none"> </text>
      <text x="0" xml:space="preserve" y="109" clip-path="url(#clipPath5)" stroke="none">+ setHours(hours : double) : void</text>
      <text x="179" xml:space="preserve" y="109" clip-path="url(#clipPath5)" stroke="none"> </text>
      <text x="0" xml:space="preserve" y="125" clip-path="url(#clipPath5)" stroke="none">+ getPayRate() : double</text>
      <text x="128" xml:space="preserve" y="125" clip-path="url(#clipPath5)" stroke="none"> </text>
      <text x="0" xml:space="preserve" y="141" clip-path="url(#clipPath5)" stroke="none">+ setPayRate(payRate : double) : void</text>
      <text x="204" xml:space="preserve" y="141" clip-path="url(#clipPath5)" stroke="none"> </text>
      <text x="0" xml:space="preserve" y="157" clip-path="url(#clipPath5)" stroke="none">+ getSalary() : double</text>
      <text x="116" xml:space="preserve" y="157" clip-path="url(#clipPath5)" stroke="none"> </text>
      <text x="0" xml:space="preserve" y="173" clip-path="url(#clipPath5)" stroke="none">+ toString() : String</text>
      <text x="101" xml:space="preserve" y="173" clip-path="url(#clipPath5)" stroke="none"> </text>
      <text x="0" xml:space="preserve" y="189" clip-path="url(#clipPath5)" stroke="none">+ equals(obj : Object) : boolean</text>
    </g>
    <g fill="rgb(204,255,204)" text-rendering="geometricPrecision" shape-rendering="geometricPrecision" transform="matrix(1,0,0,1,-281,-211)" stroke="rgb(204,255,204)">
      <rect x="732" width="321" height="298" y="227" clip-path="url(#clipPath2)" stroke="none"/>
      <rect x="731" y="226" clip-path="url(#clipPath2)" fill="white" width="1" height="300" stroke="none"/>
      <rect x="732" y="226" clip-path="url(#clipPath2)" fill="white" width="321" height="1" stroke="none"/>
      <rect x="732" y="525" clip-path="url(#clipPath2)" fill="rgb(142,178,142)" width="322" height="1" stroke="none"/>
      <rect x="1053" y="226" clip-path="url(#clipPath2)" fill="rgb(142,178,142)" width="1" height="299" stroke="none"/>
    </g>
    <g font-size="13px" stroke-linecap="butt" transform="matrix(1,0,0,1,-281,-211)" text-rendering="geometricPrecision" font-family="sans-serif" shape-rendering="geometricPrecision" font-weight="bold" stroke-miterlimit="1.45">
      <text x="868.3091" xml:space="preserve" y="244.0698" clip-path="url(#clipPath6)" stroke="none">Student</text>
    </g>
    <g text-rendering="geometricPrecision" shape-rendering="geometricPrecision" transform="matrix(1,0,0,1,-281,-211)">
      <line y2="251" fill="none" x1="732" clip-path="url(#clipPath6)" x2="1053" y1="251"/>
    </g>
    <g stroke-linecap="butt" transform="matrix(1,0,0,1,-281,-211) translate(736,256)" fill="red" text-rendering="geometricPrecision" font-family="sans-serif" shape-rendering="geometricPrecision" stroke="red" stroke-miterlimit="1.45">
      <text x="0" xml:space="preserve" y="13" clip-path="url(#clipPath7)" stroke="none">- name : String</text>
      <text x="80" xml:space="preserve" y="13" clip-path="url(#clipPath7)" stroke="none"> </text>
      <text x="0" xml:space="preserve" y="29" clip-path="url(#clipPath7)" stroke="none">- address : String</text>
      <text x="94" xml:space="preserve" y="29" clip-path="url(#clipPath7)" stroke="none"> </text>
      <text fill="black" x="0" xml:space="preserve" y="45" clip-path="url(#clipPath7)" stroke="none">- studentNo : int</text>
      <text fill="black" x="86" xml:space="preserve" y="45" clip-path="url(#clipPath7)" stroke="none"> </text>
      <text fill="black" x="0" xml:space="preserve" y="61" clip-path="url(#clipPath7)" stroke="none">- grades : int[0..*]</text>
      <text fill="black" x="92" xml:space="preserve" y="61" clip-path="url(#clipPath7)" stroke="none"> </text>
    </g>
    <g text-rendering="geometricPrecision" shape-rendering="geometricPrecision" transform="matrix(1,0,0,1,-281,-211)">
      <line y2="325" fill="none" x1="732" clip-path="url(#clipPath6)" x2="1053" y1="325"/>
    </g>
    <g text-rendering="geometricPrecision" stroke-miterlimit="1.45" shape-rendering="geometricPrecision" font-family="sans-serif" transform="matrix(1,0,0,1,-281,-211) translate(736,330)" stroke-linecap="butt">
      <text x="0" xml:space="preserve" y="13" clip-path="url(#clipPath8)" stroke="none">+ Student(name : String, address : String, studentNo : int)</text>
      <text x="311" xml:space="preserve" y="13" clip-path="url(#clipPath8)" stroke="none"> </text>
      <text fill="red" x="0" xml:space="preserve" y="29" clip-path="url(#clipPath8)" stroke="none">+ getName() : String</text>
      <text fill="red" x="110" xml:space="preserve" y="29" clip-path="url(#clipPath8)" stroke="none"> </text>
      <text fill="red" x="0" xml:space="preserve" y="45" clip-path="url(#clipPath8)" stroke="none">+ setName(name : String) : void</text>
      <text fill="red" x="173" xml:space="preserve" y="45" clip-path="url(#clipPath8)" stroke="none"> </text>
      <text fill="red" x="0" xml:space="preserve" y="61" clip-path="url(#clipPath8)" stroke="none">+ getAddress() : String</text>
      <text fill="red" x="122" xml:space="preserve" y="61" clip-path="url(#clipPath8)" stroke="none"> </text>
      <text fill="red" x="0" xml:space="preserve" y="77" clip-path="url(#clipPath8)" stroke="none">+ setAddress(address : String) : void</text>
      <text fill="red" x="199" xml:space="preserve" y="77" clip-path="url(#clipPath8)" stroke="none"> </text>
      <text x="0" xml:space="preserve" y="93" clip-path="url(#clipPath8)" stroke="none">+ getStudentNo() : int</text>
      <text x="115" xml:space="preserve" y="93" clip-path="url(#clipPath8)" stroke="none"> </text>
      <text x="0" xml:space="preserve" y="109" clip-path="url(#clipPath8)" stroke="none">+ setStudentNo(studentNo : int) : void</text>
      <text x="203" xml:space="preserve" y="109" clip-path="url(#clipPath8)" stroke="none"> </text>
      <text x="0" xml:space="preserve" y="125" clip-path="url(#clipPath8)" stroke="none">+ addGrade(grade : String) : void</text>
      <text x="177" xml:space="preserve" y="125" clip-path="url(#clipPath8)" stroke="none"> </text>
      <text x="0" xml:space="preserve" y="141" clip-path="url(#clipPath8)" stroke="none">+ getGrade(index : int) : String</text>
      <text x="161" xml:space="preserve" y="141" clip-path="url(#clipPath8)" stroke="none"> </text>
      <text x="0" xml:space="preserve" y="157" clip-path="url(#clipPath8)" stroke="none">+ getAllGrades() : String[]</text>
      <text x="136" xml:space="preserve" y="157" clip-path="url(#clipPath8)" stroke="none"> </text>
      <text x="0" xml:space="preserve" y="173" clip-path="url(#clipPath8)" stroke="none">+ toString() : String</text>
      <text x="101" xml:space="preserve" y="173" clip-path="url(#clipPath8)" stroke="none"> </text>
      <text x="0" xml:space="preserve" y="189" clip-path="url(#clipPath8)" stroke="none">+ equals(obj : Object) : boolean</text>
    </g>
  </g>
</svg>
