<?xml version="1.0" encoding="UTF-8"?><svg xmlns="http://www.w3.org/2000/svg" xmlns:xlink="http://www.w3.org/1999/xlink" fill-opacity="1" color-rendering="auto" color-interpolation="auto" text-rendering="auto" stroke="black" stroke-linecap="square" width="828" stroke-miterlimit="10" shape-rendering="auto" stroke-opacity="1" fill="black" stroke-dasharray="none" font-weight="normal" stroke-width="1" height="524" font-family="'Dialog'" font-style="normal" stroke-linejoin="miter" font-size="12px" stroke-dashoffset="0" image-rendering="auto">
  <!--Generated by ySVG 2.5-->
  <defs id="genericDefs"/>
  <g>
    <defs id="defs1">
      <clipPath clipPathUnits="userSpaceOnUse" id="clipPath1">
        <path d="M0 0 L828 0 L828 524 L0 524 L0 0 Z"/>
      </clipPath>
      <clipPath clipPathUnits="userSpaceOnUse" id="clipPath2">
        <path d="M-5 -509 L823 -509 L823 15 L-5 15 L-5 -509 Z"/>
      </clipPath>
      <clipPath clipPathUnits="userSpaceOnUse" id="clipPath3">
        <path d="M302 -367 L302 -209 L571 -209 L571 -367 Z"/>
      </clipPath>
      <clipPath clipPathUnits="userSpaceOnUse" id="clipPath4">
        <path d="M0 0 L0 18 L142 18 L142 0 Z"/>
      </clipPath>
      <clipPath clipPathUnits="userSpaceOnUse" id="clipPath5">
        <path d="M0 0 L0 80 L258 80 L258 0 Z"/>
      </clipPath>
      <clipPath clipPathUnits="userSpaceOnUse" id="clipPath6">
        <path d="M121 -144 L121 -18 L390 -18 L390 -144 Z"/>
      </clipPath>
      <clipPath clipPathUnits="userSpaceOnUse" id="clipPath7">
        <path d="M450 -163 L450 0 L807 0 L807 -163 Z"/>
      </clipPath>
      <clipPath clipPathUnits="userSpaceOnUse" id="clipPath8">
        <path d="M0 0 L0 49 L191 49 L191 0 Z"/>
      </clipPath>
      <clipPath clipPathUnits="userSpaceOnUse" id="clipPath9">
        <path d="M0 0 L0 32 L167 32 L167 0 Z"/>
      </clipPath>
    </defs>
    <g fill="rgb(204,255,204)" text-rendering="geometricPrecision" shape-rendering="geometricPrecision" transform="matrix(1,0,0,1,5,509)" stroke="rgb(204,255,204)">
      <rect x="303" width="267" height="156" y="-366" clip-path="url(#clipPath2)" stroke="none"/>
    </g>
    <g fill="white" text-rendering="geometricPrecision" shape-rendering="geometricPrecision" transform="matrix(1,0,0,1,5,509)" stroke="white">
      <rect x="302" width="1" height="158" y="-367" clip-path="url(#clipPath2)" stroke="none"/>
      <rect x="303" width="267" height="1" y="-367" clip-path="url(#clipPath2)" stroke="none"/>
      <rect x="303" y="-210" clip-path="url(#clipPath2)" fill="rgb(142,178,142)" width="268" height="1" stroke="none"/>
      <rect x="570" y="-367" clip-path="url(#clipPath2)" fill="rgb(142,178,142)" width="1" height="157" stroke="none"/>
    </g>
    <g stroke-linecap="butt" font-size="13px" transform="matrix(1,0,0,1,5,509) translate(365,-362)" text-rendering="geometricPrecision" font-family="sans-serif" shape-rendering="geometricPrecision" font-style="italic" font-weight="bold" stroke-miterlimit="1.45">
      <text x="0" xml:space="preserve" y="15" clip-path="url(#clipPath4)" stroke="none">TwoDimensionalShape</text>
    </g>
    <g text-rendering="geometricPrecision" shape-rendering="geometricPrecision" transform="matrix(1,0,0,1,5,509)">
      <line y2="-339" fill="none" x1="303" clip-path="url(#clipPath3)" x2="570" y1="-339"/>
      <text stroke-linecap="butt" x="307" y="-321.9355" clip-path="url(#clipPath3)" font-family="sans-serif" stroke="none" stroke-miterlimit="1.45" xml:space="preserve">- x : double</text>
      <text stroke-linecap="butt" x="307" y="-307.2344" clip-path="url(#clipPath3)" font-family="sans-serif" stroke="none" stroke-miterlimit="1.45" xml:space="preserve">- y : double</text>
      <line y2="-299" fill="none" x1="303" clip-path="url(#clipPath3)" x2="570" y1="-299"/>
    </g>
    <g text-rendering="geometricPrecision" stroke-miterlimit="1.45" shape-rendering="geometricPrecision" font-family="sans-serif" transform="matrix(1,0,0,1,5,509) translate(307,-294)" stroke-linecap="butt">
      <text x="0" xml:space="preserve" y="13" clip-path="url(#clipPath5)" stroke="none">+ TwoDimensionalShape(x : double, y : double)</text>
      <text x="258" xml:space="preserve" y="13" clip-path="url(#clipPath5)" stroke="none"> </text>
      <text x="0" xml:space="preserve" y="29" clip-path="url(#clipPath5)" stroke="none">+ getX() : double</text>
      <text x="89" xml:space="preserve" y="29" clip-path="url(#clipPath5)" stroke="none"> </text>
      <text x="0" xml:space="preserve" y="45" clip-path="url(#clipPath5)" stroke="none">+ getY() : double</text>
      <text x="89" xml:space="preserve" y="45" clip-path="url(#clipPath5)" stroke="none"> </text>
      <text x="0" xml:space="preserve" y="61" clip-path="url(#clipPath5)" stroke="none">+ moveTo(x : double, y : double) : void</text>
      <text x="203" xml:space="preserve" y="61" clip-path="url(#clipPath5)" stroke="none"> </text>
      <text font-style="italic" x="0" xml:space="preserve" y="77" clip-path="url(#clipPath5)" stroke="none">+ getArea() : double</text>
    </g>
    <g fill="rgb(204,255,204)" text-rendering="geometricPrecision" shape-rendering="geometricPrecision" transform="matrix(1,0,0,1,5,509)" stroke="rgb(204,255,204)">
      <rect x="122" width="267" height="124" y="-143" clip-path="url(#clipPath2)" stroke="none"/>
      <rect x="121" y="-144" clip-path="url(#clipPath2)" fill="white" width="1" height="126" stroke="none"/>
      <rect x="122" y="-144" clip-path="url(#clipPath2)" fill="white" width="267" height="1" stroke="none"/>
      <rect x="122" y="-19" clip-path="url(#clipPath2)" fill="rgb(142,178,142)" width="268" height="1" stroke="none"/>
      <rect x="389" y="-144" clip-path="url(#clipPath2)" fill="rgb(142,178,142)" width="1" height="125" stroke="none"/>
    </g>
    <g font-size="13px" stroke-linecap="butt" transform="matrix(1,0,0,1,5,509)" text-rendering="geometricPrecision" font-family="sans-serif" shape-rendering="geometricPrecision" font-weight="bold" stroke-miterlimit="1.45">
      <text x="238.2203" xml:space="preserve" y="-126.4302" clip-path="url(#clipPath6)" stroke="none">Circle</text>
    </g>
    <g text-rendering="geometricPrecision" shape-rendering="geometricPrecision" transform="matrix(1,0,0,1,5,509)">
      <line y2="-118" fill="none" x1="122" clip-path="url(#clipPath6)" x2="389" y1="-118"/>
      <text stroke-linecap="butt" x="126.7857" y="-101.5093" clip-path="url(#clipPath6)" font-family="sans-serif" stroke="none" stroke-miterlimit="1.45" xml:space="preserve">- radius : double</text>
      <line y2="-93" fill="none" x1="122" clip-path="url(#clipPath6)" x2="389" y1="-93"/>
      <text stroke-linecap="butt" x="126.7857" y="-76.8081" clip-path="url(#clipPath6)" font-family="sans-serif" stroke="none" stroke-miterlimit="1.45" xml:space="preserve">+ Circle(x : double, y : double, radius : double)</text>
      <text stroke-linecap="butt" x="126.7857" y="-62.1069" clip-path="url(#clipPath6)" font-family="sans-serif" stroke="none" stroke-miterlimit="1.45" xml:space="preserve">+ getRadius() : double</text>
      <text stroke-linecap="butt" x="126.7857" y="-47.4058" clip-path="url(#clipPath6)" font-family="sans-serif" stroke="none" stroke-miterlimit="1.45" xml:space="preserve">+ setRadius(radius :  double) : void</text>
      <text stroke-linecap="butt" x="126.7857" y="-32.7046" clip-path="url(#clipPath6)" font-family="sans-serif" stroke="none" stroke-miterlimit="1.45" xml:space="preserve">+ getArea() : double</text>
      <rect x="451" y="-162" clip-path="url(#clipPath2)" fill="rgb(204,255,204)" width="355" height="161" stroke="none"/>
      <rect x="450" y="-163" clip-path="url(#clipPath2)" fill="white" width="1" height="163" stroke="none"/>
      <rect x="451" y="-163" clip-path="url(#clipPath2)" fill="white" width="355" height="1" stroke="none"/>
      <rect x="451" y="-1" clip-path="url(#clipPath2)" fill="rgb(142,178,142)" width="356" height="1" stroke="none"/>
      <rect x="806" y="-163" clip-path="url(#clipPath2)" fill="rgb(142,178,142)" width="1" height="162" stroke="none"/>
    </g>
    <g font-size="13px" stroke-linecap="butt" transform="matrix(1,0,0,1,5,509)" text-rendering="geometricPrecision" font-family="sans-serif" shape-rendering="geometricPrecision" font-weight="bold" stroke-miterlimit="1.45">
      <text x="598.2203" xml:space="preserve" y="-144.9302" clip-path="url(#clipPath7)" stroke="none">Rectangle</text>
    </g>
    <g text-rendering="geometricPrecision" shape-rendering="geometricPrecision" transform="matrix(1,0,0,1,5,509)">
      <line y2="-137" fill="none" x1="451" clip-path="url(#clipPath7)" x2="806" y1="-137"/>
      <text stroke-linecap="butt" x="455.7857" y="-120.0093" clip-path="url(#clipPath7)" font-family="sans-serif" stroke="none" stroke-miterlimit="1.45" xml:space="preserve">- width : double</text>
      <text stroke-linecap="butt" x="455.7857" y="-105.3081" clip-path="url(#clipPath7)" font-family="sans-serif" stroke="none" stroke-miterlimit="1.45" xml:space="preserve">- length : double</text>
      <line y2="-97" fill="none" x1="451" clip-path="url(#clipPath7)" x2="806" y1="-97"/>
      <text stroke-linecap="butt" x="455.7857" y="-80.6069" clip-path="url(#clipPath7)" font-family="sans-serif" stroke="none" stroke-miterlimit="1.45" xml:space="preserve">+ Rectangle(x : double, y : double, width : double, length : double)</text>
      <text stroke-linecap="butt" x="455.7857" y="-65.9058" clip-path="url(#clipPath7)" font-family="sans-serif" stroke="none" stroke-miterlimit="1.45" xml:space="preserve">+ getWidth() : double</text>
      <text stroke-linecap="butt" x="455.7857" y="-51.2046" clip-path="url(#clipPath7)" font-family="sans-serif" stroke="none" stroke-miterlimit="1.45" xml:space="preserve">+ setWidth(width : double) : void</text>
      <text stroke-linecap="butt" x="455.7857" y="-36.5034" clip-path="url(#clipPath7)" font-family="sans-serif" stroke="none" stroke-miterlimit="1.45" xml:space="preserve">+ getLength() : double</text>
      <text stroke-linecap="butt" x="455.7857" y="-21.8022" clip-path="url(#clipPath7)" font-family="sans-serif" stroke="none" stroke-miterlimit="1.45" xml:space="preserve">+ setLength(length : double) : void</text>
      <text stroke-linecap="butt" x="455.7857" y="-7.1011" clip-path="url(#clipPath7)" font-family="sans-serif" stroke="none" stroke-miterlimit="1.45" xml:space="preserve">+ getArea() : double</text>
      <path fill="rgb(255,204,153)" d="M10.5294 -494 L213.1008 -494 L213.1008 -479 L228.1008 -479 L228.1008 -426 L10.5294 -426 Z" clip-path="url(#clipPath2)" stroke="none"/>
      <path fill="white" d="M213.1008 -494 L213.1008 -479 L228.1008 -479 Z" clip-path="url(#clipPath2)" fill-rule="evenodd" stroke="none"/>
      <path fill="none" stroke-miterlimit="1.45" d="M10.5294 -494 L213.1008 -494 L213.1008 -479 L228.1008 -479 L228.1008 -426 L10.5294 -426 Z" clip-path="url(#clipPath2)" stroke-linecap="butt"/>
      <path fill="none" stroke-miterlimit="1.45" d="M213.1008 -494 L213.1008 -479 L228.1008 -479 Z" fill-rule="evenodd" clip-path="url(#clipPath2)" stroke-linecap="butt"/>
    </g>
    <g text-rendering="geometricPrecision" stroke-miterlimit="1.45" shape-rendering="geometricPrecision" font-family="sans-serif" transform="matrix(1,0,0,1,5,509) translate(23,-484)" stroke-linecap="butt">
      <text x="0" xml:space="preserve" y="13" clip-path="url(#clipPath8)" stroke="none">In class diagrams, </text>
      <text x="105" xml:space="preserve" y="13" clip-path="url(#clipPath8)" font-family="monospace" stroke="none">abstract</text>
      <text x="161" xml:space="preserve" y="13" clip-path="url(#clipPath8)" stroke="none"> </text>
      <text x="0" xml:space="preserve" y="30" clip-path="url(#clipPath8)" stroke="none">is indicated by writing class</text>
      <text x="150" xml:space="preserve" y="30" clip-path="url(#clipPath8)" stroke="none"> </text>
      <text x="0" xml:space="preserve" y="46" clip-path="url(#clipPath8)" stroke="none">names and method names in</text>
      <text font-style="italic" x="163" xml:space="preserve" y="46" clip-path="url(#clipPath8)" stroke="none">italic</text>
      <text x="188" xml:space="preserve" y="46" clip-path="url(#clipPath8)" stroke="none"> </text>
    </g>
    <g fill="rgb(255,204,153)" text-rendering="geometricPrecision" shape-rendering="geometricPrecision" transform="matrix(1,0,0,1,5,509)" stroke="rgb(255,204,153)">
      <path d="M620.7857 -367 L792.7857 -367 L792.7857 -352 L807.7857 -352 L807.7857 -310 L620.7857 -310 Z" stroke="none" clip-path="url(#clipPath2)"/>
      <path fill="white" d="M792.7857 -367 L792.7857 -352 L807.7857 -352 Z" clip-path="url(#clipPath2)" fill-rule="evenodd" stroke="none"/>
    </g>
    <g text-rendering="geometricPrecision" stroke-miterlimit="1.45" shape-rendering="geometricPrecision" transform="matrix(1,0,0,1,5,509)" stroke-linecap="butt">
      <path fill="none" d="M620.7857 -367 L792.7857 -367 L792.7857 -352 L807.7857 -352 L807.7857 -310 L620.7857 -310 Z" clip-path="url(#clipPath2)"/>
      <path fill="none" d="M792.7857 -367 L792.7857 -352 L807.7857 -352 Z" clip-path="url(#clipPath2)" fill-rule="evenodd"/>
    </g>
    <g stroke-linecap="butt" transform="matrix(1,0,0,1,5,509) translate(630,-354)" text-rendering="geometricPrecision" font-family="sans-serif" shape-rendering="geometricPrecision" font-style="italic" stroke-miterlimit="1.45">
      <text x="0" xml:space="preserve" y="13" clip-path="url(#clipPath9)" stroke="none">getArea</text>
      <text font-style="normal" x="43" xml:space="preserve" y="13" clip-path="url(#clipPath9)" stroke="none"> is abstract, so all</text>
      <text font-style="normal" x="139" xml:space="preserve" y="13" clip-path="url(#clipPath9)" stroke="none"> </text>
      <text font-style="normal" x="0" xml:space="preserve" y="29" clip-path="url(#clipPath9)" stroke="none">subclasses must implement it</text>
    </g>
    <g text-rendering="geometricPrecision" stroke-miterlimit="1.45" shape-rendering="geometricPrecision" transform="matrix(1,0,0,1,5,509)" stroke-linecap="butt">
      <path fill="none" d="M256.2857 -144.5332 L256.2857 -178.5 L436.5 -178.5 L436.5 -193.9702" clip-path="url(#clipPath2)"/>
      <path fill="white" d="M436.5 -208.9702 L430.5 -192.9702 L442.5 -192.9702 Z" clip-path="url(#clipPath2)" stroke="none"/>
      <path fill="none" d="M436.5 -208.9702 L430.5 -192.9702 L442.5 -192.9702 Z" clip-path="url(#clipPath2)"/>
      <path fill="none" d="M629.2857 -163.0303 L629.2857 -178.5 L436.5 -178.5 L436.5 -193.9702" clip-path="url(#clipPath2)"/>
      <path fill="white" d="M436.5 -208.9702 L430.5 -192.9702 L442.5 -192.9702 Z" clip-path="url(#clipPath2)" stroke="none"/>
      <path fill="none" d="M436.5 -208.9702 L430.5 -192.9702 L442.5 -192.9702 Z" clip-path="url(#clipPath2)"/>
      <path fill="none" d="M228.0764 -428.0975 L436.3728 -366.9987" clip-path="url(#clipPath2)"/>
      <path fill="none" d="M145.1619 -425.9885 L301.9854 -219.6263" clip-path="url(#clipPath2)"/>
      <path fill="none" d="M750.6483 -310.0035 L571.0283 -220.4203" clip-path="url(#clipPath2)"/>
    </g>
  </g>
</svg>
